G04 #@! TF.FileFunction,Copper,L2,Bot,Signal*
%FSLAX46Y46*%
G04 Gerber Fmt 4.6, Leading zero omitted, Abs format (unit mm)*
G04 Created by KiCad (PCBNEW 4.0.7-e2-6376~58~ubuntu16.04.1) date Thu Oct  5 23:50:46 2017*
%MOMM*%
%LPD*%
G01*
G04 APERTURE LIST*
%ADD10C,0.100000*%
%ADD11C,2.499360*%
%ADD12R,1.800000X1.800000*%
%ADD13C,1.800000*%
%ADD14C,1.400000*%
%ADD15O,1.400000X1.400000*%
%ADD16C,2.000000*%
%ADD17O,2.032000X2.540000*%
%ADD18R,1.600000X1.600000*%
%ADD19O,1.600000X1.600000*%
%ADD20R,1.350000X1.350000*%
%ADD21O,1.350000X1.350000*%
%ADD22C,0.250000*%
%ADD23C,0.254000*%
G04 APERTURE END LIST*
D10*
D11*
X53340000Y-80010000D03*
X63500000Y-80010000D03*
D12*
X66040000Y-104140000D03*
D13*
X66040000Y-101600000D03*
D12*
X83820000Y-124460000D03*
D13*
X86360000Y-124460000D03*
D12*
X99060000Y-104140000D03*
D13*
X99060000Y-101600000D03*
D12*
X83820000Y-77470000D03*
D13*
X81280000Y-77470000D03*
D14*
X73660000Y-106680000D03*
D15*
X73660000Y-101600000D03*
D14*
X81280000Y-116840000D03*
D15*
X86360000Y-116840000D03*
D14*
X101600000Y-81280000D03*
D15*
X96520000Y-81280000D03*
D14*
X91440000Y-101600000D03*
D15*
X91440000Y-96520000D03*
D14*
X80010000Y-83820000D03*
D15*
X85090000Y-83820000D03*
D14*
X85090000Y-87630000D03*
D15*
X80010000Y-87630000D03*
D16*
X50800000Y-106100000D03*
X50800000Y-101600000D03*
X57300000Y-106100000D03*
X57300000Y-101600000D03*
X81280000Y-136580000D03*
X81280000Y-132080000D03*
X87780000Y-136580000D03*
X87780000Y-132080000D03*
X114300000Y-102180000D03*
X114300000Y-106680000D03*
X107800000Y-102180000D03*
X107800000Y-106680000D03*
X78740000Y-70540000D03*
X78740000Y-66040000D03*
X85240000Y-70540000D03*
X85240000Y-66040000D03*
X96520000Y-75620000D03*
X96520000Y-71120000D03*
X103020000Y-75620000D03*
X103020000Y-71120000D03*
D17*
X109220000Y-135890000D03*
X111760000Y-135890000D03*
X106680000Y-135890000D03*
D18*
X78740000Y-91440000D03*
D19*
X86360000Y-111760000D03*
X78740000Y-93980000D03*
X86360000Y-109220000D03*
X78740000Y-96520000D03*
X86360000Y-106680000D03*
X78740000Y-99060000D03*
X86360000Y-104140000D03*
X78740000Y-101600000D03*
X86360000Y-101600000D03*
X78740000Y-104140000D03*
X86360000Y-99060000D03*
X78740000Y-106680000D03*
X86360000Y-96520000D03*
X78740000Y-109220000D03*
X86360000Y-93980000D03*
X78740000Y-111760000D03*
X86360000Y-91440000D03*
D20*
X96520000Y-137160000D03*
D21*
X98520000Y-137160000D03*
D20*
X114300000Y-83820000D03*
D21*
X114300000Y-85820000D03*
X114300000Y-87820000D03*
X114300000Y-89820000D03*
X114300000Y-91820000D03*
X114300000Y-93820000D03*
D14*
X110490000Y-74930000D03*
X110490000Y-87630000D03*
X95250000Y-116840000D03*
X95250000Y-109220000D03*
D22*
X96520000Y-137160000D02*
X96520000Y-135890000D01*
X105410000Y-134620000D02*
X106680000Y-135890000D01*
X97790000Y-134620000D02*
X105410000Y-134620000D01*
X96520000Y-135890000D02*
X97790000Y-134620000D01*
X83820000Y-77470000D02*
X83820000Y-76200000D01*
X81280000Y-68580000D02*
X78740000Y-66040000D01*
X81280000Y-73660000D02*
X81280000Y-68580000D01*
X83820000Y-76200000D02*
X81280000Y-73660000D01*
X114300000Y-87820000D02*
X115760000Y-87820000D01*
X115760000Y-87820000D02*
X116840000Y-88900000D01*
X116840000Y-88900000D02*
X116840000Y-104140000D01*
X116840000Y-104140000D02*
X114300000Y-106680000D01*
X78740000Y-66040000D02*
X67310000Y-66040000D01*
X67310000Y-66040000D02*
X53340000Y-80010000D01*
X96520000Y-71120000D02*
X95250000Y-71120000D01*
X90320000Y-71120000D02*
X85240000Y-66040000D01*
X95250000Y-71120000D02*
X90320000Y-71120000D01*
X99060000Y-104140000D02*
X101600000Y-104140000D01*
X104140000Y-106680000D02*
X107800000Y-106680000D01*
X101600000Y-104140000D02*
X104140000Y-106680000D01*
X69850000Y-104140000D02*
X76200000Y-104140000D01*
X66040000Y-104140000D02*
X69850000Y-104140000D01*
X76200000Y-104140000D02*
X78740000Y-101600000D01*
X57300000Y-101600000D02*
X59690000Y-101600000D01*
X59690000Y-101600000D02*
X62230000Y-104140000D01*
X62230000Y-104140000D02*
X66040000Y-104140000D01*
X50800000Y-101600000D02*
X50800000Y-82550000D01*
X50800000Y-82550000D02*
X53340000Y-80010000D01*
X81280000Y-132080000D02*
X81280000Y-127000000D01*
X81280000Y-127000000D02*
X83820000Y-124460000D01*
X98520000Y-137160000D02*
X98520000Y-137700000D01*
X98520000Y-137700000D02*
X96520000Y-139700000D01*
X83820000Y-134620000D02*
X81280000Y-132080000D01*
X83820000Y-137160000D02*
X83820000Y-134620000D01*
X86360000Y-139700000D02*
X83820000Y-137160000D01*
X96520000Y-139700000D02*
X86360000Y-139700000D01*
X98520000Y-137160000D02*
X99060000Y-137160000D01*
X99060000Y-137160000D02*
X100330000Y-138430000D01*
X100330000Y-138430000D02*
X107950000Y-138430000D01*
X107950000Y-138430000D02*
X109220000Y-137160000D01*
X109220000Y-137160000D02*
X109220000Y-135890000D01*
X63500000Y-80010000D02*
X72390000Y-80010000D01*
X72390000Y-80010000D02*
X80010000Y-87630000D01*
X66040000Y-101600000D02*
X73660000Y-101600000D01*
X86360000Y-124460000D02*
X86360000Y-116840000D01*
X91440000Y-101600000D02*
X99060000Y-101600000D01*
X80010000Y-83820000D02*
X80010000Y-78740000D01*
X80010000Y-78740000D02*
X81280000Y-77470000D01*
X78740000Y-99060000D02*
X80010000Y-99060000D01*
X104140000Y-73660000D02*
X114300000Y-83820000D01*
X95250000Y-73660000D02*
X104140000Y-73660000D01*
X90170000Y-78740000D02*
X95250000Y-73660000D01*
X85090000Y-78740000D02*
X90170000Y-78740000D01*
X81280000Y-82550000D02*
X85090000Y-78740000D01*
X81280000Y-97790000D02*
X81280000Y-82550000D01*
X80010000Y-99060000D02*
X81280000Y-97790000D01*
X86360000Y-101600000D02*
X87630000Y-101600000D01*
X106045000Y-85725000D02*
X105410000Y-85090000D01*
X92710000Y-99060000D02*
X106045000Y-85725000D01*
X90170000Y-99060000D02*
X92710000Y-99060000D01*
X87630000Y-101600000D02*
X90170000Y-99060000D01*
X111760000Y-135890000D02*
X111760000Y-111760000D01*
X116300000Y-85820000D02*
X114300000Y-85820000D01*
X118110000Y-87630000D02*
X116300000Y-85820000D01*
X118110000Y-105410000D02*
X118110000Y-87630000D01*
X111760000Y-111760000D02*
X118110000Y-105410000D01*
X114300000Y-85820000D02*
X106140000Y-85820000D01*
X106140000Y-85820000D02*
X105410000Y-85090000D01*
X105410000Y-85090000D02*
X101600000Y-81280000D01*
X85240000Y-70540000D02*
X85240000Y-70000000D01*
X85240000Y-70000000D02*
X82550000Y-67310000D01*
X82550000Y-67310000D02*
X82550000Y-66040000D01*
X82550000Y-66040000D02*
X85090000Y-63500000D01*
X85090000Y-63500000D02*
X102870000Y-63500000D01*
X102870000Y-63500000D02*
X110490000Y-71120000D01*
X110490000Y-71120000D02*
X110490000Y-74930000D01*
X110490000Y-87630000D02*
X110490000Y-90170000D01*
X86360000Y-104140000D02*
X90170000Y-100330000D01*
X110840000Y-89820000D02*
X114300000Y-89820000D01*
X101600000Y-99060000D02*
X110490000Y-90170000D01*
X110490000Y-90170000D02*
X110840000Y-89820000D01*
X93980000Y-99060000D02*
X101600000Y-99060000D01*
X92710000Y-100330000D02*
X93980000Y-99060000D01*
X90170000Y-100330000D02*
X92710000Y-100330000D01*
X86360000Y-106680000D02*
X96520000Y-106680000D01*
X110490000Y-104870000D02*
X107800000Y-102180000D01*
X110490000Y-107950000D02*
X110490000Y-104870000D01*
X109220000Y-109220000D02*
X110490000Y-107950000D01*
X99060000Y-109220000D02*
X109220000Y-109220000D01*
X96520000Y-106680000D02*
X99060000Y-109220000D01*
X114300000Y-91820000D02*
X111380000Y-91820000D01*
X107800000Y-95400000D02*
X107800000Y-102180000D01*
X111380000Y-91820000D02*
X107800000Y-95400000D01*
X107800000Y-102180000D02*
X107800000Y-102720000D01*
X114300000Y-93820000D02*
X114300000Y-97790000D01*
X109220000Y-111760000D02*
X86360000Y-111760000D01*
X111760000Y-109220000D02*
X109220000Y-111760000D01*
X111760000Y-100330000D02*
X111760000Y-109220000D01*
X114300000Y-97790000D02*
X111760000Y-100330000D01*
X86360000Y-111760000D02*
X86360000Y-113030000D01*
X65350000Y-120650000D02*
X50800000Y-106100000D01*
X81280000Y-120650000D02*
X65350000Y-120650000D01*
X83820000Y-118110000D02*
X81280000Y-120650000D01*
X83820000Y-115570000D02*
X83820000Y-118110000D01*
X86360000Y-113030000D02*
X83820000Y-115570000D01*
X73660000Y-106680000D02*
X78740000Y-106680000D01*
X81280000Y-116840000D02*
X81280000Y-111760000D01*
X81280000Y-111760000D02*
X78740000Y-109220000D01*
X96520000Y-81280000D02*
X83820000Y-81280000D01*
X82550000Y-100330000D02*
X78740000Y-104140000D01*
X82550000Y-82550000D02*
X82550000Y-100330000D01*
X83820000Y-81280000D02*
X82550000Y-82550000D01*
X96520000Y-81280000D02*
X96520000Y-75620000D01*
X86360000Y-93980000D02*
X88900000Y-93980000D01*
X88900000Y-93980000D02*
X91440000Y-96520000D01*
X85090000Y-83820000D02*
X87630000Y-86360000D01*
X87630000Y-90170000D02*
X86360000Y-91440000D01*
X87630000Y-86360000D02*
X87630000Y-90170000D01*
X85090000Y-87630000D02*
X85090000Y-88900000D01*
X83820000Y-96520000D02*
X86360000Y-99060000D01*
X83820000Y-90170000D02*
X83820000Y-96520000D01*
X85090000Y-88900000D02*
X83820000Y-90170000D01*
X86360000Y-109220000D02*
X95250000Y-109220000D01*
X91440000Y-132920000D02*
X87780000Y-136580000D01*
X91440000Y-120650000D02*
X91440000Y-132920000D01*
X95250000Y-116840000D02*
X91440000Y-120650000D01*
D23*
G36*
X84552599Y-62962599D02*
X82012599Y-65502599D01*
X81847852Y-65749161D01*
X81790000Y-66040000D01*
X81790000Y-67310000D01*
X81847852Y-67600839D01*
X82012599Y-67847401D01*
X83832163Y-69666965D01*
X83605284Y-70213352D01*
X83604716Y-70863795D01*
X83853106Y-71464943D01*
X84312637Y-71925278D01*
X84913352Y-72174716D01*
X85563795Y-72175284D01*
X86164943Y-71926894D01*
X86625278Y-71467363D01*
X86874716Y-70866648D01*
X86874725Y-70855461D01*
X94874092Y-70855461D01*
X94898144Y-71505460D01*
X95100613Y-71994264D01*
X95367468Y-72092927D01*
X96340395Y-71120000D01*
X96699605Y-71120000D01*
X97672532Y-72092927D01*
X97939387Y-71994264D01*
X98165908Y-71384539D01*
X98146331Y-70855461D01*
X101374092Y-70855461D01*
X101398144Y-71505460D01*
X101600613Y-71994264D01*
X101867468Y-72092927D01*
X102840395Y-71120000D01*
X103199605Y-71120000D01*
X104172532Y-72092927D01*
X104439387Y-71994264D01*
X104665908Y-71384539D01*
X104641856Y-70734540D01*
X104439387Y-70245736D01*
X104172532Y-70147073D01*
X103199605Y-71120000D01*
X102840395Y-71120000D01*
X101867468Y-70147073D01*
X101600613Y-70245736D01*
X101374092Y-70855461D01*
X98146331Y-70855461D01*
X98141856Y-70734540D01*
X97939387Y-70245736D01*
X97672532Y-70147073D01*
X96699605Y-71120000D01*
X96340395Y-71120000D01*
X95367468Y-70147073D01*
X95100613Y-70245736D01*
X94874092Y-70855461D01*
X86874725Y-70855461D01*
X86875284Y-70216205D01*
X86772508Y-69967468D01*
X95547073Y-69967468D01*
X96520000Y-70940395D01*
X97492927Y-69967468D01*
X102047073Y-69967468D01*
X103020000Y-70940395D01*
X103992927Y-69967468D01*
X103894264Y-69700613D01*
X103284539Y-69474092D01*
X102634540Y-69498144D01*
X102145736Y-69700613D01*
X102047073Y-69967468D01*
X97492927Y-69967468D01*
X97394264Y-69700613D01*
X96784539Y-69474092D01*
X96134540Y-69498144D01*
X95645736Y-69700613D01*
X95547073Y-69967468D01*
X86772508Y-69967468D01*
X86626894Y-69615057D01*
X86167363Y-69154722D01*
X85566648Y-68905284D01*
X85219783Y-68904981D01*
X83507334Y-67192532D01*
X84267073Y-67192532D01*
X84365736Y-67459387D01*
X84975461Y-67685908D01*
X85625460Y-67661856D01*
X86114264Y-67459387D01*
X86212927Y-67192532D01*
X85240000Y-66219605D01*
X84267073Y-67192532D01*
X83507334Y-67192532D01*
X83310000Y-66995198D01*
X83310000Y-66354802D01*
X83604627Y-66060175D01*
X83618144Y-66425460D01*
X83820613Y-66914264D01*
X84087468Y-67012927D01*
X85060395Y-66040000D01*
X85419605Y-66040000D01*
X86392532Y-67012927D01*
X86659387Y-66914264D01*
X86885908Y-66304539D01*
X86861856Y-65654540D01*
X86659387Y-65165736D01*
X86392532Y-65067073D01*
X85419605Y-66040000D01*
X85060395Y-66040000D01*
X85046253Y-66025858D01*
X85225858Y-65846253D01*
X85240000Y-65860395D01*
X86212927Y-64887468D01*
X86114264Y-64620613D01*
X85504539Y-64394092D01*
X85261725Y-64403077D01*
X85404802Y-64260000D01*
X102555198Y-64260000D01*
X109730000Y-71434802D01*
X109730000Y-73802345D01*
X109358902Y-74172796D01*
X109155232Y-74663287D01*
X109154769Y-75194383D01*
X109357582Y-75685229D01*
X109732796Y-76061098D01*
X110223287Y-76264768D01*
X110754383Y-76265231D01*
X111245229Y-76062418D01*
X111621098Y-75687204D01*
X111824768Y-75196713D01*
X111825231Y-74665617D01*
X111622418Y-74174771D01*
X111250000Y-73801703D01*
X111250000Y-71120000D01*
X111199037Y-70863795D01*
X111192148Y-70829160D01*
X111027401Y-70582599D01*
X103407401Y-62962599D01*
X103373579Y-62940000D01*
X118670000Y-62940000D01*
X118670000Y-87126421D01*
X118647401Y-87092599D01*
X116837401Y-85282599D01*
X116590839Y-85117852D01*
X116300000Y-85060000D01*
X115363099Y-85060000D01*
X115334992Y-85017936D01*
X115426441Y-84959090D01*
X115571431Y-84746890D01*
X115622440Y-84495000D01*
X115622440Y-83145000D01*
X115578162Y-82909683D01*
X115439090Y-82693559D01*
X115226890Y-82548569D01*
X114975000Y-82497560D01*
X114052362Y-82497560D01*
X104677401Y-73122599D01*
X104430839Y-72957852D01*
X104140000Y-72900000D01*
X95250000Y-72900000D01*
X94959161Y-72957852D01*
X94712599Y-73122599D01*
X89855198Y-77980000D01*
X85355000Y-77980000D01*
X85355000Y-77755750D01*
X85196250Y-77597000D01*
X83947000Y-77597000D01*
X83947000Y-77617000D01*
X83693000Y-77617000D01*
X83693000Y-77597000D01*
X83673000Y-77597000D01*
X83673000Y-77343000D01*
X83693000Y-77343000D01*
X83693000Y-76093750D01*
X83947000Y-76093750D01*
X83947000Y-77343000D01*
X85196250Y-77343000D01*
X85355000Y-77184250D01*
X85355000Y-76443690D01*
X85258327Y-76210301D01*
X85079698Y-76031673D01*
X84846309Y-75935000D01*
X84105750Y-75935000D01*
X83947000Y-76093750D01*
X83693000Y-76093750D01*
X83534250Y-75935000D01*
X82793691Y-75935000D01*
X82560302Y-76031673D01*
X82381673Y-76210301D01*
X82325881Y-76344994D01*
X82150643Y-76169449D01*
X81586670Y-75935267D01*
X80976009Y-75934735D01*
X80411629Y-76167932D01*
X79979449Y-76599357D01*
X79745267Y-77163330D01*
X79744735Y-77773991D01*
X79790485Y-77884713D01*
X79472599Y-78202599D01*
X79307852Y-78449161D01*
X79250000Y-78740000D01*
X79250000Y-82692345D01*
X78878902Y-83062796D01*
X78675232Y-83553287D01*
X78674769Y-84084383D01*
X78877582Y-84575229D01*
X79252796Y-84951098D01*
X79743287Y-85154768D01*
X80274383Y-85155231D01*
X80520000Y-85053744D01*
X80520000Y-86391243D01*
X80036154Y-86295000D01*
X79983846Y-86295000D01*
X79788632Y-86333830D01*
X72927401Y-79472599D01*
X72680839Y-79307852D01*
X72390000Y-79250000D01*
X65225201Y-79250000D01*
X65098686Y-78943809D01*
X64568979Y-78413178D01*
X63876531Y-78125648D01*
X63126759Y-78124994D01*
X62433809Y-78411314D01*
X61903178Y-78941021D01*
X61615648Y-79633469D01*
X61614994Y-80383241D01*
X61901314Y-81076191D01*
X62431021Y-81606822D01*
X63123469Y-81894352D01*
X63873241Y-81895006D01*
X64566191Y-81608686D01*
X65096822Y-81078979D01*
X65225121Y-80770000D01*
X72075198Y-80770000D01*
X78696355Y-87391157D01*
X78648846Y-87630000D01*
X78750467Y-88140882D01*
X79039858Y-88573988D01*
X79472964Y-88863379D01*
X79983846Y-88965000D01*
X80036154Y-88965000D01*
X80520000Y-88868757D01*
X80520000Y-97475198D01*
X79849736Y-98145462D01*
X79782811Y-98045302D01*
X79400725Y-97790000D01*
X79782811Y-97534698D01*
X80093880Y-97069151D01*
X80203113Y-96520000D01*
X80093880Y-95970849D01*
X79782811Y-95505302D01*
X79400725Y-95250000D01*
X79782811Y-94994698D01*
X80093880Y-94529151D01*
X80203113Y-93980000D01*
X80093880Y-93430849D01*
X79782811Y-92965302D01*
X79638535Y-92868899D01*
X79775317Y-92843162D01*
X79991441Y-92704090D01*
X80136431Y-92491890D01*
X80187440Y-92240000D01*
X80187440Y-90640000D01*
X80143162Y-90404683D01*
X80004090Y-90188559D01*
X79791890Y-90043569D01*
X79540000Y-89992560D01*
X77940000Y-89992560D01*
X77704683Y-90036838D01*
X77488559Y-90175910D01*
X77343569Y-90388110D01*
X77292560Y-90640000D01*
X77292560Y-92240000D01*
X77336838Y-92475317D01*
X77475910Y-92691441D01*
X77688110Y-92836431D01*
X77843089Y-92867815D01*
X77697189Y-92965302D01*
X77386120Y-93430849D01*
X77276887Y-93980000D01*
X77386120Y-94529151D01*
X77697189Y-94994698D01*
X78079275Y-95250000D01*
X77697189Y-95505302D01*
X77386120Y-95970849D01*
X77276887Y-96520000D01*
X77386120Y-97069151D01*
X77697189Y-97534698D01*
X78079275Y-97790000D01*
X77697189Y-98045302D01*
X77386120Y-98510849D01*
X77276887Y-99060000D01*
X77386120Y-99609151D01*
X77697189Y-100074698D01*
X78101703Y-100344986D01*
X77884866Y-100447611D01*
X77508959Y-100862577D01*
X77348096Y-101250961D01*
X77470085Y-101473000D01*
X78613000Y-101473000D01*
X78613000Y-101453000D01*
X78867000Y-101453000D01*
X78867000Y-101473000D01*
X80009915Y-101473000D01*
X80131904Y-101250961D01*
X79971041Y-100862577D01*
X79595134Y-100447611D01*
X79378297Y-100344986D01*
X79782811Y-100074698D01*
X79952995Y-99820000D01*
X80010000Y-99820000D01*
X80300839Y-99762148D01*
X80547401Y-99597401D01*
X81790000Y-98354802D01*
X81790000Y-100015198D01*
X80034127Y-101771071D01*
X80009915Y-101727000D01*
X78867000Y-101727000D01*
X78867000Y-101747000D01*
X78613000Y-101747000D01*
X78613000Y-101727000D01*
X77470085Y-101727000D01*
X77348096Y-101949039D01*
X77508959Y-102337423D01*
X77884866Y-102752389D01*
X78101703Y-102855014D01*
X77697189Y-103125302D01*
X77386120Y-103590849D01*
X77276887Y-104140000D01*
X77386120Y-104689151D01*
X77697189Y-105154698D01*
X78079275Y-105410000D01*
X77697189Y-105665302D01*
X77527005Y-105920000D01*
X74787655Y-105920000D01*
X74417204Y-105548902D01*
X73926713Y-105345232D01*
X73395617Y-105344769D01*
X72904771Y-105547582D01*
X72528902Y-105922796D01*
X72325232Y-106413287D01*
X72324769Y-106944383D01*
X72527582Y-107435229D01*
X72902796Y-107811098D01*
X73393287Y-108014768D01*
X73924383Y-108015231D01*
X74415229Y-107812418D01*
X74788297Y-107440000D01*
X77527005Y-107440000D01*
X77697189Y-107694698D01*
X78079275Y-107950000D01*
X77697189Y-108205302D01*
X77386120Y-108670849D01*
X77276887Y-109220000D01*
X77386120Y-109769151D01*
X77697189Y-110234698D01*
X78079275Y-110490000D01*
X77697189Y-110745302D01*
X77386120Y-111210849D01*
X77276887Y-111760000D01*
X77386120Y-112309151D01*
X77697189Y-112774698D01*
X78162736Y-113085767D01*
X78711887Y-113195000D01*
X78768113Y-113195000D01*
X79317264Y-113085767D01*
X79782811Y-112774698D01*
X80093880Y-112309151D01*
X80203113Y-111760000D01*
X80202595Y-111757397D01*
X80520000Y-112074802D01*
X80520000Y-115712345D01*
X80148902Y-116082796D01*
X79945232Y-116573287D01*
X79944769Y-117104383D01*
X80147582Y-117595229D01*
X80522796Y-117971098D01*
X81013287Y-118174768D01*
X81544383Y-118175231D01*
X82035229Y-117972418D01*
X82411098Y-117597204D01*
X82614768Y-117106713D01*
X82615231Y-116575617D01*
X82412418Y-116084771D01*
X82040000Y-115711703D01*
X82040000Y-111760000D01*
X81982148Y-111469161D01*
X81982148Y-111469160D01*
X81817401Y-111222599D01*
X80138688Y-109543886D01*
X80203113Y-109220000D01*
X80093880Y-108670849D01*
X79782811Y-108205302D01*
X79400725Y-107950000D01*
X79782811Y-107694698D01*
X80093880Y-107229151D01*
X80203113Y-106680000D01*
X80093880Y-106130849D01*
X79782811Y-105665302D01*
X79400725Y-105410000D01*
X79782811Y-105154698D01*
X80093880Y-104689151D01*
X80203113Y-104140000D01*
X80138688Y-103816114D01*
X83087401Y-100867401D01*
X83252148Y-100620839D01*
X83310000Y-100330000D01*
X83310000Y-97084802D01*
X84961312Y-98736114D01*
X84896887Y-99060000D01*
X85006120Y-99609151D01*
X85317189Y-100074698D01*
X85699275Y-100330000D01*
X85317189Y-100585302D01*
X85006120Y-101050849D01*
X84896887Y-101600000D01*
X85006120Y-102149151D01*
X85317189Y-102614698D01*
X85699275Y-102870000D01*
X85317189Y-103125302D01*
X85006120Y-103590849D01*
X84896887Y-104140000D01*
X85006120Y-104689151D01*
X85317189Y-105154698D01*
X85699275Y-105410000D01*
X85317189Y-105665302D01*
X85006120Y-106130849D01*
X84896887Y-106680000D01*
X85006120Y-107229151D01*
X85317189Y-107694698D01*
X85699275Y-107950000D01*
X85317189Y-108205302D01*
X85006120Y-108670849D01*
X84896887Y-109220000D01*
X85006120Y-109769151D01*
X85317189Y-110234698D01*
X85699275Y-110490000D01*
X85317189Y-110745302D01*
X85006120Y-111210849D01*
X84896887Y-111760000D01*
X85006120Y-112309151D01*
X85317189Y-112774698D01*
X85451054Y-112864144D01*
X83282599Y-115032599D01*
X83117852Y-115279161D01*
X83060000Y-115570000D01*
X83060000Y-117795198D01*
X80965198Y-119890000D01*
X65664802Y-119890000D01*
X52366275Y-106591473D01*
X52434716Y-106426648D01*
X52434718Y-106423795D01*
X55664716Y-106423795D01*
X55913106Y-107024943D01*
X56372637Y-107485278D01*
X56973352Y-107734716D01*
X57623795Y-107735284D01*
X58224943Y-107486894D01*
X58685278Y-107027363D01*
X58934716Y-106426648D01*
X58935284Y-105776205D01*
X58686894Y-105175057D01*
X58227363Y-104714722D01*
X57626648Y-104465284D01*
X56976205Y-104464716D01*
X56375057Y-104713106D01*
X55914722Y-105172637D01*
X55665284Y-105773352D01*
X55664716Y-106423795D01*
X52434718Y-106423795D01*
X52435284Y-105776205D01*
X52186894Y-105175057D01*
X51727363Y-104714722D01*
X51126648Y-104465284D01*
X50476205Y-104464716D01*
X49875057Y-104713106D01*
X49414722Y-105172637D01*
X49165284Y-105773352D01*
X49164716Y-106423795D01*
X49413106Y-107024943D01*
X49872637Y-107485278D01*
X50473352Y-107734716D01*
X51123795Y-107735284D01*
X51291279Y-107666081D01*
X64812599Y-121187401D01*
X65059160Y-121352148D01*
X65350000Y-121410000D01*
X81280000Y-121410000D01*
X81570839Y-121352148D01*
X81817401Y-121187401D01*
X84357401Y-118647401D01*
X84522148Y-118400840D01*
X84531746Y-118352586D01*
X84580000Y-118110000D01*
X84580000Y-115884802D01*
X86897401Y-113567401D01*
X87062148Y-113320840D01*
X87087179Y-113195000D01*
X87120000Y-113030000D01*
X87120000Y-112963667D01*
X87402811Y-112774698D01*
X87572995Y-112520000D01*
X109220000Y-112520000D01*
X109510839Y-112462148D01*
X109757401Y-112297401D01*
X112297401Y-109757401D01*
X112462148Y-109510840D01*
X112471746Y-109462586D01*
X112520000Y-109220000D01*
X112520000Y-106415461D01*
X112654092Y-106415461D01*
X112678144Y-107065460D01*
X112880613Y-107554264D01*
X113147468Y-107652927D01*
X114120395Y-106680000D01*
X113147468Y-105707073D01*
X112880613Y-105805736D01*
X112654092Y-106415461D01*
X112520000Y-106415461D01*
X112520000Y-105527468D01*
X113327073Y-105527468D01*
X114300000Y-106500395D01*
X115272927Y-105527468D01*
X115174264Y-105260613D01*
X114564539Y-105034092D01*
X113914540Y-105058144D01*
X113425736Y-105260613D01*
X113327073Y-105527468D01*
X112520000Y-105527468D01*
X112520000Y-102503795D01*
X112664716Y-102503795D01*
X112913106Y-103104943D01*
X113372637Y-103565278D01*
X113973352Y-103814716D01*
X114623795Y-103815284D01*
X115224943Y-103566894D01*
X115685278Y-103107363D01*
X115934716Y-102506648D01*
X115935284Y-101856205D01*
X115686894Y-101255057D01*
X115227363Y-100794722D01*
X114626648Y-100545284D01*
X113976205Y-100544716D01*
X113375057Y-100793106D01*
X112914722Y-101252637D01*
X112665284Y-101853352D01*
X112664716Y-102503795D01*
X112520000Y-102503795D01*
X112520000Y-100644802D01*
X114837401Y-98327401D01*
X115002148Y-98080840D01*
X115041868Y-97881154D01*
X115060000Y-97790000D01*
X115060000Y-94874583D01*
X115251974Y-94746310D01*
X115535946Y-94321315D01*
X115635664Y-93820000D01*
X115535946Y-93318685D01*
X115251974Y-92893690D01*
X115141689Y-92820000D01*
X115251974Y-92746310D01*
X115535946Y-92321315D01*
X115635664Y-91820000D01*
X115535946Y-91318685D01*
X115251974Y-90893690D01*
X115141689Y-90820000D01*
X115251974Y-90746310D01*
X115535946Y-90321315D01*
X115635664Y-89820000D01*
X115535946Y-89318685D01*
X115251974Y-88893690D01*
X115134314Y-88815072D01*
X115429478Y-88483633D01*
X115567910Y-88149400D01*
X115444224Y-87947000D01*
X114427000Y-87947000D01*
X114427000Y-87967000D01*
X114173000Y-87967000D01*
X114173000Y-87947000D01*
X113155776Y-87947000D01*
X113032090Y-88149400D01*
X113170522Y-88483633D01*
X113465686Y-88815072D01*
X113348026Y-88893690D01*
X113236901Y-89060000D01*
X111250000Y-89060000D01*
X111250000Y-88757655D01*
X111621098Y-88387204D01*
X111824768Y-87896713D01*
X111825231Y-87365617D01*
X111622418Y-86874771D01*
X111328161Y-86580000D01*
X113236901Y-86580000D01*
X113348026Y-86746310D01*
X113465686Y-86824928D01*
X113170522Y-87156367D01*
X113032090Y-87490600D01*
X113155776Y-87693000D01*
X114173000Y-87693000D01*
X114173000Y-87673000D01*
X114427000Y-87673000D01*
X114427000Y-87693000D01*
X115444224Y-87693000D01*
X115567910Y-87490600D01*
X115429478Y-87156367D01*
X115134314Y-86824928D01*
X115251974Y-86746310D01*
X115363099Y-86580000D01*
X115985198Y-86580000D01*
X117350000Y-87944802D01*
X117350000Y-105095198D01*
X115930020Y-106515178D01*
X115921856Y-106294540D01*
X115719387Y-105805736D01*
X115452532Y-105707073D01*
X114479605Y-106680000D01*
X114493748Y-106694143D01*
X114314143Y-106873748D01*
X114300000Y-106859605D01*
X113327073Y-107832532D01*
X113425736Y-108099387D01*
X114035461Y-108325908D01*
X114122511Y-108322687D01*
X111222599Y-111222599D01*
X111057852Y-111469161D01*
X111000000Y-111760000D01*
X111000000Y-134159008D01*
X110592567Y-134431246D01*
X110475946Y-134605781D01*
X110297630Y-134378764D01*
X109734477Y-134062074D01*
X109602944Y-134030025D01*
X109347000Y-134149164D01*
X109347000Y-135763000D01*
X109367000Y-135763000D01*
X109367000Y-136017000D01*
X109347000Y-136017000D01*
X109347000Y-137630836D01*
X109602944Y-137749975D01*
X109734477Y-137717926D01*
X110297630Y-137401236D01*
X110475946Y-137174219D01*
X110592567Y-137348754D01*
X111128190Y-137706646D01*
X111760000Y-137832321D01*
X112391810Y-137706646D01*
X112927433Y-137348754D01*
X113285325Y-136813131D01*
X113411000Y-136181321D01*
X113411000Y-135598679D01*
X113285325Y-134966869D01*
X112927433Y-134431246D01*
X112520000Y-134159008D01*
X112520000Y-112074802D01*
X118647401Y-105947401D01*
X118670000Y-105913579D01*
X118670000Y-140260000D01*
X48970000Y-140260000D01*
X48970000Y-136903795D01*
X79644716Y-136903795D01*
X79893106Y-137504943D01*
X80352637Y-137965278D01*
X80953352Y-138214716D01*
X81603795Y-138215284D01*
X82204943Y-137966894D01*
X82665278Y-137507363D01*
X82914716Y-136906648D01*
X82914718Y-136903795D01*
X86144716Y-136903795D01*
X86393106Y-137504943D01*
X86852637Y-137965278D01*
X87453352Y-138214716D01*
X88103795Y-138215284D01*
X88704943Y-137966894D01*
X89165278Y-137507363D01*
X89414716Y-136906648D01*
X89415084Y-136485000D01*
X95197560Y-136485000D01*
X95197560Y-137835000D01*
X95241838Y-138070317D01*
X95380910Y-138286441D01*
X95593110Y-138431431D01*
X95845000Y-138482440D01*
X97195000Y-138482440D01*
X97430317Y-138438162D01*
X97646441Y-138299090D01*
X97729939Y-138176887D01*
X97856367Y-138289478D01*
X98190600Y-138427910D01*
X98393000Y-138304224D01*
X98393000Y-137287000D01*
X98647000Y-137287000D01*
X98647000Y-138304224D01*
X98849400Y-138427910D01*
X99183633Y-138289478D01*
X99565349Y-137949540D01*
X99787920Y-137489402D01*
X99665090Y-137287000D01*
X98647000Y-137287000D01*
X98393000Y-137287000D01*
X98373000Y-137287000D01*
X98373000Y-137033000D01*
X98393000Y-137033000D01*
X98393000Y-136015776D01*
X98647000Y-136015776D01*
X98647000Y-137033000D01*
X99665090Y-137033000D01*
X99787920Y-136830598D01*
X99565349Y-136370460D01*
X99183633Y-136030522D01*
X98849400Y-135892090D01*
X98647000Y-136015776D01*
X98393000Y-136015776D01*
X98190600Y-135892090D01*
X97856367Y-136030522D01*
X97729715Y-136143313D01*
X97659090Y-136033559D01*
X97535612Y-135949190D01*
X98104802Y-135380000D01*
X105072498Y-135380000D01*
X105029000Y-135598679D01*
X105029000Y-136181321D01*
X105154675Y-136813131D01*
X105512567Y-137348754D01*
X106048190Y-137706646D01*
X106680000Y-137832321D01*
X107311810Y-137706646D01*
X107847433Y-137348754D01*
X107964054Y-137174219D01*
X108142370Y-137401236D01*
X108705523Y-137717926D01*
X108837056Y-137749975D01*
X109093000Y-137630836D01*
X109093000Y-136017000D01*
X109073000Y-136017000D01*
X109073000Y-135763000D01*
X109093000Y-135763000D01*
X109093000Y-134149164D01*
X108837056Y-134030025D01*
X108705523Y-134062074D01*
X108142370Y-134378764D01*
X107964054Y-134605781D01*
X107847433Y-134431246D01*
X107311810Y-134073354D01*
X106680000Y-133947679D01*
X106048190Y-134073354D01*
X105982229Y-134117427D01*
X105947401Y-134082599D01*
X105700839Y-133917852D01*
X105410000Y-133860000D01*
X97790000Y-133860000D01*
X97499160Y-133917852D01*
X97252599Y-134082599D01*
X95982599Y-135352599D01*
X95817852Y-135599161D01*
X95767532Y-135852137D01*
X95609683Y-135881838D01*
X95393559Y-136020910D01*
X95248569Y-136233110D01*
X95197560Y-136485000D01*
X89415084Y-136485000D01*
X89415284Y-136256205D01*
X89346081Y-136088721D01*
X91977401Y-133457401D01*
X92142148Y-133210839D01*
X92200000Y-132920000D01*
X92200000Y-120964802D01*
X94990028Y-118174774D01*
X95514383Y-118175231D01*
X96005229Y-117972418D01*
X96381098Y-117597204D01*
X96584768Y-117106713D01*
X96585231Y-116575617D01*
X96382418Y-116084771D01*
X96007204Y-115708902D01*
X95516713Y-115505232D01*
X94985617Y-115504769D01*
X94494771Y-115707582D01*
X94118902Y-116082796D01*
X93915232Y-116573287D01*
X93914772Y-117100426D01*
X90902599Y-120112599D01*
X90737852Y-120359161D01*
X90680000Y-120650000D01*
X90680000Y-132605198D01*
X88271473Y-135013725D01*
X88106648Y-134945284D01*
X87456205Y-134944716D01*
X86855057Y-135193106D01*
X86394722Y-135652637D01*
X86145284Y-136253352D01*
X86144716Y-136903795D01*
X82914718Y-136903795D01*
X82915284Y-136256205D01*
X82666894Y-135655057D01*
X82207363Y-135194722D01*
X81606648Y-134945284D01*
X80956205Y-134944716D01*
X80355057Y-135193106D01*
X79894722Y-135652637D01*
X79645284Y-136253352D01*
X79644716Y-136903795D01*
X48970000Y-136903795D01*
X48970000Y-133232532D01*
X80307073Y-133232532D01*
X80405736Y-133499387D01*
X81015461Y-133725908D01*
X81665460Y-133701856D01*
X82154264Y-133499387D01*
X82252927Y-133232532D01*
X86807073Y-133232532D01*
X86905736Y-133499387D01*
X87515461Y-133725908D01*
X88165460Y-133701856D01*
X88654264Y-133499387D01*
X88752927Y-133232532D01*
X87780000Y-132259605D01*
X86807073Y-133232532D01*
X82252927Y-133232532D01*
X81280000Y-132259605D01*
X80307073Y-133232532D01*
X48970000Y-133232532D01*
X48970000Y-131815461D01*
X79634092Y-131815461D01*
X79658144Y-132465460D01*
X79860613Y-132954264D01*
X80127468Y-133052927D01*
X81100395Y-132080000D01*
X81459605Y-132080000D01*
X82432532Y-133052927D01*
X82699387Y-132954264D01*
X82925908Y-132344539D01*
X82906331Y-131815461D01*
X86134092Y-131815461D01*
X86158144Y-132465460D01*
X86360613Y-132954264D01*
X86627468Y-133052927D01*
X87600395Y-132080000D01*
X87959605Y-132080000D01*
X88932532Y-133052927D01*
X89199387Y-132954264D01*
X89425908Y-132344539D01*
X89401856Y-131694540D01*
X89199387Y-131205736D01*
X88932532Y-131107073D01*
X87959605Y-132080000D01*
X87600395Y-132080000D01*
X86627468Y-131107073D01*
X86360613Y-131205736D01*
X86134092Y-131815461D01*
X82906331Y-131815461D01*
X82901856Y-131694540D01*
X82699387Y-131205736D01*
X82432532Y-131107073D01*
X81459605Y-132080000D01*
X81100395Y-132080000D01*
X80127468Y-131107073D01*
X79860613Y-131205736D01*
X79634092Y-131815461D01*
X48970000Y-131815461D01*
X48970000Y-130927468D01*
X80307073Y-130927468D01*
X81280000Y-131900395D01*
X82252927Y-130927468D01*
X86807073Y-130927468D01*
X87780000Y-131900395D01*
X88752927Y-130927468D01*
X88654264Y-130660613D01*
X88044539Y-130434092D01*
X87394540Y-130458144D01*
X86905736Y-130660613D01*
X86807073Y-130927468D01*
X82252927Y-130927468D01*
X82154264Y-130660613D01*
X81544539Y-130434092D01*
X80894540Y-130458144D01*
X80405736Y-130660613D01*
X80307073Y-130927468D01*
X48970000Y-130927468D01*
X48970000Y-124745750D01*
X82285000Y-124745750D01*
X82285000Y-125486310D01*
X82381673Y-125719699D01*
X82560302Y-125898327D01*
X82793691Y-125995000D01*
X83534250Y-125995000D01*
X83693000Y-125836250D01*
X83693000Y-124587000D01*
X82443750Y-124587000D01*
X82285000Y-124745750D01*
X48970000Y-124745750D01*
X48970000Y-123433690D01*
X82285000Y-123433690D01*
X82285000Y-124174250D01*
X82443750Y-124333000D01*
X83693000Y-124333000D01*
X83693000Y-123083750D01*
X83947000Y-123083750D01*
X83947000Y-124333000D01*
X83967000Y-124333000D01*
X83967000Y-124587000D01*
X83947000Y-124587000D01*
X83947000Y-125836250D01*
X84105750Y-125995000D01*
X84846309Y-125995000D01*
X85079698Y-125898327D01*
X85258327Y-125719699D01*
X85314119Y-125585006D01*
X85489357Y-125760551D01*
X86053330Y-125994733D01*
X86663991Y-125995265D01*
X87228371Y-125762068D01*
X87660551Y-125330643D01*
X87894733Y-124766670D01*
X87895265Y-124156009D01*
X87662068Y-123591629D01*
X87230643Y-123159449D01*
X87120000Y-123113506D01*
X87120000Y-117924400D01*
X87330142Y-117783988D01*
X87619533Y-117350882D01*
X87721154Y-116840000D01*
X87619533Y-116329118D01*
X87330142Y-115896012D01*
X86897036Y-115606621D01*
X86386154Y-115505000D01*
X86333846Y-115505000D01*
X85822964Y-115606621D01*
X85389858Y-115896012D01*
X85100467Y-116329118D01*
X84998846Y-116840000D01*
X85100467Y-117350882D01*
X85389858Y-117783988D01*
X85600000Y-117924400D01*
X85600000Y-123113154D01*
X85491629Y-123157932D01*
X85314159Y-123335092D01*
X85258327Y-123200301D01*
X85079698Y-123021673D01*
X84846309Y-122925000D01*
X84105750Y-122925000D01*
X83947000Y-123083750D01*
X83693000Y-123083750D01*
X83534250Y-122925000D01*
X82793691Y-122925000D01*
X82560302Y-123021673D01*
X82381673Y-123200301D01*
X82285000Y-123433690D01*
X48970000Y-123433690D01*
X48970000Y-104425750D01*
X64505000Y-104425750D01*
X64505000Y-105166309D01*
X64601673Y-105399698D01*
X64780301Y-105578327D01*
X65013690Y-105675000D01*
X65754250Y-105675000D01*
X65913000Y-105516250D01*
X65913000Y-104267000D01*
X66167000Y-104267000D01*
X66167000Y-105516250D01*
X66325750Y-105675000D01*
X67066310Y-105675000D01*
X67299699Y-105578327D01*
X67478327Y-105399698D01*
X67575000Y-105166309D01*
X67575000Y-104425750D01*
X67416250Y-104267000D01*
X66167000Y-104267000D01*
X65913000Y-104267000D01*
X64663750Y-104267000D01*
X64505000Y-104425750D01*
X48970000Y-104425750D01*
X48970000Y-102752532D01*
X49827073Y-102752532D01*
X49925736Y-103019387D01*
X50535461Y-103245908D01*
X51185460Y-103221856D01*
X51674264Y-103019387D01*
X51772927Y-102752532D01*
X56327073Y-102752532D01*
X56425736Y-103019387D01*
X57035461Y-103245908D01*
X57685460Y-103221856D01*
X58174264Y-103019387D01*
X58272927Y-102752532D01*
X57300000Y-101779605D01*
X56327073Y-102752532D01*
X51772927Y-102752532D01*
X50800000Y-101779605D01*
X49827073Y-102752532D01*
X48970000Y-102752532D01*
X48970000Y-101335461D01*
X49154092Y-101335461D01*
X49178144Y-101985460D01*
X49380613Y-102474264D01*
X49647468Y-102572927D01*
X50620395Y-101600000D01*
X50979605Y-101600000D01*
X51952532Y-102572927D01*
X52219387Y-102474264D01*
X52445908Y-101864539D01*
X52426331Y-101335461D01*
X55654092Y-101335461D01*
X55678144Y-101985460D01*
X55880613Y-102474264D01*
X56147468Y-102572927D01*
X57120395Y-101600000D01*
X57479605Y-101600000D01*
X58452532Y-102572927D01*
X58719387Y-102474264D01*
X58931251Y-101903991D01*
X64504735Y-101903991D01*
X64737932Y-102468371D01*
X64915092Y-102645841D01*
X64780301Y-102701673D01*
X64601673Y-102880302D01*
X64505000Y-103113691D01*
X64505000Y-103854250D01*
X64663750Y-104013000D01*
X65913000Y-104013000D01*
X65913000Y-103993000D01*
X66167000Y-103993000D01*
X66167000Y-104013000D01*
X67416250Y-104013000D01*
X67575000Y-103854250D01*
X67575000Y-103113691D01*
X67478327Y-102880302D01*
X67299699Y-102701673D01*
X67165006Y-102645881D01*
X67340551Y-102470643D01*
X67386494Y-102360000D01*
X72575600Y-102360000D01*
X72716012Y-102570142D01*
X73149118Y-102859533D01*
X73660000Y-102961154D01*
X74170882Y-102859533D01*
X74603988Y-102570142D01*
X74893379Y-102137036D01*
X74995000Y-101626154D01*
X74995000Y-101573846D01*
X74893379Y-101062964D01*
X74603988Y-100629858D01*
X74170882Y-100340467D01*
X73660000Y-100238846D01*
X73149118Y-100340467D01*
X72716012Y-100629858D01*
X72575600Y-100840000D01*
X67386846Y-100840000D01*
X67342068Y-100731629D01*
X66910643Y-100299449D01*
X66346670Y-100065267D01*
X65736009Y-100064735D01*
X65171629Y-100297932D01*
X64739449Y-100729357D01*
X64505267Y-101293330D01*
X64504735Y-101903991D01*
X58931251Y-101903991D01*
X58945908Y-101864539D01*
X58921856Y-101214540D01*
X58719387Y-100725736D01*
X58452532Y-100627073D01*
X57479605Y-101600000D01*
X57120395Y-101600000D01*
X56147468Y-100627073D01*
X55880613Y-100725736D01*
X55654092Y-101335461D01*
X52426331Y-101335461D01*
X52421856Y-101214540D01*
X52219387Y-100725736D01*
X51952532Y-100627073D01*
X50979605Y-101600000D01*
X50620395Y-101600000D01*
X49647468Y-100627073D01*
X49380613Y-100725736D01*
X49154092Y-101335461D01*
X48970000Y-101335461D01*
X48970000Y-100447468D01*
X49827073Y-100447468D01*
X50800000Y-101420395D01*
X51772927Y-100447468D01*
X56327073Y-100447468D01*
X57300000Y-101420395D01*
X58272927Y-100447468D01*
X58174264Y-100180613D01*
X57564539Y-99954092D01*
X56914540Y-99978144D01*
X56425736Y-100180613D01*
X56327073Y-100447468D01*
X51772927Y-100447468D01*
X51674264Y-100180613D01*
X51064539Y-99954092D01*
X50414540Y-99978144D01*
X49925736Y-100180613D01*
X49827073Y-100447468D01*
X48970000Y-100447468D01*
X48970000Y-81343089D01*
X52186517Y-81343089D01*
X52315725Y-81635859D01*
X53015883Y-81904071D01*
X53765384Y-81883928D01*
X54364275Y-81635859D01*
X54493483Y-81343089D01*
X53340000Y-80189605D01*
X52186517Y-81343089D01*
X48970000Y-81343089D01*
X48970000Y-79685883D01*
X51445929Y-79685883D01*
X51466072Y-80435384D01*
X51714141Y-81034275D01*
X52006911Y-81163483D01*
X53160395Y-80010000D01*
X53519605Y-80010000D01*
X54673089Y-81163483D01*
X54965859Y-81034275D01*
X55234071Y-80334117D01*
X55213928Y-79584616D01*
X54965859Y-78985725D01*
X54673089Y-78856517D01*
X53519605Y-80010000D01*
X53160395Y-80010000D01*
X52006911Y-78856517D01*
X51714141Y-78985725D01*
X51445929Y-79685883D01*
X48970000Y-79685883D01*
X48970000Y-78676911D01*
X52186517Y-78676911D01*
X53340000Y-79830395D01*
X54493483Y-78676911D01*
X54364275Y-78384141D01*
X53664117Y-78115929D01*
X52914616Y-78136072D01*
X52315725Y-78384141D01*
X52186517Y-78676911D01*
X48970000Y-78676911D01*
X48970000Y-72272532D01*
X95547073Y-72272532D01*
X95645736Y-72539387D01*
X96255461Y-72765908D01*
X96905460Y-72741856D01*
X97394264Y-72539387D01*
X97492927Y-72272532D01*
X102047073Y-72272532D01*
X102145736Y-72539387D01*
X102755461Y-72765908D01*
X103405460Y-72741856D01*
X103894264Y-72539387D01*
X103992927Y-72272532D01*
X103020000Y-71299605D01*
X102047073Y-72272532D01*
X97492927Y-72272532D01*
X96520000Y-71299605D01*
X95547073Y-72272532D01*
X48970000Y-72272532D01*
X48970000Y-70863795D01*
X77104716Y-70863795D01*
X77353106Y-71464943D01*
X77812637Y-71925278D01*
X78413352Y-72174716D01*
X79063795Y-72175284D01*
X79664943Y-71926894D01*
X80125278Y-71467363D01*
X80374716Y-70866648D01*
X80375284Y-70216205D01*
X80126894Y-69615057D01*
X79667363Y-69154722D01*
X79066648Y-68905284D01*
X78416205Y-68904716D01*
X77815057Y-69153106D01*
X77354722Y-69612637D01*
X77105284Y-70213352D01*
X77104716Y-70863795D01*
X48970000Y-70863795D01*
X48970000Y-67192532D01*
X77767073Y-67192532D01*
X77865736Y-67459387D01*
X78475461Y-67685908D01*
X79125460Y-67661856D01*
X79614264Y-67459387D01*
X79712927Y-67192532D01*
X78740000Y-66219605D01*
X77767073Y-67192532D01*
X48970000Y-67192532D01*
X48970000Y-65775461D01*
X77094092Y-65775461D01*
X77118144Y-66425460D01*
X77320613Y-66914264D01*
X77587468Y-67012927D01*
X78560395Y-66040000D01*
X78919605Y-66040000D01*
X79892532Y-67012927D01*
X80159387Y-66914264D01*
X80385908Y-66304539D01*
X80361856Y-65654540D01*
X80159387Y-65165736D01*
X79892532Y-65067073D01*
X78919605Y-66040000D01*
X78560395Y-66040000D01*
X77587468Y-65067073D01*
X77320613Y-65165736D01*
X77094092Y-65775461D01*
X48970000Y-65775461D01*
X48970000Y-64887468D01*
X77767073Y-64887468D01*
X78740000Y-65860395D01*
X79712927Y-64887468D01*
X79614264Y-64620613D01*
X79004539Y-64394092D01*
X78354540Y-64418144D01*
X77865736Y-64620613D01*
X77767073Y-64887468D01*
X48970000Y-64887468D01*
X48970000Y-62940000D01*
X84586421Y-62940000D01*
X84552599Y-62962599D01*
X84552599Y-62962599D01*
G37*
X84552599Y-62962599D02*
X82012599Y-65502599D01*
X81847852Y-65749161D01*
X81790000Y-66040000D01*
X81790000Y-67310000D01*
X81847852Y-67600839D01*
X82012599Y-67847401D01*
X83832163Y-69666965D01*
X83605284Y-70213352D01*
X83604716Y-70863795D01*
X83853106Y-71464943D01*
X84312637Y-71925278D01*
X84913352Y-72174716D01*
X85563795Y-72175284D01*
X86164943Y-71926894D01*
X86625278Y-71467363D01*
X86874716Y-70866648D01*
X86874725Y-70855461D01*
X94874092Y-70855461D01*
X94898144Y-71505460D01*
X95100613Y-71994264D01*
X95367468Y-72092927D01*
X96340395Y-71120000D01*
X96699605Y-71120000D01*
X97672532Y-72092927D01*
X97939387Y-71994264D01*
X98165908Y-71384539D01*
X98146331Y-70855461D01*
X101374092Y-70855461D01*
X101398144Y-71505460D01*
X101600613Y-71994264D01*
X101867468Y-72092927D01*
X102840395Y-71120000D01*
X103199605Y-71120000D01*
X104172532Y-72092927D01*
X104439387Y-71994264D01*
X104665908Y-71384539D01*
X104641856Y-70734540D01*
X104439387Y-70245736D01*
X104172532Y-70147073D01*
X103199605Y-71120000D01*
X102840395Y-71120000D01*
X101867468Y-70147073D01*
X101600613Y-70245736D01*
X101374092Y-70855461D01*
X98146331Y-70855461D01*
X98141856Y-70734540D01*
X97939387Y-70245736D01*
X97672532Y-70147073D01*
X96699605Y-71120000D01*
X96340395Y-71120000D01*
X95367468Y-70147073D01*
X95100613Y-70245736D01*
X94874092Y-70855461D01*
X86874725Y-70855461D01*
X86875284Y-70216205D01*
X86772508Y-69967468D01*
X95547073Y-69967468D01*
X96520000Y-70940395D01*
X97492927Y-69967468D01*
X102047073Y-69967468D01*
X103020000Y-70940395D01*
X103992927Y-69967468D01*
X103894264Y-69700613D01*
X103284539Y-69474092D01*
X102634540Y-69498144D01*
X102145736Y-69700613D01*
X102047073Y-69967468D01*
X97492927Y-69967468D01*
X97394264Y-69700613D01*
X96784539Y-69474092D01*
X96134540Y-69498144D01*
X95645736Y-69700613D01*
X95547073Y-69967468D01*
X86772508Y-69967468D01*
X86626894Y-69615057D01*
X86167363Y-69154722D01*
X85566648Y-68905284D01*
X85219783Y-68904981D01*
X83507334Y-67192532D01*
X84267073Y-67192532D01*
X84365736Y-67459387D01*
X84975461Y-67685908D01*
X85625460Y-67661856D01*
X86114264Y-67459387D01*
X86212927Y-67192532D01*
X85240000Y-66219605D01*
X84267073Y-67192532D01*
X83507334Y-67192532D01*
X83310000Y-66995198D01*
X83310000Y-66354802D01*
X83604627Y-66060175D01*
X83618144Y-66425460D01*
X83820613Y-66914264D01*
X84087468Y-67012927D01*
X85060395Y-66040000D01*
X85419605Y-66040000D01*
X86392532Y-67012927D01*
X86659387Y-66914264D01*
X86885908Y-66304539D01*
X86861856Y-65654540D01*
X86659387Y-65165736D01*
X86392532Y-65067073D01*
X85419605Y-66040000D01*
X85060395Y-66040000D01*
X85046253Y-66025858D01*
X85225858Y-65846253D01*
X85240000Y-65860395D01*
X86212927Y-64887468D01*
X86114264Y-64620613D01*
X85504539Y-64394092D01*
X85261725Y-64403077D01*
X85404802Y-64260000D01*
X102555198Y-64260000D01*
X109730000Y-71434802D01*
X109730000Y-73802345D01*
X109358902Y-74172796D01*
X109155232Y-74663287D01*
X109154769Y-75194383D01*
X109357582Y-75685229D01*
X109732796Y-76061098D01*
X110223287Y-76264768D01*
X110754383Y-76265231D01*
X111245229Y-76062418D01*
X111621098Y-75687204D01*
X111824768Y-75196713D01*
X111825231Y-74665617D01*
X111622418Y-74174771D01*
X111250000Y-73801703D01*
X111250000Y-71120000D01*
X111199037Y-70863795D01*
X111192148Y-70829160D01*
X111027401Y-70582599D01*
X103407401Y-62962599D01*
X103373579Y-62940000D01*
X118670000Y-62940000D01*
X118670000Y-87126421D01*
X118647401Y-87092599D01*
X116837401Y-85282599D01*
X116590839Y-85117852D01*
X116300000Y-85060000D01*
X115363099Y-85060000D01*
X115334992Y-85017936D01*
X115426441Y-84959090D01*
X115571431Y-84746890D01*
X115622440Y-84495000D01*
X115622440Y-83145000D01*
X115578162Y-82909683D01*
X115439090Y-82693559D01*
X115226890Y-82548569D01*
X114975000Y-82497560D01*
X114052362Y-82497560D01*
X104677401Y-73122599D01*
X104430839Y-72957852D01*
X104140000Y-72900000D01*
X95250000Y-72900000D01*
X94959161Y-72957852D01*
X94712599Y-73122599D01*
X89855198Y-77980000D01*
X85355000Y-77980000D01*
X85355000Y-77755750D01*
X85196250Y-77597000D01*
X83947000Y-77597000D01*
X83947000Y-77617000D01*
X83693000Y-77617000D01*
X83693000Y-77597000D01*
X83673000Y-77597000D01*
X83673000Y-77343000D01*
X83693000Y-77343000D01*
X83693000Y-76093750D01*
X83947000Y-76093750D01*
X83947000Y-77343000D01*
X85196250Y-77343000D01*
X85355000Y-77184250D01*
X85355000Y-76443690D01*
X85258327Y-76210301D01*
X85079698Y-76031673D01*
X84846309Y-75935000D01*
X84105750Y-75935000D01*
X83947000Y-76093750D01*
X83693000Y-76093750D01*
X83534250Y-75935000D01*
X82793691Y-75935000D01*
X82560302Y-76031673D01*
X82381673Y-76210301D01*
X82325881Y-76344994D01*
X82150643Y-76169449D01*
X81586670Y-75935267D01*
X80976009Y-75934735D01*
X80411629Y-76167932D01*
X79979449Y-76599357D01*
X79745267Y-77163330D01*
X79744735Y-77773991D01*
X79790485Y-77884713D01*
X79472599Y-78202599D01*
X79307852Y-78449161D01*
X79250000Y-78740000D01*
X79250000Y-82692345D01*
X78878902Y-83062796D01*
X78675232Y-83553287D01*
X78674769Y-84084383D01*
X78877582Y-84575229D01*
X79252796Y-84951098D01*
X79743287Y-85154768D01*
X80274383Y-85155231D01*
X80520000Y-85053744D01*
X80520000Y-86391243D01*
X80036154Y-86295000D01*
X79983846Y-86295000D01*
X79788632Y-86333830D01*
X72927401Y-79472599D01*
X72680839Y-79307852D01*
X72390000Y-79250000D01*
X65225201Y-79250000D01*
X65098686Y-78943809D01*
X64568979Y-78413178D01*
X63876531Y-78125648D01*
X63126759Y-78124994D01*
X62433809Y-78411314D01*
X61903178Y-78941021D01*
X61615648Y-79633469D01*
X61614994Y-80383241D01*
X61901314Y-81076191D01*
X62431021Y-81606822D01*
X63123469Y-81894352D01*
X63873241Y-81895006D01*
X64566191Y-81608686D01*
X65096822Y-81078979D01*
X65225121Y-80770000D01*
X72075198Y-80770000D01*
X78696355Y-87391157D01*
X78648846Y-87630000D01*
X78750467Y-88140882D01*
X79039858Y-88573988D01*
X79472964Y-88863379D01*
X79983846Y-88965000D01*
X80036154Y-88965000D01*
X80520000Y-88868757D01*
X80520000Y-97475198D01*
X79849736Y-98145462D01*
X79782811Y-98045302D01*
X79400725Y-97790000D01*
X79782811Y-97534698D01*
X80093880Y-97069151D01*
X80203113Y-96520000D01*
X80093880Y-95970849D01*
X79782811Y-95505302D01*
X79400725Y-95250000D01*
X79782811Y-94994698D01*
X80093880Y-94529151D01*
X80203113Y-93980000D01*
X80093880Y-93430849D01*
X79782811Y-92965302D01*
X79638535Y-92868899D01*
X79775317Y-92843162D01*
X79991441Y-92704090D01*
X80136431Y-92491890D01*
X80187440Y-92240000D01*
X80187440Y-90640000D01*
X80143162Y-90404683D01*
X80004090Y-90188559D01*
X79791890Y-90043569D01*
X79540000Y-89992560D01*
X77940000Y-89992560D01*
X77704683Y-90036838D01*
X77488559Y-90175910D01*
X77343569Y-90388110D01*
X77292560Y-90640000D01*
X77292560Y-92240000D01*
X77336838Y-92475317D01*
X77475910Y-92691441D01*
X77688110Y-92836431D01*
X77843089Y-92867815D01*
X77697189Y-92965302D01*
X77386120Y-93430849D01*
X77276887Y-93980000D01*
X77386120Y-94529151D01*
X77697189Y-94994698D01*
X78079275Y-95250000D01*
X77697189Y-95505302D01*
X77386120Y-95970849D01*
X77276887Y-96520000D01*
X77386120Y-97069151D01*
X77697189Y-97534698D01*
X78079275Y-97790000D01*
X77697189Y-98045302D01*
X77386120Y-98510849D01*
X77276887Y-99060000D01*
X77386120Y-99609151D01*
X77697189Y-100074698D01*
X78101703Y-100344986D01*
X77884866Y-100447611D01*
X77508959Y-100862577D01*
X77348096Y-101250961D01*
X77470085Y-101473000D01*
X78613000Y-101473000D01*
X78613000Y-101453000D01*
X78867000Y-101453000D01*
X78867000Y-101473000D01*
X80009915Y-101473000D01*
X80131904Y-101250961D01*
X79971041Y-100862577D01*
X79595134Y-100447611D01*
X79378297Y-100344986D01*
X79782811Y-100074698D01*
X79952995Y-99820000D01*
X80010000Y-99820000D01*
X80300839Y-99762148D01*
X80547401Y-99597401D01*
X81790000Y-98354802D01*
X81790000Y-100015198D01*
X80034127Y-101771071D01*
X80009915Y-101727000D01*
X78867000Y-101727000D01*
X78867000Y-101747000D01*
X78613000Y-101747000D01*
X78613000Y-101727000D01*
X77470085Y-101727000D01*
X77348096Y-101949039D01*
X77508959Y-102337423D01*
X77884866Y-102752389D01*
X78101703Y-102855014D01*
X77697189Y-103125302D01*
X77386120Y-103590849D01*
X77276887Y-104140000D01*
X77386120Y-104689151D01*
X77697189Y-105154698D01*
X78079275Y-105410000D01*
X77697189Y-105665302D01*
X77527005Y-105920000D01*
X74787655Y-105920000D01*
X74417204Y-105548902D01*
X73926713Y-105345232D01*
X73395617Y-105344769D01*
X72904771Y-105547582D01*
X72528902Y-105922796D01*
X72325232Y-106413287D01*
X72324769Y-106944383D01*
X72527582Y-107435229D01*
X72902796Y-107811098D01*
X73393287Y-108014768D01*
X73924383Y-108015231D01*
X74415229Y-107812418D01*
X74788297Y-107440000D01*
X77527005Y-107440000D01*
X77697189Y-107694698D01*
X78079275Y-107950000D01*
X77697189Y-108205302D01*
X77386120Y-108670849D01*
X77276887Y-109220000D01*
X77386120Y-109769151D01*
X77697189Y-110234698D01*
X78079275Y-110490000D01*
X77697189Y-110745302D01*
X77386120Y-111210849D01*
X77276887Y-111760000D01*
X77386120Y-112309151D01*
X77697189Y-112774698D01*
X78162736Y-113085767D01*
X78711887Y-113195000D01*
X78768113Y-113195000D01*
X79317264Y-113085767D01*
X79782811Y-112774698D01*
X80093880Y-112309151D01*
X80203113Y-111760000D01*
X80202595Y-111757397D01*
X80520000Y-112074802D01*
X80520000Y-115712345D01*
X80148902Y-116082796D01*
X79945232Y-116573287D01*
X79944769Y-117104383D01*
X80147582Y-117595229D01*
X80522796Y-117971098D01*
X81013287Y-118174768D01*
X81544383Y-118175231D01*
X82035229Y-117972418D01*
X82411098Y-117597204D01*
X82614768Y-117106713D01*
X82615231Y-116575617D01*
X82412418Y-116084771D01*
X82040000Y-115711703D01*
X82040000Y-111760000D01*
X81982148Y-111469161D01*
X81982148Y-111469160D01*
X81817401Y-111222599D01*
X80138688Y-109543886D01*
X80203113Y-109220000D01*
X80093880Y-108670849D01*
X79782811Y-108205302D01*
X79400725Y-107950000D01*
X79782811Y-107694698D01*
X80093880Y-107229151D01*
X80203113Y-106680000D01*
X80093880Y-106130849D01*
X79782811Y-105665302D01*
X79400725Y-105410000D01*
X79782811Y-105154698D01*
X80093880Y-104689151D01*
X80203113Y-104140000D01*
X80138688Y-103816114D01*
X83087401Y-100867401D01*
X83252148Y-100620839D01*
X83310000Y-100330000D01*
X83310000Y-97084802D01*
X84961312Y-98736114D01*
X84896887Y-99060000D01*
X85006120Y-99609151D01*
X85317189Y-100074698D01*
X85699275Y-100330000D01*
X85317189Y-100585302D01*
X85006120Y-101050849D01*
X84896887Y-101600000D01*
X85006120Y-102149151D01*
X85317189Y-102614698D01*
X85699275Y-102870000D01*
X85317189Y-103125302D01*
X85006120Y-103590849D01*
X84896887Y-104140000D01*
X85006120Y-104689151D01*
X85317189Y-105154698D01*
X85699275Y-105410000D01*
X85317189Y-105665302D01*
X85006120Y-106130849D01*
X84896887Y-106680000D01*
X85006120Y-107229151D01*
X85317189Y-107694698D01*
X85699275Y-107950000D01*
X85317189Y-108205302D01*
X85006120Y-108670849D01*
X84896887Y-109220000D01*
X85006120Y-109769151D01*
X85317189Y-110234698D01*
X85699275Y-110490000D01*
X85317189Y-110745302D01*
X85006120Y-111210849D01*
X84896887Y-111760000D01*
X85006120Y-112309151D01*
X85317189Y-112774698D01*
X85451054Y-112864144D01*
X83282599Y-115032599D01*
X83117852Y-115279161D01*
X83060000Y-115570000D01*
X83060000Y-117795198D01*
X80965198Y-119890000D01*
X65664802Y-119890000D01*
X52366275Y-106591473D01*
X52434716Y-106426648D01*
X52434718Y-106423795D01*
X55664716Y-106423795D01*
X55913106Y-107024943D01*
X56372637Y-107485278D01*
X56973352Y-107734716D01*
X57623795Y-107735284D01*
X58224943Y-107486894D01*
X58685278Y-107027363D01*
X58934716Y-106426648D01*
X58935284Y-105776205D01*
X58686894Y-105175057D01*
X58227363Y-104714722D01*
X57626648Y-104465284D01*
X56976205Y-104464716D01*
X56375057Y-104713106D01*
X55914722Y-105172637D01*
X55665284Y-105773352D01*
X55664716Y-106423795D01*
X52434718Y-106423795D01*
X52435284Y-105776205D01*
X52186894Y-105175057D01*
X51727363Y-104714722D01*
X51126648Y-104465284D01*
X50476205Y-104464716D01*
X49875057Y-104713106D01*
X49414722Y-105172637D01*
X49165284Y-105773352D01*
X49164716Y-106423795D01*
X49413106Y-107024943D01*
X49872637Y-107485278D01*
X50473352Y-107734716D01*
X51123795Y-107735284D01*
X51291279Y-107666081D01*
X64812599Y-121187401D01*
X65059160Y-121352148D01*
X65350000Y-121410000D01*
X81280000Y-121410000D01*
X81570839Y-121352148D01*
X81817401Y-121187401D01*
X84357401Y-118647401D01*
X84522148Y-118400840D01*
X84531746Y-118352586D01*
X84580000Y-118110000D01*
X84580000Y-115884802D01*
X86897401Y-113567401D01*
X87062148Y-113320840D01*
X87087179Y-113195000D01*
X87120000Y-113030000D01*
X87120000Y-112963667D01*
X87402811Y-112774698D01*
X87572995Y-112520000D01*
X109220000Y-112520000D01*
X109510839Y-112462148D01*
X109757401Y-112297401D01*
X112297401Y-109757401D01*
X112462148Y-109510840D01*
X112471746Y-109462586D01*
X112520000Y-109220000D01*
X112520000Y-106415461D01*
X112654092Y-106415461D01*
X112678144Y-107065460D01*
X112880613Y-107554264D01*
X113147468Y-107652927D01*
X114120395Y-106680000D01*
X113147468Y-105707073D01*
X112880613Y-105805736D01*
X112654092Y-106415461D01*
X112520000Y-106415461D01*
X112520000Y-105527468D01*
X113327073Y-105527468D01*
X114300000Y-106500395D01*
X115272927Y-105527468D01*
X115174264Y-105260613D01*
X114564539Y-105034092D01*
X113914540Y-105058144D01*
X113425736Y-105260613D01*
X113327073Y-105527468D01*
X112520000Y-105527468D01*
X112520000Y-102503795D01*
X112664716Y-102503795D01*
X112913106Y-103104943D01*
X113372637Y-103565278D01*
X113973352Y-103814716D01*
X114623795Y-103815284D01*
X115224943Y-103566894D01*
X115685278Y-103107363D01*
X115934716Y-102506648D01*
X115935284Y-101856205D01*
X115686894Y-101255057D01*
X115227363Y-100794722D01*
X114626648Y-100545284D01*
X113976205Y-100544716D01*
X113375057Y-100793106D01*
X112914722Y-101252637D01*
X112665284Y-101853352D01*
X112664716Y-102503795D01*
X112520000Y-102503795D01*
X112520000Y-100644802D01*
X114837401Y-98327401D01*
X115002148Y-98080840D01*
X115041868Y-97881154D01*
X115060000Y-97790000D01*
X115060000Y-94874583D01*
X115251974Y-94746310D01*
X115535946Y-94321315D01*
X115635664Y-93820000D01*
X115535946Y-93318685D01*
X115251974Y-92893690D01*
X115141689Y-92820000D01*
X115251974Y-92746310D01*
X115535946Y-92321315D01*
X115635664Y-91820000D01*
X115535946Y-91318685D01*
X115251974Y-90893690D01*
X115141689Y-90820000D01*
X115251974Y-90746310D01*
X115535946Y-90321315D01*
X115635664Y-89820000D01*
X115535946Y-89318685D01*
X115251974Y-88893690D01*
X115134314Y-88815072D01*
X115429478Y-88483633D01*
X115567910Y-88149400D01*
X115444224Y-87947000D01*
X114427000Y-87947000D01*
X114427000Y-87967000D01*
X114173000Y-87967000D01*
X114173000Y-87947000D01*
X113155776Y-87947000D01*
X113032090Y-88149400D01*
X113170522Y-88483633D01*
X113465686Y-88815072D01*
X113348026Y-88893690D01*
X113236901Y-89060000D01*
X111250000Y-89060000D01*
X111250000Y-88757655D01*
X111621098Y-88387204D01*
X111824768Y-87896713D01*
X111825231Y-87365617D01*
X111622418Y-86874771D01*
X111328161Y-86580000D01*
X113236901Y-86580000D01*
X113348026Y-86746310D01*
X113465686Y-86824928D01*
X113170522Y-87156367D01*
X113032090Y-87490600D01*
X113155776Y-87693000D01*
X114173000Y-87693000D01*
X114173000Y-87673000D01*
X114427000Y-87673000D01*
X114427000Y-87693000D01*
X115444224Y-87693000D01*
X115567910Y-87490600D01*
X115429478Y-87156367D01*
X115134314Y-86824928D01*
X115251974Y-86746310D01*
X115363099Y-86580000D01*
X115985198Y-86580000D01*
X117350000Y-87944802D01*
X117350000Y-105095198D01*
X115930020Y-106515178D01*
X115921856Y-106294540D01*
X115719387Y-105805736D01*
X115452532Y-105707073D01*
X114479605Y-106680000D01*
X114493748Y-106694143D01*
X114314143Y-106873748D01*
X114300000Y-106859605D01*
X113327073Y-107832532D01*
X113425736Y-108099387D01*
X114035461Y-108325908D01*
X114122511Y-108322687D01*
X111222599Y-111222599D01*
X111057852Y-111469161D01*
X111000000Y-111760000D01*
X111000000Y-134159008D01*
X110592567Y-134431246D01*
X110475946Y-134605781D01*
X110297630Y-134378764D01*
X109734477Y-134062074D01*
X109602944Y-134030025D01*
X109347000Y-134149164D01*
X109347000Y-135763000D01*
X109367000Y-135763000D01*
X109367000Y-136017000D01*
X109347000Y-136017000D01*
X109347000Y-137630836D01*
X109602944Y-137749975D01*
X109734477Y-137717926D01*
X110297630Y-137401236D01*
X110475946Y-137174219D01*
X110592567Y-137348754D01*
X111128190Y-137706646D01*
X111760000Y-137832321D01*
X112391810Y-137706646D01*
X112927433Y-137348754D01*
X113285325Y-136813131D01*
X113411000Y-136181321D01*
X113411000Y-135598679D01*
X113285325Y-134966869D01*
X112927433Y-134431246D01*
X112520000Y-134159008D01*
X112520000Y-112074802D01*
X118647401Y-105947401D01*
X118670000Y-105913579D01*
X118670000Y-140260000D01*
X48970000Y-140260000D01*
X48970000Y-136903795D01*
X79644716Y-136903795D01*
X79893106Y-137504943D01*
X80352637Y-137965278D01*
X80953352Y-138214716D01*
X81603795Y-138215284D01*
X82204943Y-137966894D01*
X82665278Y-137507363D01*
X82914716Y-136906648D01*
X82914718Y-136903795D01*
X86144716Y-136903795D01*
X86393106Y-137504943D01*
X86852637Y-137965278D01*
X87453352Y-138214716D01*
X88103795Y-138215284D01*
X88704943Y-137966894D01*
X89165278Y-137507363D01*
X89414716Y-136906648D01*
X89415084Y-136485000D01*
X95197560Y-136485000D01*
X95197560Y-137835000D01*
X95241838Y-138070317D01*
X95380910Y-138286441D01*
X95593110Y-138431431D01*
X95845000Y-138482440D01*
X97195000Y-138482440D01*
X97430317Y-138438162D01*
X97646441Y-138299090D01*
X97729939Y-138176887D01*
X97856367Y-138289478D01*
X98190600Y-138427910D01*
X98393000Y-138304224D01*
X98393000Y-137287000D01*
X98647000Y-137287000D01*
X98647000Y-138304224D01*
X98849400Y-138427910D01*
X99183633Y-138289478D01*
X99565349Y-137949540D01*
X99787920Y-137489402D01*
X99665090Y-137287000D01*
X98647000Y-137287000D01*
X98393000Y-137287000D01*
X98373000Y-137287000D01*
X98373000Y-137033000D01*
X98393000Y-137033000D01*
X98393000Y-136015776D01*
X98647000Y-136015776D01*
X98647000Y-137033000D01*
X99665090Y-137033000D01*
X99787920Y-136830598D01*
X99565349Y-136370460D01*
X99183633Y-136030522D01*
X98849400Y-135892090D01*
X98647000Y-136015776D01*
X98393000Y-136015776D01*
X98190600Y-135892090D01*
X97856367Y-136030522D01*
X97729715Y-136143313D01*
X97659090Y-136033559D01*
X97535612Y-135949190D01*
X98104802Y-135380000D01*
X105072498Y-135380000D01*
X105029000Y-135598679D01*
X105029000Y-136181321D01*
X105154675Y-136813131D01*
X105512567Y-137348754D01*
X106048190Y-137706646D01*
X106680000Y-137832321D01*
X107311810Y-137706646D01*
X107847433Y-137348754D01*
X107964054Y-137174219D01*
X108142370Y-137401236D01*
X108705523Y-137717926D01*
X108837056Y-137749975D01*
X109093000Y-137630836D01*
X109093000Y-136017000D01*
X109073000Y-136017000D01*
X109073000Y-135763000D01*
X109093000Y-135763000D01*
X109093000Y-134149164D01*
X108837056Y-134030025D01*
X108705523Y-134062074D01*
X108142370Y-134378764D01*
X107964054Y-134605781D01*
X107847433Y-134431246D01*
X107311810Y-134073354D01*
X106680000Y-133947679D01*
X106048190Y-134073354D01*
X105982229Y-134117427D01*
X105947401Y-134082599D01*
X105700839Y-133917852D01*
X105410000Y-133860000D01*
X97790000Y-133860000D01*
X97499160Y-133917852D01*
X97252599Y-134082599D01*
X95982599Y-135352599D01*
X95817852Y-135599161D01*
X95767532Y-135852137D01*
X95609683Y-135881838D01*
X95393559Y-136020910D01*
X95248569Y-136233110D01*
X95197560Y-136485000D01*
X89415084Y-136485000D01*
X89415284Y-136256205D01*
X89346081Y-136088721D01*
X91977401Y-133457401D01*
X92142148Y-133210839D01*
X92200000Y-132920000D01*
X92200000Y-120964802D01*
X94990028Y-118174774D01*
X95514383Y-118175231D01*
X96005229Y-117972418D01*
X96381098Y-117597204D01*
X96584768Y-117106713D01*
X96585231Y-116575617D01*
X96382418Y-116084771D01*
X96007204Y-115708902D01*
X95516713Y-115505232D01*
X94985617Y-115504769D01*
X94494771Y-115707582D01*
X94118902Y-116082796D01*
X93915232Y-116573287D01*
X93914772Y-117100426D01*
X90902599Y-120112599D01*
X90737852Y-120359161D01*
X90680000Y-120650000D01*
X90680000Y-132605198D01*
X88271473Y-135013725D01*
X88106648Y-134945284D01*
X87456205Y-134944716D01*
X86855057Y-135193106D01*
X86394722Y-135652637D01*
X86145284Y-136253352D01*
X86144716Y-136903795D01*
X82914718Y-136903795D01*
X82915284Y-136256205D01*
X82666894Y-135655057D01*
X82207363Y-135194722D01*
X81606648Y-134945284D01*
X80956205Y-134944716D01*
X80355057Y-135193106D01*
X79894722Y-135652637D01*
X79645284Y-136253352D01*
X79644716Y-136903795D01*
X48970000Y-136903795D01*
X48970000Y-133232532D01*
X80307073Y-133232532D01*
X80405736Y-133499387D01*
X81015461Y-133725908D01*
X81665460Y-133701856D01*
X82154264Y-133499387D01*
X82252927Y-133232532D01*
X86807073Y-133232532D01*
X86905736Y-133499387D01*
X87515461Y-133725908D01*
X88165460Y-133701856D01*
X88654264Y-133499387D01*
X88752927Y-133232532D01*
X87780000Y-132259605D01*
X86807073Y-133232532D01*
X82252927Y-133232532D01*
X81280000Y-132259605D01*
X80307073Y-133232532D01*
X48970000Y-133232532D01*
X48970000Y-131815461D01*
X79634092Y-131815461D01*
X79658144Y-132465460D01*
X79860613Y-132954264D01*
X80127468Y-133052927D01*
X81100395Y-132080000D01*
X81459605Y-132080000D01*
X82432532Y-133052927D01*
X82699387Y-132954264D01*
X82925908Y-132344539D01*
X82906331Y-131815461D01*
X86134092Y-131815461D01*
X86158144Y-132465460D01*
X86360613Y-132954264D01*
X86627468Y-133052927D01*
X87600395Y-132080000D01*
X87959605Y-132080000D01*
X88932532Y-133052927D01*
X89199387Y-132954264D01*
X89425908Y-132344539D01*
X89401856Y-131694540D01*
X89199387Y-131205736D01*
X88932532Y-131107073D01*
X87959605Y-132080000D01*
X87600395Y-132080000D01*
X86627468Y-131107073D01*
X86360613Y-131205736D01*
X86134092Y-131815461D01*
X82906331Y-131815461D01*
X82901856Y-131694540D01*
X82699387Y-131205736D01*
X82432532Y-131107073D01*
X81459605Y-132080000D01*
X81100395Y-132080000D01*
X80127468Y-131107073D01*
X79860613Y-131205736D01*
X79634092Y-131815461D01*
X48970000Y-131815461D01*
X48970000Y-130927468D01*
X80307073Y-130927468D01*
X81280000Y-131900395D01*
X82252927Y-130927468D01*
X86807073Y-130927468D01*
X87780000Y-131900395D01*
X88752927Y-130927468D01*
X88654264Y-130660613D01*
X88044539Y-130434092D01*
X87394540Y-130458144D01*
X86905736Y-130660613D01*
X86807073Y-130927468D01*
X82252927Y-130927468D01*
X82154264Y-130660613D01*
X81544539Y-130434092D01*
X80894540Y-130458144D01*
X80405736Y-130660613D01*
X80307073Y-130927468D01*
X48970000Y-130927468D01*
X48970000Y-124745750D01*
X82285000Y-124745750D01*
X82285000Y-125486310D01*
X82381673Y-125719699D01*
X82560302Y-125898327D01*
X82793691Y-125995000D01*
X83534250Y-125995000D01*
X83693000Y-125836250D01*
X83693000Y-124587000D01*
X82443750Y-124587000D01*
X82285000Y-124745750D01*
X48970000Y-124745750D01*
X48970000Y-123433690D01*
X82285000Y-123433690D01*
X82285000Y-124174250D01*
X82443750Y-124333000D01*
X83693000Y-124333000D01*
X83693000Y-123083750D01*
X83947000Y-123083750D01*
X83947000Y-124333000D01*
X83967000Y-124333000D01*
X83967000Y-124587000D01*
X83947000Y-124587000D01*
X83947000Y-125836250D01*
X84105750Y-125995000D01*
X84846309Y-125995000D01*
X85079698Y-125898327D01*
X85258327Y-125719699D01*
X85314119Y-125585006D01*
X85489357Y-125760551D01*
X86053330Y-125994733D01*
X86663991Y-125995265D01*
X87228371Y-125762068D01*
X87660551Y-125330643D01*
X87894733Y-124766670D01*
X87895265Y-124156009D01*
X87662068Y-123591629D01*
X87230643Y-123159449D01*
X87120000Y-123113506D01*
X87120000Y-117924400D01*
X87330142Y-117783988D01*
X87619533Y-117350882D01*
X87721154Y-116840000D01*
X87619533Y-116329118D01*
X87330142Y-115896012D01*
X86897036Y-115606621D01*
X86386154Y-115505000D01*
X86333846Y-115505000D01*
X85822964Y-115606621D01*
X85389858Y-115896012D01*
X85100467Y-116329118D01*
X84998846Y-116840000D01*
X85100467Y-117350882D01*
X85389858Y-117783988D01*
X85600000Y-117924400D01*
X85600000Y-123113154D01*
X85491629Y-123157932D01*
X85314159Y-123335092D01*
X85258327Y-123200301D01*
X85079698Y-123021673D01*
X84846309Y-122925000D01*
X84105750Y-122925000D01*
X83947000Y-123083750D01*
X83693000Y-123083750D01*
X83534250Y-122925000D01*
X82793691Y-122925000D01*
X82560302Y-123021673D01*
X82381673Y-123200301D01*
X82285000Y-123433690D01*
X48970000Y-123433690D01*
X48970000Y-104425750D01*
X64505000Y-104425750D01*
X64505000Y-105166309D01*
X64601673Y-105399698D01*
X64780301Y-105578327D01*
X65013690Y-105675000D01*
X65754250Y-105675000D01*
X65913000Y-105516250D01*
X65913000Y-104267000D01*
X66167000Y-104267000D01*
X66167000Y-105516250D01*
X66325750Y-105675000D01*
X67066310Y-105675000D01*
X67299699Y-105578327D01*
X67478327Y-105399698D01*
X67575000Y-105166309D01*
X67575000Y-104425750D01*
X67416250Y-104267000D01*
X66167000Y-104267000D01*
X65913000Y-104267000D01*
X64663750Y-104267000D01*
X64505000Y-104425750D01*
X48970000Y-104425750D01*
X48970000Y-102752532D01*
X49827073Y-102752532D01*
X49925736Y-103019387D01*
X50535461Y-103245908D01*
X51185460Y-103221856D01*
X51674264Y-103019387D01*
X51772927Y-102752532D01*
X56327073Y-102752532D01*
X56425736Y-103019387D01*
X57035461Y-103245908D01*
X57685460Y-103221856D01*
X58174264Y-103019387D01*
X58272927Y-102752532D01*
X57300000Y-101779605D01*
X56327073Y-102752532D01*
X51772927Y-102752532D01*
X50800000Y-101779605D01*
X49827073Y-102752532D01*
X48970000Y-102752532D01*
X48970000Y-101335461D01*
X49154092Y-101335461D01*
X49178144Y-101985460D01*
X49380613Y-102474264D01*
X49647468Y-102572927D01*
X50620395Y-101600000D01*
X50979605Y-101600000D01*
X51952532Y-102572927D01*
X52219387Y-102474264D01*
X52445908Y-101864539D01*
X52426331Y-101335461D01*
X55654092Y-101335461D01*
X55678144Y-101985460D01*
X55880613Y-102474264D01*
X56147468Y-102572927D01*
X57120395Y-101600000D01*
X57479605Y-101600000D01*
X58452532Y-102572927D01*
X58719387Y-102474264D01*
X58931251Y-101903991D01*
X64504735Y-101903991D01*
X64737932Y-102468371D01*
X64915092Y-102645841D01*
X64780301Y-102701673D01*
X64601673Y-102880302D01*
X64505000Y-103113691D01*
X64505000Y-103854250D01*
X64663750Y-104013000D01*
X65913000Y-104013000D01*
X65913000Y-103993000D01*
X66167000Y-103993000D01*
X66167000Y-104013000D01*
X67416250Y-104013000D01*
X67575000Y-103854250D01*
X67575000Y-103113691D01*
X67478327Y-102880302D01*
X67299699Y-102701673D01*
X67165006Y-102645881D01*
X67340551Y-102470643D01*
X67386494Y-102360000D01*
X72575600Y-102360000D01*
X72716012Y-102570142D01*
X73149118Y-102859533D01*
X73660000Y-102961154D01*
X74170882Y-102859533D01*
X74603988Y-102570142D01*
X74893379Y-102137036D01*
X74995000Y-101626154D01*
X74995000Y-101573846D01*
X74893379Y-101062964D01*
X74603988Y-100629858D01*
X74170882Y-100340467D01*
X73660000Y-100238846D01*
X73149118Y-100340467D01*
X72716012Y-100629858D01*
X72575600Y-100840000D01*
X67386846Y-100840000D01*
X67342068Y-100731629D01*
X66910643Y-100299449D01*
X66346670Y-100065267D01*
X65736009Y-100064735D01*
X65171629Y-100297932D01*
X64739449Y-100729357D01*
X64505267Y-101293330D01*
X64504735Y-101903991D01*
X58931251Y-101903991D01*
X58945908Y-101864539D01*
X58921856Y-101214540D01*
X58719387Y-100725736D01*
X58452532Y-100627073D01*
X57479605Y-101600000D01*
X57120395Y-101600000D01*
X56147468Y-100627073D01*
X55880613Y-100725736D01*
X55654092Y-101335461D01*
X52426331Y-101335461D01*
X52421856Y-101214540D01*
X52219387Y-100725736D01*
X51952532Y-100627073D01*
X50979605Y-101600000D01*
X50620395Y-101600000D01*
X49647468Y-100627073D01*
X49380613Y-100725736D01*
X49154092Y-101335461D01*
X48970000Y-101335461D01*
X48970000Y-100447468D01*
X49827073Y-100447468D01*
X50800000Y-101420395D01*
X51772927Y-100447468D01*
X56327073Y-100447468D01*
X57300000Y-101420395D01*
X58272927Y-100447468D01*
X58174264Y-100180613D01*
X57564539Y-99954092D01*
X56914540Y-99978144D01*
X56425736Y-100180613D01*
X56327073Y-100447468D01*
X51772927Y-100447468D01*
X51674264Y-100180613D01*
X51064539Y-99954092D01*
X50414540Y-99978144D01*
X49925736Y-100180613D01*
X49827073Y-100447468D01*
X48970000Y-100447468D01*
X48970000Y-81343089D01*
X52186517Y-81343089D01*
X52315725Y-81635859D01*
X53015883Y-81904071D01*
X53765384Y-81883928D01*
X54364275Y-81635859D01*
X54493483Y-81343089D01*
X53340000Y-80189605D01*
X52186517Y-81343089D01*
X48970000Y-81343089D01*
X48970000Y-79685883D01*
X51445929Y-79685883D01*
X51466072Y-80435384D01*
X51714141Y-81034275D01*
X52006911Y-81163483D01*
X53160395Y-80010000D01*
X53519605Y-80010000D01*
X54673089Y-81163483D01*
X54965859Y-81034275D01*
X55234071Y-80334117D01*
X55213928Y-79584616D01*
X54965859Y-78985725D01*
X54673089Y-78856517D01*
X53519605Y-80010000D01*
X53160395Y-80010000D01*
X52006911Y-78856517D01*
X51714141Y-78985725D01*
X51445929Y-79685883D01*
X48970000Y-79685883D01*
X48970000Y-78676911D01*
X52186517Y-78676911D01*
X53340000Y-79830395D01*
X54493483Y-78676911D01*
X54364275Y-78384141D01*
X53664117Y-78115929D01*
X52914616Y-78136072D01*
X52315725Y-78384141D01*
X52186517Y-78676911D01*
X48970000Y-78676911D01*
X48970000Y-72272532D01*
X95547073Y-72272532D01*
X95645736Y-72539387D01*
X96255461Y-72765908D01*
X96905460Y-72741856D01*
X97394264Y-72539387D01*
X97492927Y-72272532D01*
X102047073Y-72272532D01*
X102145736Y-72539387D01*
X102755461Y-72765908D01*
X103405460Y-72741856D01*
X103894264Y-72539387D01*
X103992927Y-72272532D01*
X103020000Y-71299605D01*
X102047073Y-72272532D01*
X97492927Y-72272532D01*
X96520000Y-71299605D01*
X95547073Y-72272532D01*
X48970000Y-72272532D01*
X48970000Y-70863795D01*
X77104716Y-70863795D01*
X77353106Y-71464943D01*
X77812637Y-71925278D01*
X78413352Y-72174716D01*
X79063795Y-72175284D01*
X79664943Y-71926894D01*
X80125278Y-71467363D01*
X80374716Y-70866648D01*
X80375284Y-70216205D01*
X80126894Y-69615057D01*
X79667363Y-69154722D01*
X79066648Y-68905284D01*
X78416205Y-68904716D01*
X77815057Y-69153106D01*
X77354722Y-69612637D01*
X77105284Y-70213352D01*
X77104716Y-70863795D01*
X48970000Y-70863795D01*
X48970000Y-67192532D01*
X77767073Y-67192532D01*
X77865736Y-67459387D01*
X78475461Y-67685908D01*
X79125460Y-67661856D01*
X79614264Y-67459387D01*
X79712927Y-67192532D01*
X78740000Y-66219605D01*
X77767073Y-67192532D01*
X48970000Y-67192532D01*
X48970000Y-65775461D01*
X77094092Y-65775461D01*
X77118144Y-66425460D01*
X77320613Y-66914264D01*
X77587468Y-67012927D01*
X78560395Y-66040000D01*
X78919605Y-66040000D01*
X79892532Y-67012927D01*
X80159387Y-66914264D01*
X80385908Y-66304539D01*
X80361856Y-65654540D01*
X80159387Y-65165736D01*
X79892532Y-65067073D01*
X78919605Y-66040000D01*
X78560395Y-66040000D01*
X77587468Y-65067073D01*
X77320613Y-65165736D01*
X77094092Y-65775461D01*
X48970000Y-65775461D01*
X48970000Y-64887468D01*
X77767073Y-64887468D01*
X78740000Y-65860395D01*
X79712927Y-64887468D01*
X79614264Y-64620613D01*
X79004539Y-64394092D01*
X78354540Y-64418144D01*
X77865736Y-64620613D01*
X77767073Y-64887468D01*
X48970000Y-64887468D01*
X48970000Y-62940000D01*
X84586421Y-62940000D01*
X84552599Y-62962599D01*
G36*
X113348026Y-90746310D02*
X113458311Y-90820000D01*
X113348026Y-90893690D01*
X113236901Y-91060000D01*
X111380000Y-91060000D01*
X111089161Y-91117852D01*
X110842599Y-91282599D01*
X107262599Y-94862599D01*
X107097852Y-95109161D01*
X107040000Y-95400000D01*
X107040000Y-100724953D01*
X106875057Y-100793106D01*
X106414722Y-101252637D01*
X106165284Y-101853352D01*
X106164716Y-102503795D01*
X106413106Y-103104943D01*
X106872637Y-103565278D01*
X107473352Y-103814716D01*
X108123795Y-103815284D01*
X108291279Y-103746081D01*
X109730000Y-105184802D01*
X109730000Y-107635198D01*
X108905198Y-108460000D01*
X99374802Y-108460000D01*
X98747334Y-107832532D01*
X106827073Y-107832532D01*
X106925736Y-108099387D01*
X107535461Y-108325908D01*
X108185460Y-108301856D01*
X108674264Y-108099387D01*
X108772927Y-107832532D01*
X107800000Y-106859605D01*
X106827073Y-107832532D01*
X98747334Y-107832532D01*
X97330263Y-106415461D01*
X106154092Y-106415461D01*
X106178144Y-107065460D01*
X106380613Y-107554264D01*
X106647468Y-107652927D01*
X107620395Y-106680000D01*
X107979605Y-106680000D01*
X108952532Y-107652927D01*
X109219387Y-107554264D01*
X109445908Y-106944539D01*
X109421856Y-106294540D01*
X109219387Y-105805736D01*
X108952532Y-105707073D01*
X107979605Y-106680000D01*
X107620395Y-106680000D01*
X106647468Y-105707073D01*
X106380613Y-105805736D01*
X106154092Y-106415461D01*
X97330263Y-106415461D01*
X97057401Y-106142599D01*
X96810839Y-105977852D01*
X96520000Y-105920000D01*
X87572995Y-105920000D01*
X87402811Y-105665302D01*
X87020725Y-105410000D01*
X87402811Y-105154698D01*
X87713880Y-104689151D01*
X87766273Y-104425750D01*
X97525000Y-104425750D01*
X97525000Y-105166309D01*
X97621673Y-105399698D01*
X97800301Y-105578327D01*
X98033690Y-105675000D01*
X98774250Y-105675000D01*
X98933000Y-105516250D01*
X98933000Y-104267000D01*
X99187000Y-104267000D01*
X99187000Y-105516250D01*
X99345750Y-105675000D01*
X100086310Y-105675000D01*
X100319699Y-105578327D01*
X100370557Y-105527468D01*
X106827073Y-105527468D01*
X107800000Y-106500395D01*
X108772927Y-105527468D01*
X108674264Y-105260613D01*
X108064539Y-105034092D01*
X107414540Y-105058144D01*
X106925736Y-105260613D01*
X106827073Y-105527468D01*
X100370557Y-105527468D01*
X100498327Y-105399698D01*
X100595000Y-105166309D01*
X100595000Y-104425750D01*
X100436250Y-104267000D01*
X99187000Y-104267000D01*
X98933000Y-104267000D01*
X97683750Y-104267000D01*
X97525000Y-104425750D01*
X87766273Y-104425750D01*
X87823113Y-104140000D01*
X87758688Y-103816114D01*
X90105113Y-101469689D01*
X90104769Y-101864383D01*
X90307582Y-102355229D01*
X90682796Y-102731098D01*
X91173287Y-102934768D01*
X91704383Y-102935231D01*
X92195229Y-102732418D01*
X92568297Y-102360000D01*
X97713154Y-102360000D01*
X97757932Y-102468371D01*
X97935092Y-102645841D01*
X97800301Y-102701673D01*
X97621673Y-102880302D01*
X97525000Y-103113691D01*
X97525000Y-103854250D01*
X97683750Y-104013000D01*
X98933000Y-104013000D01*
X98933000Y-103993000D01*
X99187000Y-103993000D01*
X99187000Y-104013000D01*
X100436250Y-104013000D01*
X100595000Y-103854250D01*
X100595000Y-103113691D01*
X100498327Y-102880302D01*
X100319699Y-102701673D01*
X100185006Y-102645881D01*
X100360551Y-102470643D01*
X100594733Y-101906670D01*
X100595265Y-101296009D01*
X100362068Y-100731629D01*
X99930643Y-100299449D01*
X99366670Y-100065267D01*
X98756009Y-100064735D01*
X98191629Y-100297932D01*
X97759449Y-100729357D01*
X97713506Y-100840000D01*
X93274802Y-100840000D01*
X94294802Y-99820000D01*
X101600000Y-99820000D01*
X101890839Y-99762148D01*
X102137401Y-99597401D01*
X111154802Y-90580000D01*
X113236901Y-90580000D01*
X113348026Y-90746310D01*
X113348026Y-90746310D01*
G37*
X113348026Y-90746310D02*
X113458311Y-90820000D01*
X113348026Y-90893690D01*
X113236901Y-91060000D01*
X111380000Y-91060000D01*
X111089161Y-91117852D01*
X110842599Y-91282599D01*
X107262599Y-94862599D01*
X107097852Y-95109161D01*
X107040000Y-95400000D01*
X107040000Y-100724953D01*
X106875057Y-100793106D01*
X106414722Y-101252637D01*
X106165284Y-101853352D01*
X106164716Y-102503795D01*
X106413106Y-103104943D01*
X106872637Y-103565278D01*
X107473352Y-103814716D01*
X108123795Y-103815284D01*
X108291279Y-103746081D01*
X109730000Y-105184802D01*
X109730000Y-107635198D01*
X108905198Y-108460000D01*
X99374802Y-108460000D01*
X98747334Y-107832532D01*
X106827073Y-107832532D01*
X106925736Y-108099387D01*
X107535461Y-108325908D01*
X108185460Y-108301856D01*
X108674264Y-108099387D01*
X108772927Y-107832532D01*
X107800000Y-106859605D01*
X106827073Y-107832532D01*
X98747334Y-107832532D01*
X97330263Y-106415461D01*
X106154092Y-106415461D01*
X106178144Y-107065460D01*
X106380613Y-107554264D01*
X106647468Y-107652927D01*
X107620395Y-106680000D01*
X107979605Y-106680000D01*
X108952532Y-107652927D01*
X109219387Y-107554264D01*
X109445908Y-106944539D01*
X109421856Y-106294540D01*
X109219387Y-105805736D01*
X108952532Y-105707073D01*
X107979605Y-106680000D01*
X107620395Y-106680000D01*
X106647468Y-105707073D01*
X106380613Y-105805736D01*
X106154092Y-106415461D01*
X97330263Y-106415461D01*
X97057401Y-106142599D01*
X96810839Y-105977852D01*
X96520000Y-105920000D01*
X87572995Y-105920000D01*
X87402811Y-105665302D01*
X87020725Y-105410000D01*
X87402811Y-105154698D01*
X87713880Y-104689151D01*
X87766273Y-104425750D01*
X97525000Y-104425750D01*
X97525000Y-105166309D01*
X97621673Y-105399698D01*
X97800301Y-105578327D01*
X98033690Y-105675000D01*
X98774250Y-105675000D01*
X98933000Y-105516250D01*
X98933000Y-104267000D01*
X99187000Y-104267000D01*
X99187000Y-105516250D01*
X99345750Y-105675000D01*
X100086310Y-105675000D01*
X100319699Y-105578327D01*
X100370557Y-105527468D01*
X106827073Y-105527468D01*
X107800000Y-106500395D01*
X108772927Y-105527468D01*
X108674264Y-105260613D01*
X108064539Y-105034092D01*
X107414540Y-105058144D01*
X106925736Y-105260613D01*
X106827073Y-105527468D01*
X100370557Y-105527468D01*
X100498327Y-105399698D01*
X100595000Y-105166309D01*
X100595000Y-104425750D01*
X100436250Y-104267000D01*
X99187000Y-104267000D01*
X98933000Y-104267000D01*
X97683750Y-104267000D01*
X97525000Y-104425750D01*
X87766273Y-104425750D01*
X87823113Y-104140000D01*
X87758688Y-103816114D01*
X90105113Y-101469689D01*
X90104769Y-101864383D01*
X90307582Y-102355229D01*
X90682796Y-102731098D01*
X91173287Y-102934768D01*
X91704383Y-102935231D01*
X92195229Y-102732418D01*
X92568297Y-102360000D01*
X97713154Y-102360000D01*
X97757932Y-102468371D01*
X97935092Y-102645841D01*
X97800301Y-102701673D01*
X97621673Y-102880302D01*
X97525000Y-103113691D01*
X97525000Y-103854250D01*
X97683750Y-104013000D01*
X98933000Y-104013000D01*
X98933000Y-103993000D01*
X99187000Y-103993000D01*
X99187000Y-104013000D01*
X100436250Y-104013000D01*
X100595000Y-103854250D01*
X100595000Y-103113691D01*
X100498327Y-102880302D01*
X100319699Y-102701673D01*
X100185006Y-102645881D01*
X100360551Y-102470643D01*
X100594733Y-101906670D01*
X100595265Y-101296009D01*
X100362068Y-100731629D01*
X99930643Y-100299449D01*
X99366670Y-100065267D01*
X98756009Y-100064735D01*
X98191629Y-100297932D01*
X97759449Y-100729357D01*
X97713506Y-100840000D01*
X93274802Y-100840000D01*
X94294802Y-99820000D01*
X101600000Y-99820000D01*
X101890839Y-99762148D01*
X102137401Y-99597401D01*
X111154802Y-90580000D01*
X113236901Y-90580000D01*
X113348026Y-90746310D01*
M02*
