G04 #@! TF.FileFunction,Copper,L2,Bot,Signal*
%FSLAX46Y46*%
G04 Gerber Fmt 4.6, Leading zero omitted, Abs format (unit mm)*
G04 Created by KiCad (PCBNEW 4.0.7-e2-6376~58~ubuntu16.04.1) date Wed Oct 11 22:45:29 2017*
%MOMM*%
%LPD*%
G01*
G04 APERTURE LIST*
%ADD10C,0.100000*%
%ADD11C,2.499360*%
%ADD12R,1.800000X1.800000*%
%ADD13C,1.800000*%
%ADD14O,1.800000X1.800000*%
%ADD15C,2.000000*%
%ADD16O,2.000000X2.500000*%
%ADD17R,1.600000X1.600000*%
%ADD18O,1.600000X1.600000*%
%ADD19C,0.250000*%
%ADD20C,0.254000*%
G04 APERTURE END LIST*
D10*
D11*
X53340000Y-80010000D03*
X63500000Y-80010000D03*
D12*
X66040000Y-104140000D03*
D13*
X66040000Y-101600000D03*
D12*
X80820000Y-124460000D03*
D13*
X83360000Y-124460000D03*
D12*
X99060000Y-104140000D03*
D13*
X99060000Y-101600000D03*
D12*
X83820000Y-77470000D03*
D13*
X81280000Y-77470000D03*
X73660000Y-106680000D03*
D14*
X73660000Y-101600000D03*
D13*
X81280000Y-116840000D03*
D14*
X86360000Y-116840000D03*
D13*
X101600000Y-81280000D03*
D14*
X96520000Y-81280000D03*
D13*
X91440000Y-101600000D03*
D14*
X91440000Y-96520000D03*
D13*
X80010000Y-83820000D03*
D14*
X85090000Y-83820000D03*
D13*
X85090000Y-87630000D03*
D14*
X80010000Y-87630000D03*
D15*
X50800000Y-106100000D03*
X50800000Y-101600000D03*
X57300000Y-106100000D03*
X57300000Y-101600000D03*
X78740000Y-136580000D03*
X78740000Y-132080000D03*
X85240000Y-136580000D03*
X85240000Y-132080000D03*
X114300000Y-102180000D03*
X114300000Y-106680000D03*
X107800000Y-102180000D03*
X107800000Y-106680000D03*
X78740000Y-70540000D03*
X78740000Y-66040000D03*
X85240000Y-70540000D03*
X85240000Y-66040000D03*
X96520000Y-75620000D03*
X96520000Y-71120000D03*
X103020000Y-75620000D03*
X103020000Y-71120000D03*
D16*
X109220000Y-135890000D03*
X111760000Y-135890000D03*
X106680000Y-135890000D03*
D12*
X78740000Y-91440000D03*
D14*
X86360000Y-111760000D03*
X78740000Y-93980000D03*
X86360000Y-109220000D03*
X78740000Y-96520000D03*
X86360000Y-106680000D03*
X78740000Y-99060000D03*
X86360000Y-104140000D03*
X78740000Y-101600000D03*
X86360000Y-101600000D03*
X78740000Y-104140000D03*
X86360000Y-99060000D03*
X78740000Y-106680000D03*
X86360000Y-96520000D03*
X78740000Y-109220000D03*
X86360000Y-93980000D03*
X78740000Y-111760000D03*
X86360000Y-91440000D03*
D17*
X96520000Y-137160000D03*
D18*
X98520000Y-137160000D03*
D17*
X114300000Y-83820000D03*
D18*
X114300000Y-85820000D03*
X114300000Y-87820000D03*
X114300000Y-89820000D03*
X114300000Y-91820000D03*
X114300000Y-93820000D03*
D13*
X110490000Y-74930000D03*
X110490000Y-87630000D03*
X92710000Y-109220000D03*
X92710000Y-115570000D03*
D19*
X96520000Y-137160000D02*
X96520000Y-135890000D01*
X105410000Y-134620000D02*
X106680000Y-135890000D01*
X97790000Y-134620000D02*
X105410000Y-134620000D01*
X96520000Y-135890000D02*
X97790000Y-134620000D01*
X78740000Y-132080000D02*
X78740000Y-126540000D01*
X78740000Y-126540000D02*
X80820000Y-124460000D01*
X98520000Y-137160000D02*
X98520000Y-138335000D01*
X85090000Y-139065000D02*
X78740000Y-132715000D01*
X97790000Y-139065000D02*
X85090000Y-139065000D01*
X98520000Y-138335000D02*
X97790000Y-139065000D01*
X78740000Y-132715000D02*
X78740000Y-132080000D01*
X83820000Y-77470000D02*
X83820000Y-76200000D01*
X81280000Y-68580000D02*
X78740000Y-66040000D01*
X81280000Y-73660000D02*
X81280000Y-68580000D01*
X83820000Y-76200000D02*
X81280000Y-73660000D01*
X114300000Y-87820000D02*
X115760000Y-87820000D01*
X115760000Y-87820000D02*
X116840000Y-88900000D01*
X116840000Y-88900000D02*
X116840000Y-104140000D01*
X116840000Y-104140000D02*
X114300000Y-106680000D01*
X78740000Y-66040000D02*
X67310000Y-66040000D01*
X67310000Y-66040000D02*
X53340000Y-80010000D01*
X96520000Y-71120000D02*
X95250000Y-71120000D01*
X90320000Y-71120000D02*
X85240000Y-66040000D01*
X95250000Y-71120000D02*
X90320000Y-71120000D01*
X99060000Y-104140000D02*
X101600000Y-104140000D01*
X104140000Y-106680000D02*
X107800000Y-106680000D01*
X101600000Y-104140000D02*
X104140000Y-106680000D01*
X69850000Y-104140000D02*
X76200000Y-104140000D01*
X66040000Y-104140000D02*
X69850000Y-104140000D01*
X76200000Y-104140000D02*
X78740000Y-101600000D01*
X57300000Y-101600000D02*
X59690000Y-101600000D01*
X59690000Y-101600000D02*
X62230000Y-104140000D01*
X62230000Y-104140000D02*
X66040000Y-104140000D01*
X50800000Y-101600000D02*
X50800000Y-82550000D01*
X50800000Y-82550000D02*
X53340000Y-80010000D01*
X98520000Y-137160000D02*
X98520000Y-137700000D01*
X98520000Y-137160000D02*
X99060000Y-137160000D01*
X99060000Y-137160000D02*
X100330000Y-138430000D01*
X100330000Y-138430000D02*
X107950000Y-138430000D01*
X107950000Y-138430000D02*
X109220000Y-137160000D01*
X109220000Y-137160000D02*
X109220000Y-135890000D01*
X63500000Y-80010000D02*
X72390000Y-80010000D01*
X72390000Y-80010000D02*
X80010000Y-87630000D01*
X66040000Y-101600000D02*
X73660000Y-101600000D01*
X83360000Y-124460000D02*
X83360000Y-124285000D01*
X83360000Y-124285000D02*
X86360000Y-121285000D01*
X86360000Y-121285000D02*
X86360000Y-116840000D01*
X91440000Y-101600000D02*
X99060000Y-101600000D01*
X80010000Y-83820000D02*
X80010000Y-78740000D01*
X80010000Y-78740000D02*
X81280000Y-77470000D01*
X78740000Y-99060000D02*
X80010000Y-99060000D01*
X104140000Y-73660000D02*
X114300000Y-83820000D01*
X95250000Y-73660000D02*
X104140000Y-73660000D01*
X90170000Y-78740000D02*
X95250000Y-73660000D01*
X85090000Y-78740000D02*
X90170000Y-78740000D01*
X81280000Y-82550000D02*
X85090000Y-78740000D01*
X81280000Y-97790000D02*
X81280000Y-82550000D01*
X80010000Y-99060000D02*
X81280000Y-97790000D01*
X86360000Y-101600000D02*
X87630000Y-101600000D01*
X106045000Y-85725000D02*
X105410000Y-85090000D01*
X92710000Y-99060000D02*
X106045000Y-85725000D01*
X90170000Y-99060000D02*
X92710000Y-99060000D01*
X87630000Y-101600000D02*
X90170000Y-99060000D01*
X111760000Y-135890000D02*
X111760000Y-111760000D01*
X116300000Y-85820000D02*
X114300000Y-85820000D01*
X118110000Y-87630000D02*
X116300000Y-85820000D01*
X118110000Y-105410000D02*
X118110000Y-87630000D01*
X111760000Y-111760000D02*
X118110000Y-105410000D01*
X114300000Y-85820000D02*
X106140000Y-85820000D01*
X106140000Y-85820000D02*
X105410000Y-85090000D01*
X105410000Y-85090000D02*
X101600000Y-81280000D01*
X85240000Y-70540000D02*
X85240000Y-70000000D01*
X85240000Y-70000000D02*
X82550000Y-67310000D01*
X82550000Y-67310000D02*
X82550000Y-66040000D01*
X82550000Y-66040000D02*
X85090000Y-63500000D01*
X85090000Y-63500000D02*
X102870000Y-63500000D01*
X102870000Y-63500000D02*
X110490000Y-71120000D01*
X110490000Y-71120000D02*
X110490000Y-74930000D01*
X110490000Y-87630000D02*
X110490000Y-90170000D01*
X86360000Y-104140000D02*
X90170000Y-100330000D01*
X110840000Y-89820000D02*
X114300000Y-89820000D01*
X101600000Y-99060000D02*
X110490000Y-90170000D01*
X110490000Y-90170000D02*
X110840000Y-89820000D01*
X93980000Y-99060000D02*
X101600000Y-99060000D01*
X92710000Y-100330000D02*
X93980000Y-99060000D01*
X90170000Y-100330000D02*
X92710000Y-100330000D01*
X86360000Y-106680000D02*
X96520000Y-106680000D01*
X110490000Y-104870000D02*
X107800000Y-102180000D01*
X110490000Y-107950000D02*
X110490000Y-104870000D01*
X109220000Y-109220000D02*
X110490000Y-107950000D01*
X99060000Y-109220000D02*
X109220000Y-109220000D01*
X96520000Y-106680000D02*
X99060000Y-109220000D01*
X114300000Y-91820000D02*
X111380000Y-91820000D01*
X107800000Y-95400000D02*
X107800000Y-102180000D01*
X111380000Y-91820000D02*
X107800000Y-95400000D01*
X107800000Y-102180000D02*
X107800000Y-102720000D01*
X114300000Y-93820000D02*
X114300000Y-97790000D01*
X109220000Y-111760000D02*
X86360000Y-111760000D01*
X111760000Y-109220000D02*
X109220000Y-111760000D01*
X111760000Y-100330000D02*
X111760000Y-109220000D01*
X114300000Y-97790000D02*
X111760000Y-100330000D01*
X86360000Y-111760000D02*
X86360000Y-113030000D01*
X65350000Y-120650000D02*
X50800000Y-106100000D01*
X81280000Y-120650000D02*
X65350000Y-120650000D01*
X83820000Y-118110000D02*
X81280000Y-120650000D01*
X83820000Y-115570000D02*
X83820000Y-118110000D01*
X86360000Y-113030000D02*
X83820000Y-115570000D01*
X73660000Y-106680000D02*
X78740000Y-106680000D01*
X81280000Y-116840000D02*
X81280000Y-111760000D01*
X81280000Y-111760000D02*
X78740000Y-109220000D01*
X96520000Y-81280000D02*
X83820000Y-81280000D01*
X82550000Y-100330000D02*
X78740000Y-104140000D01*
X82550000Y-82550000D02*
X82550000Y-100330000D01*
X83820000Y-81280000D02*
X82550000Y-82550000D01*
X96520000Y-81280000D02*
X96520000Y-75620000D01*
X86360000Y-93980000D02*
X88900000Y-93980000D01*
X88900000Y-93980000D02*
X91440000Y-96520000D01*
X85090000Y-83820000D02*
X87630000Y-86360000D01*
X87630000Y-90170000D02*
X86360000Y-91440000D01*
X87630000Y-86360000D02*
X87630000Y-90170000D01*
X85090000Y-87630000D02*
X85090000Y-88900000D01*
X83820000Y-96520000D02*
X86360000Y-99060000D01*
X83820000Y-90170000D02*
X83820000Y-96520000D01*
X85090000Y-88900000D02*
X83820000Y-90170000D01*
X85240000Y-136580000D02*
X86305000Y-136580000D01*
X92710000Y-109220000D02*
X86360000Y-109220000D01*
X92710000Y-130175000D02*
X92710000Y-115570000D01*
X86305000Y-136580000D02*
X92710000Y-130175000D01*
D20*
G36*
X84552599Y-62962599D02*
X82012599Y-65502599D01*
X81847852Y-65749161D01*
X81790000Y-66040000D01*
X81790000Y-67310000D01*
X81847852Y-67600839D01*
X82012599Y-67847401D01*
X83832163Y-69666965D01*
X83605284Y-70213352D01*
X83604716Y-70863795D01*
X83853106Y-71464943D01*
X84312637Y-71925278D01*
X84913352Y-72174716D01*
X85563795Y-72175284D01*
X86164943Y-71926894D01*
X86625278Y-71467363D01*
X86874716Y-70866648D01*
X86874725Y-70855461D01*
X94874092Y-70855461D01*
X94898144Y-71505460D01*
X95100613Y-71994264D01*
X95367468Y-72092927D01*
X96340395Y-71120000D01*
X96699605Y-71120000D01*
X97672532Y-72092927D01*
X97939387Y-71994264D01*
X98165908Y-71384539D01*
X98146331Y-70855461D01*
X101374092Y-70855461D01*
X101398144Y-71505460D01*
X101600613Y-71994264D01*
X101867468Y-72092927D01*
X102840395Y-71120000D01*
X103199605Y-71120000D01*
X104172532Y-72092927D01*
X104439387Y-71994264D01*
X104665908Y-71384539D01*
X104641856Y-70734540D01*
X104439387Y-70245736D01*
X104172532Y-70147073D01*
X103199605Y-71120000D01*
X102840395Y-71120000D01*
X101867468Y-70147073D01*
X101600613Y-70245736D01*
X101374092Y-70855461D01*
X98146331Y-70855461D01*
X98141856Y-70734540D01*
X97939387Y-70245736D01*
X97672532Y-70147073D01*
X96699605Y-71120000D01*
X96340395Y-71120000D01*
X95367468Y-70147073D01*
X95100613Y-70245736D01*
X94874092Y-70855461D01*
X86874725Y-70855461D01*
X86875284Y-70216205D01*
X86772508Y-69967468D01*
X95547073Y-69967468D01*
X96520000Y-70940395D01*
X97492927Y-69967468D01*
X102047073Y-69967468D01*
X103020000Y-70940395D01*
X103992927Y-69967468D01*
X103894264Y-69700613D01*
X103284539Y-69474092D01*
X102634540Y-69498144D01*
X102145736Y-69700613D01*
X102047073Y-69967468D01*
X97492927Y-69967468D01*
X97394264Y-69700613D01*
X96784539Y-69474092D01*
X96134540Y-69498144D01*
X95645736Y-69700613D01*
X95547073Y-69967468D01*
X86772508Y-69967468D01*
X86626894Y-69615057D01*
X86167363Y-69154722D01*
X85566648Y-68905284D01*
X85219783Y-68904981D01*
X83507334Y-67192532D01*
X84267073Y-67192532D01*
X84365736Y-67459387D01*
X84975461Y-67685908D01*
X85625460Y-67661856D01*
X86114264Y-67459387D01*
X86212927Y-67192532D01*
X85240000Y-66219605D01*
X84267073Y-67192532D01*
X83507334Y-67192532D01*
X83310000Y-66995198D01*
X83310000Y-66354802D01*
X83604627Y-66060175D01*
X83618144Y-66425460D01*
X83820613Y-66914264D01*
X84087468Y-67012927D01*
X85060395Y-66040000D01*
X85419605Y-66040000D01*
X86392532Y-67012927D01*
X86659387Y-66914264D01*
X86885908Y-66304539D01*
X86861856Y-65654540D01*
X86659387Y-65165736D01*
X86392532Y-65067073D01*
X85419605Y-66040000D01*
X85060395Y-66040000D01*
X85046253Y-66025858D01*
X85225858Y-65846253D01*
X85240000Y-65860395D01*
X86212927Y-64887468D01*
X86114264Y-64620613D01*
X85504539Y-64394092D01*
X85261725Y-64403077D01*
X85404802Y-64260000D01*
X102555198Y-64260000D01*
X109730000Y-71434802D01*
X109730000Y-73583154D01*
X109621629Y-73627932D01*
X109189449Y-74059357D01*
X108955267Y-74623330D01*
X108954735Y-75233991D01*
X109187932Y-75798371D01*
X109619357Y-76230551D01*
X110183330Y-76464733D01*
X110793991Y-76465265D01*
X111358371Y-76232068D01*
X111790551Y-75800643D01*
X112024733Y-75236670D01*
X112025265Y-74626009D01*
X111792068Y-74061629D01*
X111360643Y-73629449D01*
X111250000Y-73583506D01*
X111250000Y-71120000D01*
X111199037Y-70863795D01*
X111192148Y-70829160D01*
X111027401Y-70582599D01*
X103407401Y-62962599D01*
X103373579Y-62940000D01*
X118670000Y-62940000D01*
X118670000Y-87126421D01*
X118647401Y-87092599D01*
X116837401Y-85282599D01*
X116590839Y-85117852D01*
X116300000Y-85060000D01*
X115567901Y-85060000D01*
X115696431Y-84871890D01*
X115747440Y-84620000D01*
X115747440Y-83020000D01*
X115703162Y-82784683D01*
X115564090Y-82568559D01*
X115351890Y-82423569D01*
X115100000Y-82372560D01*
X113927362Y-82372560D01*
X104677401Y-73122599D01*
X104430839Y-72957852D01*
X104140000Y-72900000D01*
X95250000Y-72900000D01*
X94959161Y-72957852D01*
X94712599Y-73122599D01*
X89855198Y-77980000D01*
X85355000Y-77980000D01*
X85355000Y-77755750D01*
X85196250Y-77597000D01*
X83947000Y-77597000D01*
X83947000Y-77617000D01*
X83693000Y-77617000D01*
X83693000Y-77597000D01*
X83673000Y-77597000D01*
X83673000Y-77343000D01*
X83693000Y-77343000D01*
X83693000Y-76093750D01*
X83947000Y-76093750D01*
X83947000Y-77343000D01*
X85196250Y-77343000D01*
X85355000Y-77184250D01*
X85355000Y-76443690D01*
X85258327Y-76210301D01*
X85079698Y-76031673D01*
X84846309Y-75935000D01*
X84105750Y-75935000D01*
X83947000Y-76093750D01*
X83693000Y-76093750D01*
X83534250Y-75935000D01*
X82793691Y-75935000D01*
X82560302Y-76031673D01*
X82381673Y-76210301D01*
X82325881Y-76344994D01*
X82150643Y-76169449D01*
X81586670Y-75935267D01*
X80976009Y-75934735D01*
X80411629Y-76167932D01*
X79979449Y-76599357D01*
X79745267Y-77163330D01*
X79744735Y-77773991D01*
X79790485Y-77884713D01*
X79472599Y-78202599D01*
X79307852Y-78449161D01*
X79250000Y-78740000D01*
X79250000Y-82692345D01*
X78878902Y-83062796D01*
X78675232Y-83553287D01*
X78674769Y-84084383D01*
X78877582Y-84575229D01*
X79252796Y-84951098D01*
X79743287Y-85154768D01*
X80274383Y-85155231D01*
X80520000Y-85053744D01*
X80520000Y-86391243D01*
X80036154Y-86295000D01*
X79983846Y-86295000D01*
X79788632Y-86333830D01*
X72927401Y-79472599D01*
X72680839Y-79307852D01*
X72390000Y-79250000D01*
X65225201Y-79250000D01*
X65098686Y-78943809D01*
X64568979Y-78413178D01*
X63876531Y-78125648D01*
X63126759Y-78124994D01*
X62433809Y-78411314D01*
X61903178Y-78941021D01*
X61615648Y-79633469D01*
X61614994Y-80383241D01*
X61901314Y-81076191D01*
X62431021Y-81606822D01*
X63123469Y-81894352D01*
X63873241Y-81895006D01*
X64566191Y-81608686D01*
X65096822Y-81078979D01*
X65225121Y-80770000D01*
X72075198Y-80770000D01*
X78696355Y-87391157D01*
X78648846Y-87630000D01*
X78750467Y-88140882D01*
X79039858Y-88573988D01*
X79472964Y-88863379D01*
X79983846Y-88965000D01*
X80036154Y-88965000D01*
X80520000Y-88868757D01*
X80520000Y-97475198D01*
X79921621Y-98073577D01*
X79855481Y-97974591D01*
X79579221Y-97790000D01*
X79855481Y-97605409D01*
X80188227Y-97107419D01*
X80305072Y-96520000D01*
X80188227Y-95932581D01*
X79855481Y-95434591D01*
X79579221Y-95250000D01*
X79855481Y-95065409D01*
X80188227Y-94567419D01*
X80305072Y-93980000D01*
X80188227Y-93392581D01*
X79884141Y-92937484D01*
X80091441Y-92804090D01*
X80236431Y-92591890D01*
X80287440Y-92340000D01*
X80287440Y-90540000D01*
X80243162Y-90304683D01*
X80104090Y-90088559D01*
X79891890Y-89943569D01*
X79640000Y-89892560D01*
X77840000Y-89892560D01*
X77604683Y-89936838D01*
X77388559Y-90075910D01*
X77243569Y-90288110D01*
X77192560Y-90540000D01*
X77192560Y-92340000D01*
X77236838Y-92575317D01*
X77375910Y-92791441D01*
X77588110Y-92936431D01*
X77595555Y-92937939D01*
X77291773Y-93392581D01*
X77174928Y-93980000D01*
X77291773Y-94567419D01*
X77624519Y-95065409D01*
X77900779Y-95250000D01*
X77624519Y-95434591D01*
X77291773Y-95932581D01*
X77174928Y-96520000D01*
X77291773Y-97107419D01*
X77624519Y-97605409D01*
X77900779Y-97790000D01*
X77624519Y-97974591D01*
X77291773Y-98472581D01*
X77174928Y-99060000D01*
X77291773Y-99647419D01*
X77624519Y-100145409D01*
X77900925Y-100330097D01*
X77832424Y-100362034D01*
X77427760Y-100803583D01*
X77248964Y-101235260D01*
X77369622Y-101473000D01*
X78613000Y-101473000D01*
X78613000Y-101453000D01*
X78867000Y-101453000D01*
X78867000Y-101473000D01*
X78887000Y-101473000D01*
X78887000Y-101727000D01*
X78867000Y-101727000D01*
X78867000Y-101747000D01*
X78613000Y-101747000D01*
X78613000Y-101727000D01*
X77369622Y-101727000D01*
X77248964Y-101964740D01*
X77427760Y-102396417D01*
X77832424Y-102837966D01*
X77900925Y-102869903D01*
X77624519Y-103054591D01*
X77291773Y-103552581D01*
X77174928Y-104140000D01*
X77291773Y-104727419D01*
X77624519Y-105225409D01*
X77900779Y-105410000D01*
X77624519Y-105594591D01*
X77407088Y-105920000D01*
X74787655Y-105920000D01*
X74417204Y-105548902D01*
X73926713Y-105345232D01*
X73395617Y-105344769D01*
X72904771Y-105547582D01*
X72528902Y-105922796D01*
X72325232Y-106413287D01*
X72324769Y-106944383D01*
X72527582Y-107435229D01*
X72902796Y-107811098D01*
X73393287Y-108014768D01*
X73924383Y-108015231D01*
X74415229Y-107812418D01*
X74788297Y-107440000D01*
X77407088Y-107440000D01*
X77624519Y-107765409D01*
X77900779Y-107950000D01*
X77624519Y-108134591D01*
X77291773Y-108632581D01*
X77174928Y-109220000D01*
X77291773Y-109807419D01*
X77624519Y-110305409D01*
X77900779Y-110490000D01*
X77624519Y-110674591D01*
X77291773Y-111172581D01*
X77174928Y-111760000D01*
X77291773Y-112347419D01*
X77624519Y-112845409D01*
X78122509Y-113178155D01*
X78709928Y-113295000D01*
X78770072Y-113295000D01*
X79357491Y-113178155D01*
X79855481Y-112845409D01*
X80188227Y-112347419D01*
X80288502Y-111843304D01*
X80520000Y-112074802D01*
X80520000Y-115712345D01*
X80148902Y-116082796D01*
X79945232Y-116573287D01*
X79944769Y-117104383D01*
X80147582Y-117595229D01*
X80522796Y-117971098D01*
X81013287Y-118174768D01*
X81544383Y-118175231D01*
X82035229Y-117972418D01*
X82411098Y-117597204D01*
X82614768Y-117106713D01*
X82615231Y-116575617D01*
X82412418Y-116084771D01*
X82040000Y-115711703D01*
X82040000Y-111760000D01*
X81982148Y-111469161D01*
X81982148Y-111469160D01*
X81817401Y-111222599D01*
X80223731Y-109628929D01*
X80305072Y-109220000D01*
X80188227Y-108632581D01*
X79855481Y-108134591D01*
X79579221Y-107950000D01*
X79855481Y-107765409D01*
X80188227Y-107267419D01*
X80305072Y-106680000D01*
X80188227Y-106092581D01*
X79855481Y-105594591D01*
X79579221Y-105410000D01*
X79855481Y-105225409D01*
X80188227Y-104727419D01*
X80305072Y-104140000D01*
X80223731Y-103731071D01*
X83087401Y-100867401D01*
X83252148Y-100620839D01*
X83310000Y-100330000D01*
X83310000Y-97084802D01*
X84876269Y-98651071D01*
X84794928Y-99060000D01*
X84911773Y-99647419D01*
X85244519Y-100145409D01*
X85520779Y-100330000D01*
X85244519Y-100514591D01*
X84911773Y-101012581D01*
X84794928Y-101600000D01*
X84911773Y-102187419D01*
X85244519Y-102685409D01*
X85520779Y-102870000D01*
X85244519Y-103054591D01*
X84911773Y-103552581D01*
X84794928Y-104140000D01*
X84911773Y-104727419D01*
X85244519Y-105225409D01*
X85520779Y-105410000D01*
X85244519Y-105594591D01*
X84911773Y-106092581D01*
X84794928Y-106680000D01*
X84911773Y-107267419D01*
X85244519Y-107765409D01*
X85520779Y-107950000D01*
X85244519Y-108134591D01*
X84911773Y-108632581D01*
X84794928Y-109220000D01*
X84911773Y-109807419D01*
X85244519Y-110305409D01*
X85520779Y-110490000D01*
X85244519Y-110674591D01*
X84911773Y-111172581D01*
X84794928Y-111760000D01*
X84911773Y-112347419D01*
X85244519Y-112845409D01*
X85379559Y-112935639D01*
X83282599Y-115032599D01*
X83117852Y-115279161D01*
X83060000Y-115570000D01*
X83060000Y-117795198D01*
X80965198Y-119890000D01*
X65664802Y-119890000D01*
X52366275Y-106591473D01*
X52434716Y-106426648D01*
X52434718Y-106423795D01*
X55664716Y-106423795D01*
X55913106Y-107024943D01*
X56372637Y-107485278D01*
X56973352Y-107734716D01*
X57623795Y-107735284D01*
X58224943Y-107486894D01*
X58685278Y-107027363D01*
X58934716Y-106426648D01*
X58935284Y-105776205D01*
X58686894Y-105175057D01*
X58227363Y-104714722D01*
X57626648Y-104465284D01*
X56976205Y-104464716D01*
X56375057Y-104713106D01*
X55914722Y-105172637D01*
X55665284Y-105773352D01*
X55664716Y-106423795D01*
X52434718Y-106423795D01*
X52435284Y-105776205D01*
X52186894Y-105175057D01*
X51727363Y-104714722D01*
X51126648Y-104465284D01*
X50476205Y-104464716D01*
X49875057Y-104713106D01*
X49414722Y-105172637D01*
X49165284Y-105773352D01*
X49164716Y-106423795D01*
X49413106Y-107024943D01*
X49872637Y-107485278D01*
X50473352Y-107734716D01*
X51123795Y-107735284D01*
X51291279Y-107666081D01*
X64812599Y-121187401D01*
X65059160Y-121352148D01*
X65350000Y-121410000D01*
X81280000Y-121410000D01*
X81570839Y-121352148D01*
X81817401Y-121187401D01*
X84357401Y-118647401D01*
X84522148Y-118400840D01*
X84531746Y-118352586D01*
X84580000Y-118110000D01*
X84580000Y-115884802D01*
X86897401Y-113567401D01*
X87062148Y-113320840D01*
X87071746Y-113272586D01*
X87107857Y-113091047D01*
X87475481Y-112845409D01*
X87692912Y-112520000D01*
X109220000Y-112520000D01*
X109510839Y-112462148D01*
X109757401Y-112297401D01*
X112297401Y-109757401D01*
X112462148Y-109510840D01*
X112471746Y-109462586D01*
X112520000Y-109220000D01*
X112520000Y-106415461D01*
X112654092Y-106415461D01*
X112678144Y-107065460D01*
X112880613Y-107554264D01*
X113147468Y-107652927D01*
X114120395Y-106680000D01*
X113147468Y-105707073D01*
X112880613Y-105805736D01*
X112654092Y-106415461D01*
X112520000Y-106415461D01*
X112520000Y-105527468D01*
X113327073Y-105527468D01*
X114300000Y-106500395D01*
X115272927Y-105527468D01*
X115174264Y-105260613D01*
X114564539Y-105034092D01*
X113914540Y-105058144D01*
X113425736Y-105260613D01*
X113327073Y-105527468D01*
X112520000Y-105527468D01*
X112520000Y-102503795D01*
X112664716Y-102503795D01*
X112913106Y-103104943D01*
X113372637Y-103565278D01*
X113973352Y-103814716D01*
X114623795Y-103815284D01*
X115224943Y-103566894D01*
X115685278Y-103107363D01*
X115934716Y-102506648D01*
X115935284Y-101856205D01*
X115686894Y-101255057D01*
X115227363Y-100794722D01*
X114626648Y-100545284D01*
X113976205Y-100544716D01*
X113375057Y-100793106D01*
X112914722Y-101252637D01*
X112665284Y-101853352D01*
X112664716Y-102503795D01*
X112520000Y-102503795D01*
X112520000Y-100644802D01*
X114837401Y-98327401D01*
X115002148Y-98080840D01*
X115023282Y-97974591D01*
X115060000Y-97790000D01*
X115060000Y-95023667D01*
X115342811Y-94834698D01*
X115653880Y-94369151D01*
X115763113Y-93820000D01*
X115653880Y-93270849D01*
X115352632Y-92820000D01*
X115653880Y-92369151D01*
X115763113Y-91820000D01*
X115653880Y-91270849D01*
X115352632Y-90820000D01*
X115653880Y-90369151D01*
X115763113Y-89820000D01*
X115653880Y-89270849D01*
X115342811Y-88805302D01*
X115320188Y-88790185D01*
X115531041Y-88557423D01*
X115691904Y-88169039D01*
X115569915Y-87947000D01*
X114427000Y-87947000D01*
X114427000Y-87967000D01*
X114173000Y-87967000D01*
X114173000Y-87947000D01*
X113030085Y-87947000D01*
X112908096Y-88169039D01*
X113068959Y-88557423D01*
X113279812Y-88790185D01*
X113257189Y-88805302D01*
X113087005Y-89060000D01*
X111250000Y-89060000D01*
X111250000Y-88976846D01*
X111358371Y-88932068D01*
X111790551Y-88500643D01*
X112024733Y-87936670D01*
X112025265Y-87326009D01*
X111792068Y-86761629D01*
X111610756Y-86580000D01*
X113087005Y-86580000D01*
X113257189Y-86834698D01*
X113279812Y-86849815D01*
X113068959Y-87082577D01*
X112908096Y-87470961D01*
X113030085Y-87693000D01*
X114173000Y-87693000D01*
X114173000Y-87673000D01*
X114427000Y-87673000D01*
X114427000Y-87693000D01*
X115569915Y-87693000D01*
X115691904Y-87470961D01*
X115531041Y-87082577D01*
X115320188Y-86849815D01*
X115342811Y-86834698D01*
X115512995Y-86580000D01*
X115985198Y-86580000D01*
X117350000Y-87944802D01*
X117350000Y-105095198D01*
X115930020Y-106515178D01*
X115921856Y-106294540D01*
X115719387Y-105805736D01*
X115452532Y-105707073D01*
X114479605Y-106680000D01*
X114493748Y-106694143D01*
X114314143Y-106873748D01*
X114300000Y-106859605D01*
X113327073Y-107832532D01*
X113425736Y-108099387D01*
X114035461Y-108325908D01*
X114122511Y-108322687D01*
X111222599Y-111222599D01*
X111057852Y-111469161D01*
X111000000Y-111760000D01*
X111000000Y-134182273D01*
X110603880Y-134446951D01*
X110479658Y-134632863D01*
X110283337Y-134385702D01*
X109722396Y-134074258D01*
X109600434Y-134049876D01*
X109347000Y-134169223D01*
X109347000Y-135763000D01*
X109367000Y-135763000D01*
X109367000Y-136017000D01*
X109347000Y-136017000D01*
X109347000Y-137610777D01*
X109600434Y-137730124D01*
X109722396Y-137705742D01*
X110283337Y-137394298D01*
X110479658Y-137147137D01*
X110603880Y-137333049D01*
X111134313Y-137687472D01*
X111760000Y-137811929D01*
X112385687Y-137687472D01*
X112916120Y-137333049D01*
X113270543Y-136802616D01*
X113395000Y-136176929D01*
X113395000Y-135603071D01*
X113270543Y-134977384D01*
X112916120Y-134446951D01*
X112520000Y-134182273D01*
X112520000Y-112074802D01*
X118647401Y-105947401D01*
X118670000Y-105913579D01*
X118670000Y-140260000D01*
X48970000Y-140260000D01*
X48970000Y-136903795D01*
X77104716Y-136903795D01*
X77353106Y-137504943D01*
X77812637Y-137965278D01*
X78413352Y-138214716D01*
X79063795Y-138215284D01*
X79664943Y-137966894D01*
X80125278Y-137507363D01*
X80374716Y-136906648D01*
X80374718Y-136903795D01*
X83604716Y-136903795D01*
X83853106Y-137504943D01*
X84312637Y-137965278D01*
X84913352Y-138214716D01*
X85563795Y-138215284D01*
X86164943Y-137966894D01*
X86625278Y-137507363D01*
X86766009Y-137168444D01*
X86842401Y-137117401D01*
X87599802Y-136360000D01*
X95072560Y-136360000D01*
X95072560Y-137960000D01*
X95116838Y-138195317D01*
X95255910Y-138411441D01*
X95468110Y-138556431D01*
X95720000Y-138607440D01*
X97320000Y-138607440D01*
X97555317Y-138563162D01*
X97771441Y-138424090D01*
X97791498Y-138394736D01*
X98170961Y-138551904D01*
X98393000Y-138429915D01*
X98393000Y-137287000D01*
X98647000Y-137287000D01*
X98647000Y-138429915D01*
X98869039Y-138551904D01*
X99257423Y-138391041D01*
X99672389Y-138015134D01*
X99911914Y-137509041D01*
X99790629Y-137287000D01*
X98647000Y-137287000D01*
X98393000Y-137287000D01*
X98373000Y-137287000D01*
X98373000Y-137033000D01*
X98393000Y-137033000D01*
X98393000Y-135890085D01*
X98647000Y-135890085D01*
X98647000Y-137033000D01*
X99790629Y-137033000D01*
X99911914Y-136810959D01*
X99672389Y-136304866D01*
X99257423Y-135928959D01*
X98869039Y-135768096D01*
X98647000Y-135890085D01*
X98393000Y-135890085D01*
X98170961Y-135768096D01*
X97794136Y-135924171D01*
X97784090Y-135908559D01*
X97660612Y-135824190D01*
X98104802Y-135380000D01*
X105089372Y-135380000D01*
X105045000Y-135603071D01*
X105045000Y-136176929D01*
X105169457Y-136802616D01*
X105523880Y-137333049D01*
X106054313Y-137687472D01*
X106680000Y-137811929D01*
X107305687Y-137687472D01*
X107836120Y-137333049D01*
X107960342Y-137147137D01*
X108156663Y-137394298D01*
X108717604Y-137705742D01*
X108839566Y-137730124D01*
X109093000Y-137610777D01*
X109093000Y-136017000D01*
X109073000Y-136017000D01*
X109073000Y-135763000D01*
X109093000Y-135763000D01*
X109093000Y-134169223D01*
X108839566Y-134049876D01*
X108717604Y-134074258D01*
X108156663Y-134385702D01*
X107960342Y-134632863D01*
X107836120Y-134446951D01*
X107305687Y-134092528D01*
X106680000Y-133968071D01*
X106054313Y-134092528D01*
X105996176Y-134131374D01*
X105947401Y-134082599D01*
X105700839Y-133917852D01*
X105410000Y-133860000D01*
X97790000Y-133860000D01*
X97499160Y-133917852D01*
X97252599Y-134082599D01*
X95982599Y-135352599D01*
X95817852Y-135599161D01*
X95795295Y-135712560D01*
X95720000Y-135712560D01*
X95484683Y-135756838D01*
X95268559Y-135895910D01*
X95123569Y-136108110D01*
X95072560Y-136360000D01*
X87599802Y-136360000D01*
X93247401Y-130712401D01*
X93412148Y-130465839D01*
X93470000Y-130175000D01*
X93470000Y-116916846D01*
X93578371Y-116872068D01*
X94010551Y-116440643D01*
X94244733Y-115876670D01*
X94245265Y-115266009D01*
X94012068Y-114701629D01*
X93580643Y-114269449D01*
X93016670Y-114035267D01*
X92406009Y-114034735D01*
X91841629Y-114267932D01*
X91409449Y-114699357D01*
X91175267Y-115263330D01*
X91174735Y-115873991D01*
X91407932Y-116438371D01*
X91839357Y-116870551D01*
X91950000Y-116916494D01*
X91950000Y-129860198D01*
X86391224Y-135418974D01*
X86167363Y-135194722D01*
X85566648Y-134945284D01*
X84916205Y-134944716D01*
X84315057Y-135193106D01*
X83854722Y-135652637D01*
X83605284Y-136253352D01*
X83604716Y-136903795D01*
X80374718Y-136903795D01*
X80375284Y-136256205D01*
X80126894Y-135655057D01*
X79667363Y-135194722D01*
X79066648Y-134945284D01*
X78416205Y-134944716D01*
X77815057Y-135193106D01*
X77354722Y-135652637D01*
X77105284Y-136253352D01*
X77104716Y-136903795D01*
X48970000Y-136903795D01*
X48970000Y-133232532D01*
X77767073Y-133232532D01*
X77865736Y-133499387D01*
X78475461Y-133725908D01*
X79125460Y-133701856D01*
X79614264Y-133499387D01*
X79712927Y-133232532D01*
X84267073Y-133232532D01*
X84365736Y-133499387D01*
X84975461Y-133725908D01*
X85625460Y-133701856D01*
X86114264Y-133499387D01*
X86212927Y-133232532D01*
X85240000Y-132259605D01*
X84267073Y-133232532D01*
X79712927Y-133232532D01*
X78740000Y-132259605D01*
X77767073Y-133232532D01*
X48970000Y-133232532D01*
X48970000Y-131815461D01*
X77094092Y-131815461D01*
X77118144Y-132465460D01*
X77320613Y-132954264D01*
X77587468Y-133052927D01*
X78560395Y-132080000D01*
X78919605Y-132080000D01*
X79892532Y-133052927D01*
X80159387Y-132954264D01*
X80385908Y-132344539D01*
X80366331Y-131815461D01*
X83594092Y-131815461D01*
X83618144Y-132465460D01*
X83820613Y-132954264D01*
X84087468Y-133052927D01*
X85060395Y-132080000D01*
X85419605Y-132080000D01*
X86392532Y-133052927D01*
X86659387Y-132954264D01*
X86885908Y-132344539D01*
X86861856Y-131694540D01*
X86659387Y-131205736D01*
X86392532Y-131107073D01*
X85419605Y-132080000D01*
X85060395Y-132080000D01*
X84087468Y-131107073D01*
X83820613Y-131205736D01*
X83594092Y-131815461D01*
X80366331Y-131815461D01*
X80361856Y-131694540D01*
X80159387Y-131205736D01*
X79892532Y-131107073D01*
X78919605Y-132080000D01*
X78560395Y-132080000D01*
X77587468Y-131107073D01*
X77320613Y-131205736D01*
X77094092Y-131815461D01*
X48970000Y-131815461D01*
X48970000Y-130927468D01*
X77767073Y-130927468D01*
X78740000Y-131900395D01*
X79712927Y-130927468D01*
X84267073Y-130927468D01*
X85240000Y-131900395D01*
X86212927Y-130927468D01*
X86114264Y-130660613D01*
X85504539Y-130434092D01*
X84854540Y-130458144D01*
X84365736Y-130660613D01*
X84267073Y-130927468D01*
X79712927Y-130927468D01*
X79614264Y-130660613D01*
X79004539Y-130434092D01*
X78354540Y-130458144D01*
X77865736Y-130660613D01*
X77767073Y-130927468D01*
X48970000Y-130927468D01*
X48970000Y-124745750D01*
X79285000Y-124745750D01*
X79285000Y-125486310D01*
X79381673Y-125719699D01*
X79560302Y-125898327D01*
X79793691Y-125995000D01*
X80534250Y-125995000D01*
X80693000Y-125836250D01*
X80693000Y-124587000D01*
X79443750Y-124587000D01*
X79285000Y-124745750D01*
X48970000Y-124745750D01*
X48970000Y-123433690D01*
X79285000Y-123433690D01*
X79285000Y-124174250D01*
X79443750Y-124333000D01*
X80693000Y-124333000D01*
X80693000Y-123083750D01*
X80947000Y-123083750D01*
X80947000Y-124333000D01*
X80967000Y-124333000D01*
X80967000Y-124587000D01*
X80947000Y-124587000D01*
X80947000Y-125836250D01*
X81105750Y-125995000D01*
X81846309Y-125995000D01*
X82079698Y-125898327D01*
X82258327Y-125719699D01*
X82314119Y-125585006D01*
X82489357Y-125760551D01*
X83053330Y-125994733D01*
X83663991Y-125995265D01*
X84228371Y-125762068D01*
X84660551Y-125330643D01*
X84894733Y-124766670D01*
X84895265Y-124156009D01*
X84798349Y-123921453D01*
X86897401Y-121822401D01*
X87062148Y-121575839D01*
X87120000Y-121285000D01*
X87120000Y-117924400D01*
X87330142Y-117783988D01*
X87619533Y-117350882D01*
X87721154Y-116840000D01*
X87619533Y-116329118D01*
X87330142Y-115896012D01*
X86897036Y-115606621D01*
X86386154Y-115505000D01*
X86333846Y-115505000D01*
X85822964Y-115606621D01*
X85389858Y-115896012D01*
X85100467Y-116329118D01*
X84998846Y-116840000D01*
X85100467Y-117350882D01*
X85389858Y-117783988D01*
X85600000Y-117924400D01*
X85600000Y-120970198D01*
X83644950Y-122925248D01*
X83056009Y-122924735D01*
X82491629Y-123157932D01*
X82314159Y-123335092D01*
X82258327Y-123200301D01*
X82079698Y-123021673D01*
X81846309Y-122925000D01*
X81105750Y-122925000D01*
X80947000Y-123083750D01*
X80693000Y-123083750D01*
X80534250Y-122925000D01*
X79793691Y-122925000D01*
X79560302Y-123021673D01*
X79381673Y-123200301D01*
X79285000Y-123433690D01*
X48970000Y-123433690D01*
X48970000Y-104425750D01*
X64505000Y-104425750D01*
X64505000Y-105166309D01*
X64601673Y-105399698D01*
X64780301Y-105578327D01*
X65013690Y-105675000D01*
X65754250Y-105675000D01*
X65913000Y-105516250D01*
X65913000Y-104267000D01*
X66167000Y-104267000D01*
X66167000Y-105516250D01*
X66325750Y-105675000D01*
X67066310Y-105675000D01*
X67299699Y-105578327D01*
X67478327Y-105399698D01*
X67575000Y-105166309D01*
X67575000Y-104425750D01*
X67416250Y-104267000D01*
X66167000Y-104267000D01*
X65913000Y-104267000D01*
X64663750Y-104267000D01*
X64505000Y-104425750D01*
X48970000Y-104425750D01*
X48970000Y-102752532D01*
X49827073Y-102752532D01*
X49925736Y-103019387D01*
X50535461Y-103245908D01*
X51185460Y-103221856D01*
X51674264Y-103019387D01*
X51772927Y-102752532D01*
X56327073Y-102752532D01*
X56425736Y-103019387D01*
X57035461Y-103245908D01*
X57685460Y-103221856D01*
X58174264Y-103019387D01*
X58272927Y-102752532D01*
X57300000Y-101779605D01*
X56327073Y-102752532D01*
X51772927Y-102752532D01*
X50800000Y-101779605D01*
X49827073Y-102752532D01*
X48970000Y-102752532D01*
X48970000Y-101335461D01*
X49154092Y-101335461D01*
X49178144Y-101985460D01*
X49380613Y-102474264D01*
X49647468Y-102572927D01*
X50620395Y-101600000D01*
X50979605Y-101600000D01*
X51952532Y-102572927D01*
X52219387Y-102474264D01*
X52445908Y-101864539D01*
X52426331Y-101335461D01*
X55654092Y-101335461D01*
X55678144Y-101985460D01*
X55880613Y-102474264D01*
X56147468Y-102572927D01*
X57120395Y-101600000D01*
X57479605Y-101600000D01*
X58452532Y-102572927D01*
X58719387Y-102474264D01*
X58931251Y-101903991D01*
X64504735Y-101903991D01*
X64737932Y-102468371D01*
X64915092Y-102645841D01*
X64780301Y-102701673D01*
X64601673Y-102880302D01*
X64505000Y-103113691D01*
X64505000Y-103854250D01*
X64663750Y-104013000D01*
X65913000Y-104013000D01*
X65913000Y-103993000D01*
X66167000Y-103993000D01*
X66167000Y-104013000D01*
X67416250Y-104013000D01*
X67575000Y-103854250D01*
X67575000Y-103113691D01*
X67478327Y-102880302D01*
X67299699Y-102701673D01*
X67165006Y-102645881D01*
X67340551Y-102470643D01*
X67386494Y-102360000D01*
X72575600Y-102360000D01*
X72716012Y-102570142D01*
X73149118Y-102859533D01*
X73660000Y-102961154D01*
X74170882Y-102859533D01*
X74603988Y-102570142D01*
X74893379Y-102137036D01*
X74995000Y-101626154D01*
X74995000Y-101573846D01*
X74893379Y-101062964D01*
X74603988Y-100629858D01*
X74170882Y-100340467D01*
X73660000Y-100238846D01*
X73149118Y-100340467D01*
X72716012Y-100629858D01*
X72575600Y-100840000D01*
X67386846Y-100840000D01*
X67342068Y-100731629D01*
X66910643Y-100299449D01*
X66346670Y-100065267D01*
X65736009Y-100064735D01*
X65171629Y-100297932D01*
X64739449Y-100729357D01*
X64505267Y-101293330D01*
X64504735Y-101903991D01*
X58931251Y-101903991D01*
X58945908Y-101864539D01*
X58921856Y-101214540D01*
X58719387Y-100725736D01*
X58452532Y-100627073D01*
X57479605Y-101600000D01*
X57120395Y-101600000D01*
X56147468Y-100627073D01*
X55880613Y-100725736D01*
X55654092Y-101335461D01*
X52426331Y-101335461D01*
X52421856Y-101214540D01*
X52219387Y-100725736D01*
X51952532Y-100627073D01*
X50979605Y-101600000D01*
X50620395Y-101600000D01*
X49647468Y-100627073D01*
X49380613Y-100725736D01*
X49154092Y-101335461D01*
X48970000Y-101335461D01*
X48970000Y-100447468D01*
X49827073Y-100447468D01*
X50800000Y-101420395D01*
X51772927Y-100447468D01*
X56327073Y-100447468D01*
X57300000Y-101420395D01*
X58272927Y-100447468D01*
X58174264Y-100180613D01*
X57564539Y-99954092D01*
X56914540Y-99978144D01*
X56425736Y-100180613D01*
X56327073Y-100447468D01*
X51772927Y-100447468D01*
X51674264Y-100180613D01*
X51064539Y-99954092D01*
X50414540Y-99978144D01*
X49925736Y-100180613D01*
X49827073Y-100447468D01*
X48970000Y-100447468D01*
X48970000Y-81343089D01*
X52186517Y-81343089D01*
X52315725Y-81635859D01*
X53015883Y-81904071D01*
X53765384Y-81883928D01*
X54364275Y-81635859D01*
X54493483Y-81343089D01*
X53340000Y-80189605D01*
X52186517Y-81343089D01*
X48970000Y-81343089D01*
X48970000Y-79685883D01*
X51445929Y-79685883D01*
X51466072Y-80435384D01*
X51714141Y-81034275D01*
X52006911Y-81163483D01*
X53160395Y-80010000D01*
X53519605Y-80010000D01*
X54673089Y-81163483D01*
X54965859Y-81034275D01*
X55234071Y-80334117D01*
X55213928Y-79584616D01*
X54965859Y-78985725D01*
X54673089Y-78856517D01*
X53519605Y-80010000D01*
X53160395Y-80010000D01*
X52006911Y-78856517D01*
X51714141Y-78985725D01*
X51445929Y-79685883D01*
X48970000Y-79685883D01*
X48970000Y-78676911D01*
X52186517Y-78676911D01*
X53340000Y-79830395D01*
X54493483Y-78676911D01*
X54364275Y-78384141D01*
X53664117Y-78115929D01*
X52914616Y-78136072D01*
X52315725Y-78384141D01*
X52186517Y-78676911D01*
X48970000Y-78676911D01*
X48970000Y-72272532D01*
X95547073Y-72272532D01*
X95645736Y-72539387D01*
X96255461Y-72765908D01*
X96905460Y-72741856D01*
X97394264Y-72539387D01*
X97492927Y-72272532D01*
X102047073Y-72272532D01*
X102145736Y-72539387D01*
X102755461Y-72765908D01*
X103405460Y-72741856D01*
X103894264Y-72539387D01*
X103992927Y-72272532D01*
X103020000Y-71299605D01*
X102047073Y-72272532D01*
X97492927Y-72272532D01*
X96520000Y-71299605D01*
X95547073Y-72272532D01*
X48970000Y-72272532D01*
X48970000Y-70863795D01*
X77104716Y-70863795D01*
X77353106Y-71464943D01*
X77812637Y-71925278D01*
X78413352Y-72174716D01*
X79063795Y-72175284D01*
X79664943Y-71926894D01*
X80125278Y-71467363D01*
X80374716Y-70866648D01*
X80375284Y-70216205D01*
X80126894Y-69615057D01*
X79667363Y-69154722D01*
X79066648Y-68905284D01*
X78416205Y-68904716D01*
X77815057Y-69153106D01*
X77354722Y-69612637D01*
X77105284Y-70213352D01*
X77104716Y-70863795D01*
X48970000Y-70863795D01*
X48970000Y-67192532D01*
X77767073Y-67192532D01*
X77865736Y-67459387D01*
X78475461Y-67685908D01*
X79125460Y-67661856D01*
X79614264Y-67459387D01*
X79712927Y-67192532D01*
X78740000Y-66219605D01*
X77767073Y-67192532D01*
X48970000Y-67192532D01*
X48970000Y-65775461D01*
X77094092Y-65775461D01*
X77118144Y-66425460D01*
X77320613Y-66914264D01*
X77587468Y-67012927D01*
X78560395Y-66040000D01*
X78919605Y-66040000D01*
X79892532Y-67012927D01*
X80159387Y-66914264D01*
X80385908Y-66304539D01*
X80361856Y-65654540D01*
X80159387Y-65165736D01*
X79892532Y-65067073D01*
X78919605Y-66040000D01*
X78560395Y-66040000D01*
X77587468Y-65067073D01*
X77320613Y-65165736D01*
X77094092Y-65775461D01*
X48970000Y-65775461D01*
X48970000Y-64887468D01*
X77767073Y-64887468D01*
X78740000Y-65860395D01*
X79712927Y-64887468D01*
X79614264Y-64620613D01*
X79004539Y-64394092D01*
X78354540Y-64418144D01*
X77865736Y-64620613D01*
X77767073Y-64887468D01*
X48970000Y-64887468D01*
X48970000Y-62940000D01*
X84586421Y-62940000D01*
X84552599Y-62962599D01*
X84552599Y-62962599D01*
G37*
X84552599Y-62962599D02*
X82012599Y-65502599D01*
X81847852Y-65749161D01*
X81790000Y-66040000D01*
X81790000Y-67310000D01*
X81847852Y-67600839D01*
X82012599Y-67847401D01*
X83832163Y-69666965D01*
X83605284Y-70213352D01*
X83604716Y-70863795D01*
X83853106Y-71464943D01*
X84312637Y-71925278D01*
X84913352Y-72174716D01*
X85563795Y-72175284D01*
X86164943Y-71926894D01*
X86625278Y-71467363D01*
X86874716Y-70866648D01*
X86874725Y-70855461D01*
X94874092Y-70855461D01*
X94898144Y-71505460D01*
X95100613Y-71994264D01*
X95367468Y-72092927D01*
X96340395Y-71120000D01*
X96699605Y-71120000D01*
X97672532Y-72092927D01*
X97939387Y-71994264D01*
X98165908Y-71384539D01*
X98146331Y-70855461D01*
X101374092Y-70855461D01*
X101398144Y-71505460D01*
X101600613Y-71994264D01*
X101867468Y-72092927D01*
X102840395Y-71120000D01*
X103199605Y-71120000D01*
X104172532Y-72092927D01*
X104439387Y-71994264D01*
X104665908Y-71384539D01*
X104641856Y-70734540D01*
X104439387Y-70245736D01*
X104172532Y-70147073D01*
X103199605Y-71120000D01*
X102840395Y-71120000D01*
X101867468Y-70147073D01*
X101600613Y-70245736D01*
X101374092Y-70855461D01*
X98146331Y-70855461D01*
X98141856Y-70734540D01*
X97939387Y-70245736D01*
X97672532Y-70147073D01*
X96699605Y-71120000D01*
X96340395Y-71120000D01*
X95367468Y-70147073D01*
X95100613Y-70245736D01*
X94874092Y-70855461D01*
X86874725Y-70855461D01*
X86875284Y-70216205D01*
X86772508Y-69967468D01*
X95547073Y-69967468D01*
X96520000Y-70940395D01*
X97492927Y-69967468D01*
X102047073Y-69967468D01*
X103020000Y-70940395D01*
X103992927Y-69967468D01*
X103894264Y-69700613D01*
X103284539Y-69474092D01*
X102634540Y-69498144D01*
X102145736Y-69700613D01*
X102047073Y-69967468D01*
X97492927Y-69967468D01*
X97394264Y-69700613D01*
X96784539Y-69474092D01*
X96134540Y-69498144D01*
X95645736Y-69700613D01*
X95547073Y-69967468D01*
X86772508Y-69967468D01*
X86626894Y-69615057D01*
X86167363Y-69154722D01*
X85566648Y-68905284D01*
X85219783Y-68904981D01*
X83507334Y-67192532D01*
X84267073Y-67192532D01*
X84365736Y-67459387D01*
X84975461Y-67685908D01*
X85625460Y-67661856D01*
X86114264Y-67459387D01*
X86212927Y-67192532D01*
X85240000Y-66219605D01*
X84267073Y-67192532D01*
X83507334Y-67192532D01*
X83310000Y-66995198D01*
X83310000Y-66354802D01*
X83604627Y-66060175D01*
X83618144Y-66425460D01*
X83820613Y-66914264D01*
X84087468Y-67012927D01*
X85060395Y-66040000D01*
X85419605Y-66040000D01*
X86392532Y-67012927D01*
X86659387Y-66914264D01*
X86885908Y-66304539D01*
X86861856Y-65654540D01*
X86659387Y-65165736D01*
X86392532Y-65067073D01*
X85419605Y-66040000D01*
X85060395Y-66040000D01*
X85046253Y-66025858D01*
X85225858Y-65846253D01*
X85240000Y-65860395D01*
X86212927Y-64887468D01*
X86114264Y-64620613D01*
X85504539Y-64394092D01*
X85261725Y-64403077D01*
X85404802Y-64260000D01*
X102555198Y-64260000D01*
X109730000Y-71434802D01*
X109730000Y-73583154D01*
X109621629Y-73627932D01*
X109189449Y-74059357D01*
X108955267Y-74623330D01*
X108954735Y-75233991D01*
X109187932Y-75798371D01*
X109619357Y-76230551D01*
X110183330Y-76464733D01*
X110793991Y-76465265D01*
X111358371Y-76232068D01*
X111790551Y-75800643D01*
X112024733Y-75236670D01*
X112025265Y-74626009D01*
X111792068Y-74061629D01*
X111360643Y-73629449D01*
X111250000Y-73583506D01*
X111250000Y-71120000D01*
X111199037Y-70863795D01*
X111192148Y-70829160D01*
X111027401Y-70582599D01*
X103407401Y-62962599D01*
X103373579Y-62940000D01*
X118670000Y-62940000D01*
X118670000Y-87126421D01*
X118647401Y-87092599D01*
X116837401Y-85282599D01*
X116590839Y-85117852D01*
X116300000Y-85060000D01*
X115567901Y-85060000D01*
X115696431Y-84871890D01*
X115747440Y-84620000D01*
X115747440Y-83020000D01*
X115703162Y-82784683D01*
X115564090Y-82568559D01*
X115351890Y-82423569D01*
X115100000Y-82372560D01*
X113927362Y-82372560D01*
X104677401Y-73122599D01*
X104430839Y-72957852D01*
X104140000Y-72900000D01*
X95250000Y-72900000D01*
X94959161Y-72957852D01*
X94712599Y-73122599D01*
X89855198Y-77980000D01*
X85355000Y-77980000D01*
X85355000Y-77755750D01*
X85196250Y-77597000D01*
X83947000Y-77597000D01*
X83947000Y-77617000D01*
X83693000Y-77617000D01*
X83693000Y-77597000D01*
X83673000Y-77597000D01*
X83673000Y-77343000D01*
X83693000Y-77343000D01*
X83693000Y-76093750D01*
X83947000Y-76093750D01*
X83947000Y-77343000D01*
X85196250Y-77343000D01*
X85355000Y-77184250D01*
X85355000Y-76443690D01*
X85258327Y-76210301D01*
X85079698Y-76031673D01*
X84846309Y-75935000D01*
X84105750Y-75935000D01*
X83947000Y-76093750D01*
X83693000Y-76093750D01*
X83534250Y-75935000D01*
X82793691Y-75935000D01*
X82560302Y-76031673D01*
X82381673Y-76210301D01*
X82325881Y-76344994D01*
X82150643Y-76169449D01*
X81586670Y-75935267D01*
X80976009Y-75934735D01*
X80411629Y-76167932D01*
X79979449Y-76599357D01*
X79745267Y-77163330D01*
X79744735Y-77773991D01*
X79790485Y-77884713D01*
X79472599Y-78202599D01*
X79307852Y-78449161D01*
X79250000Y-78740000D01*
X79250000Y-82692345D01*
X78878902Y-83062796D01*
X78675232Y-83553287D01*
X78674769Y-84084383D01*
X78877582Y-84575229D01*
X79252796Y-84951098D01*
X79743287Y-85154768D01*
X80274383Y-85155231D01*
X80520000Y-85053744D01*
X80520000Y-86391243D01*
X80036154Y-86295000D01*
X79983846Y-86295000D01*
X79788632Y-86333830D01*
X72927401Y-79472599D01*
X72680839Y-79307852D01*
X72390000Y-79250000D01*
X65225201Y-79250000D01*
X65098686Y-78943809D01*
X64568979Y-78413178D01*
X63876531Y-78125648D01*
X63126759Y-78124994D01*
X62433809Y-78411314D01*
X61903178Y-78941021D01*
X61615648Y-79633469D01*
X61614994Y-80383241D01*
X61901314Y-81076191D01*
X62431021Y-81606822D01*
X63123469Y-81894352D01*
X63873241Y-81895006D01*
X64566191Y-81608686D01*
X65096822Y-81078979D01*
X65225121Y-80770000D01*
X72075198Y-80770000D01*
X78696355Y-87391157D01*
X78648846Y-87630000D01*
X78750467Y-88140882D01*
X79039858Y-88573988D01*
X79472964Y-88863379D01*
X79983846Y-88965000D01*
X80036154Y-88965000D01*
X80520000Y-88868757D01*
X80520000Y-97475198D01*
X79921621Y-98073577D01*
X79855481Y-97974591D01*
X79579221Y-97790000D01*
X79855481Y-97605409D01*
X80188227Y-97107419D01*
X80305072Y-96520000D01*
X80188227Y-95932581D01*
X79855481Y-95434591D01*
X79579221Y-95250000D01*
X79855481Y-95065409D01*
X80188227Y-94567419D01*
X80305072Y-93980000D01*
X80188227Y-93392581D01*
X79884141Y-92937484D01*
X80091441Y-92804090D01*
X80236431Y-92591890D01*
X80287440Y-92340000D01*
X80287440Y-90540000D01*
X80243162Y-90304683D01*
X80104090Y-90088559D01*
X79891890Y-89943569D01*
X79640000Y-89892560D01*
X77840000Y-89892560D01*
X77604683Y-89936838D01*
X77388559Y-90075910D01*
X77243569Y-90288110D01*
X77192560Y-90540000D01*
X77192560Y-92340000D01*
X77236838Y-92575317D01*
X77375910Y-92791441D01*
X77588110Y-92936431D01*
X77595555Y-92937939D01*
X77291773Y-93392581D01*
X77174928Y-93980000D01*
X77291773Y-94567419D01*
X77624519Y-95065409D01*
X77900779Y-95250000D01*
X77624519Y-95434591D01*
X77291773Y-95932581D01*
X77174928Y-96520000D01*
X77291773Y-97107419D01*
X77624519Y-97605409D01*
X77900779Y-97790000D01*
X77624519Y-97974591D01*
X77291773Y-98472581D01*
X77174928Y-99060000D01*
X77291773Y-99647419D01*
X77624519Y-100145409D01*
X77900925Y-100330097D01*
X77832424Y-100362034D01*
X77427760Y-100803583D01*
X77248964Y-101235260D01*
X77369622Y-101473000D01*
X78613000Y-101473000D01*
X78613000Y-101453000D01*
X78867000Y-101453000D01*
X78867000Y-101473000D01*
X78887000Y-101473000D01*
X78887000Y-101727000D01*
X78867000Y-101727000D01*
X78867000Y-101747000D01*
X78613000Y-101747000D01*
X78613000Y-101727000D01*
X77369622Y-101727000D01*
X77248964Y-101964740D01*
X77427760Y-102396417D01*
X77832424Y-102837966D01*
X77900925Y-102869903D01*
X77624519Y-103054591D01*
X77291773Y-103552581D01*
X77174928Y-104140000D01*
X77291773Y-104727419D01*
X77624519Y-105225409D01*
X77900779Y-105410000D01*
X77624519Y-105594591D01*
X77407088Y-105920000D01*
X74787655Y-105920000D01*
X74417204Y-105548902D01*
X73926713Y-105345232D01*
X73395617Y-105344769D01*
X72904771Y-105547582D01*
X72528902Y-105922796D01*
X72325232Y-106413287D01*
X72324769Y-106944383D01*
X72527582Y-107435229D01*
X72902796Y-107811098D01*
X73393287Y-108014768D01*
X73924383Y-108015231D01*
X74415229Y-107812418D01*
X74788297Y-107440000D01*
X77407088Y-107440000D01*
X77624519Y-107765409D01*
X77900779Y-107950000D01*
X77624519Y-108134591D01*
X77291773Y-108632581D01*
X77174928Y-109220000D01*
X77291773Y-109807419D01*
X77624519Y-110305409D01*
X77900779Y-110490000D01*
X77624519Y-110674591D01*
X77291773Y-111172581D01*
X77174928Y-111760000D01*
X77291773Y-112347419D01*
X77624519Y-112845409D01*
X78122509Y-113178155D01*
X78709928Y-113295000D01*
X78770072Y-113295000D01*
X79357491Y-113178155D01*
X79855481Y-112845409D01*
X80188227Y-112347419D01*
X80288502Y-111843304D01*
X80520000Y-112074802D01*
X80520000Y-115712345D01*
X80148902Y-116082796D01*
X79945232Y-116573287D01*
X79944769Y-117104383D01*
X80147582Y-117595229D01*
X80522796Y-117971098D01*
X81013287Y-118174768D01*
X81544383Y-118175231D01*
X82035229Y-117972418D01*
X82411098Y-117597204D01*
X82614768Y-117106713D01*
X82615231Y-116575617D01*
X82412418Y-116084771D01*
X82040000Y-115711703D01*
X82040000Y-111760000D01*
X81982148Y-111469161D01*
X81982148Y-111469160D01*
X81817401Y-111222599D01*
X80223731Y-109628929D01*
X80305072Y-109220000D01*
X80188227Y-108632581D01*
X79855481Y-108134591D01*
X79579221Y-107950000D01*
X79855481Y-107765409D01*
X80188227Y-107267419D01*
X80305072Y-106680000D01*
X80188227Y-106092581D01*
X79855481Y-105594591D01*
X79579221Y-105410000D01*
X79855481Y-105225409D01*
X80188227Y-104727419D01*
X80305072Y-104140000D01*
X80223731Y-103731071D01*
X83087401Y-100867401D01*
X83252148Y-100620839D01*
X83310000Y-100330000D01*
X83310000Y-97084802D01*
X84876269Y-98651071D01*
X84794928Y-99060000D01*
X84911773Y-99647419D01*
X85244519Y-100145409D01*
X85520779Y-100330000D01*
X85244519Y-100514591D01*
X84911773Y-101012581D01*
X84794928Y-101600000D01*
X84911773Y-102187419D01*
X85244519Y-102685409D01*
X85520779Y-102870000D01*
X85244519Y-103054591D01*
X84911773Y-103552581D01*
X84794928Y-104140000D01*
X84911773Y-104727419D01*
X85244519Y-105225409D01*
X85520779Y-105410000D01*
X85244519Y-105594591D01*
X84911773Y-106092581D01*
X84794928Y-106680000D01*
X84911773Y-107267419D01*
X85244519Y-107765409D01*
X85520779Y-107950000D01*
X85244519Y-108134591D01*
X84911773Y-108632581D01*
X84794928Y-109220000D01*
X84911773Y-109807419D01*
X85244519Y-110305409D01*
X85520779Y-110490000D01*
X85244519Y-110674591D01*
X84911773Y-111172581D01*
X84794928Y-111760000D01*
X84911773Y-112347419D01*
X85244519Y-112845409D01*
X85379559Y-112935639D01*
X83282599Y-115032599D01*
X83117852Y-115279161D01*
X83060000Y-115570000D01*
X83060000Y-117795198D01*
X80965198Y-119890000D01*
X65664802Y-119890000D01*
X52366275Y-106591473D01*
X52434716Y-106426648D01*
X52434718Y-106423795D01*
X55664716Y-106423795D01*
X55913106Y-107024943D01*
X56372637Y-107485278D01*
X56973352Y-107734716D01*
X57623795Y-107735284D01*
X58224943Y-107486894D01*
X58685278Y-107027363D01*
X58934716Y-106426648D01*
X58935284Y-105776205D01*
X58686894Y-105175057D01*
X58227363Y-104714722D01*
X57626648Y-104465284D01*
X56976205Y-104464716D01*
X56375057Y-104713106D01*
X55914722Y-105172637D01*
X55665284Y-105773352D01*
X55664716Y-106423795D01*
X52434718Y-106423795D01*
X52435284Y-105776205D01*
X52186894Y-105175057D01*
X51727363Y-104714722D01*
X51126648Y-104465284D01*
X50476205Y-104464716D01*
X49875057Y-104713106D01*
X49414722Y-105172637D01*
X49165284Y-105773352D01*
X49164716Y-106423795D01*
X49413106Y-107024943D01*
X49872637Y-107485278D01*
X50473352Y-107734716D01*
X51123795Y-107735284D01*
X51291279Y-107666081D01*
X64812599Y-121187401D01*
X65059160Y-121352148D01*
X65350000Y-121410000D01*
X81280000Y-121410000D01*
X81570839Y-121352148D01*
X81817401Y-121187401D01*
X84357401Y-118647401D01*
X84522148Y-118400840D01*
X84531746Y-118352586D01*
X84580000Y-118110000D01*
X84580000Y-115884802D01*
X86897401Y-113567401D01*
X87062148Y-113320840D01*
X87071746Y-113272586D01*
X87107857Y-113091047D01*
X87475481Y-112845409D01*
X87692912Y-112520000D01*
X109220000Y-112520000D01*
X109510839Y-112462148D01*
X109757401Y-112297401D01*
X112297401Y-109757401D01*
X112462148Y-109510840D01*
X112471746Y-109462586D01*
X112520000Y-109220000D01*
X112520000Y-106415461D01*
X112654092Y-106415461D01*
X112678144Y-107065460D01*
X112880613Y-107554264D01*
X113147468Y-107652927D01*
X114120395Y-106680000D01*
X113147468Y-105707073D01*
X112880613Y-105805736D01*
X112654092Y-106415461D01*
X112520000Y-106415461D01*
X112520000Y-105527468D01*
X113327073Y-105527468D01*
X114300000Y-106500395D01*
X115272927Y-105527468D01*
X115174264Y-105260613D01*
X114564539Y-105034092D01*
X113914540Y-105058144D01*
X113425736Y-105260613D01*
X113327073Y-105527468D01*
X112520000Y-105527468D01*
X112520000Y-102503795D01*
X112664716Y-102503795D01*
X112913106Y-103104943D01*
X113372637Y-103565278D01*
X113973352Y-103814716D01*
X114623795Y-103815284D01*
X115224943Y-103566894D01*
X115685278Y-103107363D01*
X115934716Y-102506648D01*
X115935284Y-101856205D01*
X115686894Y-101255057D01*
X115227363Y-100794722D01*
X114626648Y-100545284D01*
X113976205Y-100544716D01*
X113375057Y-100793106D01*
X112914722Y-101252637D01*
X112665284Y-101853352D01*
X112664716Y-102503795D01*
X112520000Y-102503795D01*
X112520000Y-100644802D01*
X114837401Y-98327401D01*
X115002148Y-98080840D01*
X115023282Y-97974591D01*
X115060000Y-97790000D01*
X115060000Y-95023667D01*
X115342811Y-94834698D01*
X115653880Y-94369151D01*
X115763113Y-93820000D01*
X115653880Y-93270849D01*
X115352632Y-92820000D01*
X115653880Y-92369151D01*
X115763113Y-91820000D01*
X115653880Y-91270849D01*
X115352632Y-90820000D01*
X115653880Y-90369151D01*
X115763113Y-89820000D01*
X115653880Y-89270849D01*
X115342811Y-88805302D01*
X115320188Y-88790185D01*
X115531041Y-88557423D01*
X115691904Y-88169039D01*
X115569915Y-87947000D01*
X114427000Y-87947000D01*
X114427000Y-87967000D01*
X114173000Y-87967000D01*
X114173000Y-87947000D01*
X113030085Y-87947000D01*
X112908096Y-88169039D01*
X113068959Y-88557423D01*
X113279812Y-88790185D01*
X113257189Y-88805302D01*
X113087005Y-89060000D01*
X111250000Y-89060000D01*
X111250000Y-88976846D01*
X111358371Y-88932068D01*
X111790551Y-88500643D01*
X112024733Y-87936670D01*
X112025265Y-87326009D01*
X111792068Y-86761629D01*
X111610756Y-86580000D01*
X113087005Y-86580000D01*
X113257189Y-86834698D01*
X113279812Y-86849815D01*
X113068959Y-87082577D01*
X112908096Y-87470961D01*
X113030085Y-87693000D01*
X114173000Y-87693000D01*
X114173000Y-87673000D01*
X114427000Y-87673000D01*
X114427000Y-87693000D01*
X115569915Y-87693000D01*
X115691904Y-87470961D01*
X115531041Y-87082577D01*
X115320188Y-86849815D01*
X115342811Y-86834698D01*
X115512995Y-86580000D01*
X115985198Y-86580000D01*
X117350000Y-87944802D01*
X117350000Y-105095198D01*
X115930020Y-106515178D01*
X115921856Y-106294540D01*
X115719387Y-105805736D01*
X115452532Y-105707073D01*
X114479605Y-106680000D01*
X114493748Y-106694143D01*
X114314143Y-106873748D01*
X114300000Y-106859605D01*
X113327073Y-107832532D01*
X113425736Y-108099387D01*
X114035461Y-108325908D01*
X114122511Y-108322687D01*
X111222599Y-111222599D01*
X111057852Y-111469161D01*
X111000000Y-111760000D01*
X111000000Y-134182273D01*
X110603880Y-134446951D01*
X110479658Y-134632863D01*
X110283337Y-134385702D01*
X109722396Y-134074258D01*
X109600434Y-134049876D01*
X109347000Y-134169223D01*
X109347000Y-135763000D01*
X109367000Y-135763000D01*
X109367000Y-136017000D01*
X109347000Y-136017000D01*
X109347000Y-137610777D01*
X109600434Y-137730124D01*
X109722396Y-137705742D01*
X110283337Y-137394298D01*
X110479658Y-137147137D01*
X110603880Y-137333049D01*
X111134313Y-137687472D01*
X111760000Y-137811929D01*
X112385687Y-137687472D01*
X112916120Y-137333049D01*
X113270543Y-136802616D01*
X113395000Y-136176929D01*
X113395000Y-135603071D01*
X113270543Y-134977384D01*
X112916120Y-134446951D01*
X112520000Y-134182273D01*
X112520000Y-112074802D01*
X118647401Y-105947401D01*
X118670000Y-105913579D01*
X118670000Y-140260000D01*
X48970000Y-140260000D01*
X48970000Y-136903795D01*
X77104716Y-136903795D01*
X77353106Y-137504943D01*
X77812637Y-137965278D01*
X78413352Y-138214716D01*
X79063795Y-138215284D01*
X79664943Y-137966894D01*
X80125278Y-137507363D01*
X80374716Y-136906648D01*
X80374718Y-136903795D01*
X83604716Y-136903795D01*
X83853106Y-137504943D01*
X84312637Y-137965278D01*
X84913352Y-138214716D01*
X85563795Y-138215284D01*
X86164943Y-137966894D01*
X86625278Y-137507363D01*
X86766009Y-137168444D01*
X86842401Y-137117401D01*
X87599802Y-136360000D01*
X95072560Y-136360000D01*
X95072560Y-137960000D01*
X95116838Y-138195317D01*
X95255910Y-138411441D01*
X95468110Y-138556431D01*
X95720000Y-138607440D01*
X97320000Y-138607440D01*
X97555317Y-138563162D01*
X97771441Y-138424090D01*
X97791498Y-138394736D01*
X98170961Y-138551904D01*
X98393000Y-138429915D01*
X98393000Y-137287000D01*
X98647000Y-137287000D01*
X98647000Y-138429915D01*
X98869039Y-138551904D01*
X99257423Y-138391041D01*
X99672389Y-138015134D01*
X99911914Y-137509041D01*
X99790629Y-137287000D01*
X98647000Y-137287000D01*
X98393000Y-137287000D01*
X98373000Y-137287000D01*
X98373000Y-137033000D01*
X98393000Y-137033000D01*
X98393000Y-135890085D01*
X98647000Y-135890085D01*
X98647000Y-137033000D01*
X99790629Y-137033000D01*
X99911914Y-136810959D01*
X99672389Y-136304866D01*
X99257423Y-135928959D01*
X98869039Y-135768096D01*
X98647000Y-135890085D01*
X98393000Y-135890085D01*
X98170961Y-135768096D01*
X97794136Y-135924171D01*
X97784090Y-135908559D01*
X97660612Y-135824190D01*
X98104802Y-135380000D01*
X105089372Y-135380000D01*
X105045000Y-135603071D01*
X105045000Y-136176929D01*
X105169457Y-136802616D01*
X105523880Y-137333049D01*
X106054313Y-137687472D01*
X106680000Y-137811929D01*
X107305687Y-137687472D01*
X107836120Y-137333049D01*
X107960342Y-137147137D01*
X108156663Y-137394298D01*
X108717604Y-137705742D01*
X108839566Y-137730124D01*
X109093000Y-137610777D01*
X109093000Y-136017000D01*
X109073000Y-136017000D01*
X109073000Y-135763000D01*
X109093000Y-135763000D01*
X109093000Y-134169223D01*
X108839566Y-134049876D01*
X108717604Y-134074258D01*
X108156663Y-134385702D01*
X107960342Y-134632863D01*
X107836120Y-134446951D01*
X107305687Y-134092528D01*
X106680000Y-133968071D01*
X106054313Y-134092528D01*
X105996176Y-134131374D01*
X105947401Y-134082599D01*
X105700839Y-133917852D01*
X105410000Y-133860000D01*
X97790000Y-133860000D01*
X97499160Y-133917852D01*
X97252599Y-134082599D01*
X95982599Y-135352599D01*
X95817852Y-135599161D01*
X95795295Y-135712560D01*
X95720000Y-135712560D01*
X95484683Y-135756838D01*
X95268559Y-135895910D01*
X95123569Y-136108110D01*
X95072560Y-136360000D01*
X87599802Y-136360000D01*
X93247401Y-130712401D01*
X93412148Y-130465839D01*
X93470000Y-130175000D01*
X93470000Y-116916846D01*
X93578371Y-116872068D01*
X94010551Y-116440643D01*
X94244733Y-115876670D01*
X94245265Y-115266009D01*
X94012068Y-114701629D01*
X93580643Y-114269449D01*
X93016670Y-114035267D01*
X92406009Y-114034735D01*
X91841629Y-114267932D01*
X91409449Y-114699357D01*
X91175267Y-115263330D01*
X91174735Y-115873991D01*
X91407932Y-116438371D01*
X91839357Y-116870551D01*
X91950000Y-116916494D01*
X91950000Y-129860198D01*
X86391224Y-135418974D01*
X86167363Y-135194722D01*
X85566648Y-134945284D01*
X84916205Y-134944716D01*
X84315057Y-135193106D01*
X83854722Y-135652637D01*
X83605284Y-136253352D01*
X83604716Y-136903795D01*
X80374718Y-136903795D01*
X80375284Y-136256205D01*
X80126894Y-135655057D01*
X79667363Y-135194722D01*
X79066648Y-134945284D01*
X78416205Y-134944716D01*
X77815057Y-135193106D01*
X77354722Y-135652637D01*
X77105284Y-136253352D01*
X77104716Y-136903795D01*
X48970000Y-136903795D01*
X48970000Y-133232532D01*
X77767073Y-133232532D01*
X77865736Y-133499387D01*
X78475461Y-133725908D01*
X79125460Y-133701856D01*
X79614264Y-133499387D01*
X79712927Y-133232532D01*
X84267073Y-133232532D01*
X84365736Y-133499387D01*
X84975461Y-133725908D01*
X85625460Y-133701856D01*
X86114264Y-133499387D01*
X86212927Y-133232532D01*
X85240000Y-132259605D01*
X84267073Y-133232532D01*
X79712927Y-133232532D01*
X78740000Y-132259605D01*
X77767073Y-133232532D01*
X48970000Y-133232532D01*
X48970000Y-131815461D01*
X77094092Y-131815461D01*
X77118144Y-132465460D01*
X77320613Y-132954264D01*
X77587468Y-133052927D01*
X78560395Y-132080000D01*
X78919605Y-132080000D01*
X79892532Y-133052927D01*
X80159387Y-132954264D01*
X80385908Y-132344539D01*
X80366331Y-131815461D01*
X83594092Y-131815461D01*
X83618144Y-132465460D01*
X83820613Y-132954264D01*
X84087468Y-133052927D01*
X85060395Y-132080000D01*
X85419605Y-132080000D01*
X86392532Y-133052927D01*
X86659387Y-132954264D01*
X86885908Y-132344539D01*
X86861856Y-131694540D01*
X86659387Y-131205736D01*
X86392532Y-131107073D01*
X85419605Y-132080000D01*
X85060395Y-132080000D01*
X84087468Y-131107073D01*
X83820613Y-131205736D01*
X83594092Y-131815461D01*
X80366331Y-131815461D01*
X80361856Y-131694540D01*
X80159387Y-131205736D01*
X79892532Y-131107073D01*
X78919605Y-132080000D01*
X78560395Y-132080000D01*
X77587468Y-131107073D01*
X77320613Y-131205736D01*
X77094092Y-131815461D01*
X48970000Y-131815461D01*
X48970000Y-130927468D01*
X77767073Y-130927468D01*
X78740000Y-131900395D01*
X79712927Y-130927468D01*
X84267073Y-130927468D01*
X85240000Y-131900395D01*
X86212927Y-130927468D01*
X86114264Y-130660613D01*
X85504539Y-130434092D01*
X84854540Y-130458144D01*
X84365736Y-130660613D01*
X84267073Y-130927468D01*
X79712927Y-130927468D01*
X79614264Y-130660613D01*
X79004539Y-130434092D01*
X78354540Y-130458144D01*
X77865736Y-130660613D01*
X77767073Y-130927468D01*
X48970000Y-130927468D01*
X48970000Y-124745750D01*
X79285000Y-124745750D01*
X79285000Y-125486310D01*
X79381673Y-125719699D01*
X79560302Y-125898327D01*
X79793691Y-125995000D01*
X80534250Y-125995000D01*
X80693000Y-125836250D01*
X80693000Y-124587000D01*
X79443750Y-124587000D01*
X79285000Y-124745750D01*
X48970000Y-124745750D01*
X48970000Y-123433690D01*
X79285000Y-123433690D01*
X79285000Y-124174250D01*
X79443750Y-124333000D01*
X80693000Y-124333000D01*
X80693000Y-123083750D01*
X80947000Y-123083750D01*
X80947000Y-124333000D01*
X80967000Y-124333000D01*
X80967000Y-124587000D01*
X80947000Y-124587000D01*
X80947000Y-125836250D01*
X81105750Y-125995000D01*
X81846309Y-125995000D01*
X82079698Y-125898327D01*
X82258327Y-125719699D01*
X82314119Y-125585006D01*
X82489357Y-125760551D01*
X83053330Y-125994733D01*
X83663991Y-125995265D01*
X84228371Y-125762068D01*
X84660551Y-125330643D01*
X84894733Y-124766670D01*
X84895265Y-124156009D01*
X84798349Y-123921453D01*
X86897401Y-121822401D01*
X87062148Y-121575839D01*
X87120000Y-121285000D01*
X87120000Y-117924400D01*
X87330142Y-117783988D01*
X87619533Y-117350882D01*
X87721154Y-116840000D01*
X87619533Y-116329118D01*
X87330142Y-115896012D01*
X86897036Y-115606621D01*
X86386154Y-115505000D01*
X86333846Y-115505000D01*
X85822964Y-115606621D01*
X85389858Y-115896012D01*
X85100467Y-116329118D01*
X84998846Y-116840000D01*
X85100467Y-117350882D01*
X85389858Y-117783988D01*
X85600000Y-117924400D01*
X85600000Y-120970198D01*
X83644950Y-122925248D01*
X83056009Y-122924735D01*
X82491629Y-123157932D01*
X82314159Y-123335092D01*
X82258327Y-123200301D01*
X82079698Y-123021673D01*
X81846309Y-122925000D01*
X81105750Y-122925000D01*
X80947000Y-123083750D01*
X80693000Y-123083750D01*
X80534250Y-122925000D01*
X79793691Y-122925000D01*
X79560302Y-123021673D01*
X79381673Y-123200301D01*
X79285000Y-123433690D01*
X48970000Y-123433690D01*
X48970000Y-104425750D01*
X64505000Y-104425750D01*
X64505000Y-105166309D01*
X64601673Y-105399698D01*
X64780301Y-105578327D01*
X65013690Y-105675000D01*
X65754250Y-105675000D01*
X65913000Y-105516250D01*
X65913000Y-104267000D01*
X66167000Y-104267000D01*
X66167000Y-105516250D01*
X66325750Y-105675000D01*
X67066310Y-105675000D01*
X67299699Y-105578327D01*
X67478327Y-105399698D01*
X67575000Y-105166309D01*
X67575000Y-104425750D01*
X67416250Y-104267000D01*
X66167000Y-104267000D01*
X65913000Y-104267000D01*
X64663750Y-104267000D01*
X64505000Y-104425750D01*
X48970000Y-104425750D01*
X48970000Y-102752532D01*
X49827073Y-102752532D01*
X49925736Y-103019387D01*
X50535461Y-103245908D01*
X51185460Y-103221856D01*
X51674264Y-103019387D01*
X51772927Y-102752532D01*
X56327073Y-102752532D01*
X56425736Y-103019387D01*
X57035461Y-103245908D01*
X57685460Y-103221856D01*
X58174264Y-103019387D01*
X58272927Y-102752532D01*
X57300000Y-101779605D01*
X56327073Y-102752532D01*
X51772927Y-102752532D01*
X50800000Y-101779605D01*
X49827073Y-102752532D01*
X48970000Y-102752532D01*
X48970000Y-101335461D01*
X49154092Y-101335461D01*
X49178144Y-101985460D01*
X49380613Y-102474264D01*
X49647468Y-102572927D01*
X50620395Y-101600000D01*
X50979605Y-101600000D01*
X51952532Y-102572927D01*
X52219387Y-102474264D01*
X52445908Y-101864539D01*
X52426331Y-101335461D01*
X55654092Y-101335461D01*
X55678144Y-101985460D01*
X55880613Y-102474264D01*
X56147468Y-102572927D01*
X57120395Y-101600000D01*
X57479605Y-101600000D01*
X58452532Y-102572927D01*
X58719387Y-102474264D01*
X58931251Y-101903991D01*
X64504735Y-101903991D01*
X64737932Y-102468371D01*
X64915092Y-102645841D01*
X64780301Y-102701673D01*
X64601673Y-102880302D01*
X64505000Y-103113691D01*
X64505000Y-103854250D01*
X64663750Y-104013000D01*
X65913000Y-104013000D01*
X65913000Y-103993000D01*
X66167000Y-103993000D01*
X66167000Y-104013000D01*
X67416250Y-104013000D01*
X67575000Y-103854250D01*
X67575000Y-103113691D01*
X67478327Y-102880302D01*
X67299699Y-102701673D01*
X67165006Y-102645881D01*
X67340551Y-102470643D01*
X67386494Y-102360000D01*
X72575600Y-102360000D01*
X72716012Y-102570142D01*
X73149118Y-102859533D01*
X73660000Y-102961154D01*
X74170882Y-102859533D01*
X74603988Y-102570142D01*
X74893379Y-102137036D01*
X74995000Y-101626154D01*
X74995000Y-101573846D01*
X74893379Y-101062964D01*
X74603988Y-100629858D01*
X74170882Y-100340467D01*
X73660000Y-100238846D01*
X73149118Y-100340467D01*
X72716012Y-100629858D01*
X72575600Y-100840000D01*
X67386846Y-100840000D01*
X67342068Y-100731629D01*
X66910643Y-100299449D01*
X66346670Y-100065267D01*
X65736009Y-100064735D01*
X65171629Y-100297932D01*
X64739449Y-100729357D01*
X64505267Y-101293330D01*
X64504735Y-101903991D01*
X58931251Y-101903991D01*
X58945908Y-101864539D01*
X58921856Y-101214540D01*
X58719387Y-100725736D01*
X58452532Y-100627073D01*
X57479605Y-101600000D01*
X57120395Y-101600000D01*
X56147468Y-100627073D01*
X55880613Y-100725736D01*
X55654092Y-101335461D01*
X52426331Y-101335461D01*
X52421856Y-101214540D01*
X52219387Y-100725736D01*
X51952532Y-100627073D01*
X50979605Y-101600000D01*
X50620395Y-101600000D01*
X49647468Y-100627073D01*
X49380613Y-100725736D01*
X49154092Y-101335461D01*
X48970000Y-101335461D01*
X48970000Y-100447468D01*
X49827073Y-100447468D01*
X50800000Y-101420395D01*
X51772927Y-100447468D01*
X56327073Y-100447468D01*
X57300000Y-101420395D01*
X58272927Y-100447468D01*
X58174264Y-100180613D01*
X57564539Y-99954092D01*
X56914540Y-99978144D01*
X56425736Y-100180613D01*
X56327073Y-100447468D01*
X51772927Y-100447468D01*
X51674264Y-100180613D01*
X51064539Y-99954092D01*
X50414540Y-99978144D01*
X49925736Y-100180613D01*
X49827073Y-100447468D01*
X48970000Y-100447468D01*
X48970000Y-81343089D01*
X52186517Y-81343089D01*
X52315725Y-81635859D01*
X53015883Y-81904071D01*
X53765384Y-81883928D01*
X54364275Y-81635859D01*
X54493483Y-81343089D01*
X53340000Y-80189605D01*
X52186517Y-81343089D01*
X48970000Y-81343089D01*
X48970000Y-79685883D01*
X51445929Y-79685883D01*
X51466072Y-80435384D01*
X51714141Y-81034275D01*
X52006911Y-81163483D01*
X53160395Y-80010000D01*
X53519605Y-80010000D01*
X54673089Y-81163483D01*
X54965859Y-81034275D01*
X55234071Y-80334117D01*
X55213928Y-79584616D01*
X54965859Y-78985725D01*
X54673089Y-78856517D01*
X53519605Y-80010000D01*
X53160395Y-80010000D01*
X52006911Y-78856517D01*
X51714141Y-78985725D01*
X51445929Y-79685883D01*
X48970000Y-79685883D01*
X48970000Y-78676911D01*
X52186517Y-78676911D01*
X53340000Y-79830395D01*
X54493483Y-78676911D01*
X54364275Y-78384141D01*
X53664117Y-78115929D01*
X52914616Y-78136072D01*
X52315725Y-78384141D01*
X52186517Y-78676911D01*
X48970000Y-78676911D01*
X48970000Y-72272532D01*
X95547073Y-72272532D01*
X95645736Y-72539387D01*
X96255461Y-72765908D01*
X96905460Y-72741856D01*
X97394264Y-72539387D01*
X97492927Y-72272532D01*
X102047073Y-72272532D01*
X102145736Y-72539387D01*
X102755461Y-72765908D01*
X103405460Y-72741856D01*
X103894264Y-72539387D01*
X103992927Y-72272532D01*
X103020000Y-71299605D01*
X102047073Y-72272532D01*
X97492927Y-72272532D01*
X96520000Y-71299605D01*
X95547073Y-72272532D01*
X48970000Y-72272532D01*
X48970000Y-70863795D01*
X77104716Y-70863795D01*
X77353106Y-71464943D01*
X77812637Y-71925278D01*
X78413352Y-72174716D01*
X79063795Y-72175284D01*
X79664943Y-71926894D01*
X80125278Y-71467363D01*
X80374716Y-70866648D01*
X80375284Y-70216205D01*
X80126894Y-69615057D01*
X79667363Y-69154722D01*
X79066648Y-68905284D01*
X78416205Y-68904716D01*
X77815057Y-69153106D01*
X77354722Y-69612637D01*
X77105284Y-70213352D01*
X77104716Y-70863795D01*
X48970000Y-70863795D01*
X48970000Y-67192532D01*
X77767073Y-67192532D01*
X77865736Y-67459387D01*
X78475461Y-67685908D01*
X79125460Y-67661856D01*
X79614264Y-67459387D01*
X79712927Y-67192532D01*
X78740000Y-66219605D01*
X77767073Y-67192532D01*
X48970000Y-67192532D01*
X48970000Y-65775461D01*
X77094092Y-65775461D01*
X77118144Y-66425460D01*
X77320613Y-66914264D01*
X77587468Y-67012927D01*
X78560395Y-66040000D01*
X78919605Y-66040000D01*
X79892532Y-67012927D01*
X80159387Y-66914264D01*
X80385908Y-66304539D01*
X80361856Y-65654540D01*
X80159387Y-65165736D01*
X79892532Y-65067073D01*
X78919605Y-66040000D01*
X78560395Y-66040000D01*
X77587468Y-65067073D01*
X77320613Y-65165736D01*
X77094092Y-65775461D01*
X48970000Y-65775461D01*
X48970000Y-64887468D01*
X77767073Y-64887468D01*
X78740000Y-65860395D01*
X79712927Y-64887468D01*
X79614264Y-64620613D01*
X79004539Y-64394092D01*
X78354540Y-64418144D01*
X77865736Y-64620613D01*
X77767073Y-64887468D01*
X48970000Y-64887468D01*
X48970000Y-62940000D01*
X84586421Y-62940000D01*
X84552599Y-62962599D01*
G36*
X113247368Y-90820000D02*
X113087005Y-91060000D01*
X111380000Y-91060000D01*
X111089161Y-91117852D01*
X110842599Y-91282599D01*
X107262599Y-94862599D01*
X107097852Y-95109161D01*
X107040000Y-95400000D01*
X107040000Y-100724953D01*
X106875057Y-100793106D01*
X106414722Y-101252637D01*
X106165284Y-101853352D01*
X106164716Y-102503795D01*
X106413106Y-103104943D01*
X106872637Y-103565278D01*
X107473352Y-103814716D01*
X108123795Y-103815284D01*
X108291279Y-103746081D01*
X109730000Y-105184802D01*
X109730000Y-107635198D01*
X108905198Y-108460000D01*
X99374802Y-108460000D01*
X98747334Y-107832532D01*
X106827073Y-107832532D01*
X106925736Y-108099387D01*
X107535461Y-108325908D01*
X108185460Y-108301856D01*
X108674264Y-108099387D01*
X108772927Y-107832532D01*
X107800000Y-106859605D01*
X106827073Y-107832532D01*
X98747334Y-107832532D01*
X97330263Y-106415461D01*
X106154092Y-106415461D01*
X106178144Y-107065460D01*
X106380613Y-107554264D01*
X106647468Y-107652927D01*
X107620395Y-106680000D01*
X107979605Y-106680000D01*
X108952532Y-107652927D01*
X109219387Y-107554264D01*
X109445908Y-106944539D01*
X109421856Y-106294540D01*
X109219387Y-105805736D01*
X108952532Y-105707073D01*
X107979605Y-106680000D01*
X107620395Y-106680000D01*
X106647468Y-105707073D01*
X106380613Y-105805736D01*
X106154092Y-106415461D01*
X97330263Y-106415461D01*
X97057401Y-106142599D01*
X96810839Y-105977852D01*
X96520000Y-105920000D01*
X87692912Y-105920000D01*
X87475481Y-105594591D01*
X87199221Y-105410000D01*
X87475481Y-105225409D01*
X87808227Y-104727419D01*
X87868232Y-104425750D01*
X97525000Y-104425750D01*
X97525000Y-105166309D01*
X97621673Y-105399698D01*
X97800301Y-105578327D01*
X98033690Y-105675000D01*
X98774250Y-105675000D01*
X98933000Y-105516250D01*
X98933000Y-104267000D01*
X99187000Y-104267000D01*
X99187000Y-105516250D01*
X99345750Y-105675000D01*
X100086310Y-105675000D01*
X100319699Y-105578327D01*
X100370557Y-105527468D01*
X106827073Y-105527468D01*
X107800000Y-106500395D01*
X108772927Y-105527468D01*
X108674264Y-105260613D01*
X108064539Y-105034092D01*
X107414540Y-105058144D01*
X106925736Y-105260613D01*
X106827073Y-105527468D01*
X100370557Y-105527468D01*
X100498327Y-105399698D01*
X100595000Y-105166309D01*
X100595000Y-104425750D01*
X100436250Y-104267000D01*
X99187000Y-104267000D01*
X98933000Y-104267000D01*
X97683750Y-104267000D01*
X97525000Y-104425750D01*
X87868232Y-104425750D01*
X87925072Y-104140000D01*
X87843731Y-103731071D01*
X90105113Y-101469689D01*
X90104769Y-101864383D01*
X90307582Y-102355229D01*
X90682796Y-102731098D01*
X91173287Y-102934768D01*
X91704383Y-102935231D01*
X92195229Y-102732418D01*
X92568297Y-102360000D01*
X97713154Y-102360000D01*
X97757932Y-102468371D01*
X97935092Y-102645841D01*
X97800301Y-102701673D01*
X97621673Y-102880302D01*
X97525000Y-103113691D01*
X97525000Y-103854250D01*
X97683750Y-104013000D01*
X98933000Y-104013000D01*
X98933000Y-103993000D01*
X99187000Y-103993000D01*
X99187000Y-104013000D01*
X100436250Y-104013000D01*
X100595000Y-103854250D01*
X100595000Y-103113691D01*
X100498327Y-102880302D01*
X100319699Y-102701673D01*
X100185006Y-102645881D01*
X100360551Y-102470643D01*
X100594733Y-101906670D01*
X100595265Y-101296009D01*
X100362068Y-100731629D01*
X99930643Y-100299449D01*
X99366670Y-100065267D01*
X98756009Y-100064735D01*
X98191629Y-100297932D01*
X97759449Y-100729357D01*
X97713506Y-100840000D01*
X93274802Y-100840000D01*
X94294802Y-99820000D01*
X101600000Y-99820000D01*
X101890839Y-99762148D01*
X102137401Y-99597401D01*
X111154802Y-90580000D01*
X113087005Y-90580000D01*
X113247368Y-90820000D01*
X113247368Y-90820000D01*
G37*
X113247368Y-90820000D02*
X113087005Y-91060000D01*
X111380000Y-91060000D01*
X111089161Y-91117852D01*
X110842599Y-91282599D01*
X107262599Y-94862599D01*
X107097852Y-95109161D01*
X107040000Y-95400000D01*
X107040000Y-100724953D01*
X106875057Y-100793106D01*
X106414722Y-101252637D01*
X106165284Y-101853352D01*
X106164716Y-102503795D01*
X106413106Y-103104943D01*
X106872637Y-103565278D01*
X107473352Y-103814716D01*
X108123795Y-103815284D01*
X108291279Y-103746081D01*
X109730000Y-105184802D01*
X109730000Y-107635198D01*
X108905198Y-108460000D01*
X99374802Y-108460000D01*
X98747334Y-107832532D01*
X106827073Y-107832532D01*
X106925736Y-108099387D01*
X107535461Y-108325908D01*
X108185460Y-108301856D01*
X108674264Y-108099387D01*
X108772927Y-107832532D01*
X107800000Y-106859605D01*
X106827073Y-107832532D01*
X98747334Y-107832532D01*
X97330263Y-106415461D01*
X106154092Y-106415461D01*
X106178144Y-107065460D01*
X106380613Y-107554264D01*
X106647468Y-107652927D01*
X107620395Y-106680000D01*
X107979605Y-106680000D01*
X108952532Y-107652927D01*
X109219387Y-107554264D01*
X109445908Y-106944539D01*
X109421856Y-106294540D01*
X109219387Y-105805736D01*
X108952532Y-105707073D01*
X107979605Y-106680000D01*
X107620395Y-106680000D01*
X106647468Y-105707073D01*
X106380613Y-105805736D01*
X106154092Y-106415461D01*
X97330263Y-106415461D01*
X97057401Y-106142599D01*
X96810839Y-105977852D01*
X96520000Y-105920000D01*
X87692912Y-105920000D01*
X87475481Y-105594591D01*
X87199221Y-105410000D01*
X87475481Y-105225409D01*
X87808227Y-104727419D01*
X87868232Y-104425750D01*
X97525000Y-104425750D01*
X97525000Y-105166309D01*
X97621673Y-105399698D01*
X97800301Y-105578327D01*
X98033690Y-105675000D01*
X98774250Y-105675000D01*
X98933000Y-105516250D01*
X98933000Y-104267000D01*
X99187000Y-104267000D01*
X99187000Y-105516250D01*
X99345750Y-105675000D01*
X100086310Y-105675000D01*
X100319699Y-105578327D01*
X100370557Y-105527468D01*
X106827073Y-105527468D01*
X107800000Y-106500395D01*
X108772927Y-105527468D01*
X108674264Y-105260613D01*
X108064539Y-105034092D01*
X107414540Y-105058144D01*
X106925736Y-105260613D01*
X106827073Y-105527468D01*
X100370557Y-105527468D01*
X100498327Y-105399698D01*
X100595000Y-105166309D01*
X100595000Y-104425750D01*
X100436250Y-104267000D01*
X99187000Y-104267000D01*
X98933000Y-104267000D01*
X97683750Y-104267000D01*
X97525000Y-104425750D01*
X87868232Y-104425750D01*
X87925072Y-104140000D01*
X87843731Y-103731071D01*
X90105113Y-101469689D01*
X90104769Y-101864383D01*
X90307582Y-102355229D01*
X90682796Y-102731098D01*
X91173287Y-102934768D01*
X91704383Y-102935231D01*
X92195229Y-102732418D01*
X92568297Y-102360000D01*
X97713154Y-102360000D01*
X97757932Y-102468371D01*
X97935092Y-102645841D01*
X97800301Y-102701673D01*
X97621673Y-102880302D01*
X97525000Y-103113691D01*
X97525000Y-103854250D01*
X97683750Y-104013000D01*
X98933000Y-104013000D01*
X98933000Y-103993000D01*
X99187000Y-103993000D01*
X99187000Y-104013000D01*
X100436250Y-104013000D01*
X100595000Y-103854250D01*
X100595000Y-103113691D01*
X100498327Y-102880302D01*
X100319699Y-102701673D01*
X100185006Y-102645881D01*
X100360551Y-102470643D01*
X100594733Y-101906670D01*
X100595265Y-101296009D01*
X100362068Y-100731629D01*
X99930643Y-100299449D01*
X99366670Y-100065267D01*
X98756009Y-100064735D01*
X98191629Y-100297932D01*
X97759449Y-100729357D01*
X97713506Y-100840000D01*
X93274802Y-100840000D01*
X94294802Y-99820000D01*
X101600000Y-99820000D01*
X101890839Y-99762148D01*
X102137401Y-99597401D01*
X111154802Y-90580000D01*
X113087005Y-90580000D01*
X113247368Y-90820000D01*
M02*
