M48
;DRILL file {KiCad 4.0.7-e2-6376~58~ubuntu16.04.1} date Wed Oct 11 22:45:33 2017
;FORMAT={-:-/ absolute / metric / decimal}
FMAT,2
METRIC,TZ
T1C0.800
T2C1.000
%
G90
G05
M71
T1
X73.66Y-101.6
X73.66Y-106.68
X78.74Y-91.44
X78.74Y-93.98
X78.74Y-96.52
X78.74Y-99.06
X78.74Y-101.6
X78.74Y-104.14
X78.74Y-106.68
X78.74Y-109.22
X78.74Y-111.76
X80.01Y-83.82
X80.01Y-87.63
X81.28Y-116.84
X85.09Y-83.82
X85.09Y-87.63
X86.36Y-91.44
X86.36Y-93.98
X86.36Y-96.52
X86.36Y-99.06
X86.36Y-101.6
X86.36Y-104.14
X86.36Y-106.68
X86.36Y-109.22
X86.36Y-111.76
X86.36Y-116.84
X91.44Y-96.52
X91.44Y-101.6
X92.71Y-109.22
X92.71Y-115.57
X96.52Y-81.28
X96.52Y-137.16
X98.52Y-137.16
X101.6Y-81.28
X110.49Y-74.93
X110.49Y-87.63
X114.3Y-83.82
X114.3Y-85.82
X114.3Y-87.82
X114.3Y-89.82
X114.3Y-91.82
X114.3Y-93.82
T2
X50.8Y-101.6
X50.8Y-106.1
X53.34Y-80.01
X57.3Y-101.6
X57.3Y-106.1
X63.5Y-80.01
X66.04Y-101.6
X66.04Y-104.14
X78.74Y-66.04
X78.74Y-70.54
X78.74Y-132.08
X78.74Y-136.58
X80.82Y-124.46
X81.28Y-77.47
X83.36Y-124.46
X83.82Y-77.47
X85.24Y-66.04
X85.24Y-70.54
X85.24Y-132.08
X85.24Y-136.58
X96.52Y-71.12
X96.52Y-75.62
X99.06Y-101.6
X99.06Y-104.14
X103.02Y-71.12
X103.02Y-75.62
X106.68Y-135.89
X107.8Y-102.18
X107.8Y-106.68
X109.22Y-135.89
X111.76Y-135.89
X114.3Y-102.18
X114.3Y-106.68
T0
M30
